<svg xmlns="http://www.w3.org/2000/svg" xmlns:xlink="http://www.w3.org/1999/xlink" viewBox="0 0 3648 686.97"><defs><style>.a{fill:#65c9d1;opacity:0.15;}.a,.b,.c,.d,.e{isolation:isolate;}.b{fill:#20c0ff;opacity:0.55;}.c{fill:#4f9aed;opacity:0.48;}.d{fill:#2381e9;opacity:0.2;}.e{fill:#00bdee;opacity:0.86;}.f{fill:url(#a);}</style><linearGradient id="a" x1="1824" y1="3551.13" x2="1824" y2="-308.73" gradientUnits="userSpaceOnUse"><stop offset="0.02" stop-color="#041845"/><stop offset="0.31" stop-color="#17347b"/><stop offset="0.51" stop-color="#0357a7"/><stop offset="0.66" stop-color="#0a6db3"/><stop offset="0.74" stop-color="#1582bd"/><stop offset="0.89" stop-color="#28a7ce"/><stop offset="1" stop-color="#53d6db"/></linearGradient></defs><title>astro-waves</title><path class="a" d="M3648,7.36V446.24H0V69.36C261.78-10.09,551.85,23.92,809.85,107.5q9.06,2.92,18.07,5.94c20.76,6.95,41.52,14.22,62.32,21.5,49.58,17.33,99.41,34.68,150.08,47.67,18.49,4.74,37.09,8.9,55.83,12.27,32.9,5.92,66.24,9.4,100.15,9.29,65.55-.22,128.56-13.78,190.29-33.07q5.3-1.65,10.56-3.36c56.46-18.26,111.9-41,167.32-62.29q5.77-2.23,11.54-4.42,14.51-5.53,29-10.86c41.3-15.12,83-28.4,125-39.38q24.1-6.31,48.35-11.58A1003.67,1003.67,0,0,1,1937,17.35q9.28-.51,18.57-.83c80.39-2.71,161.53,5.43,243,27.41,74.72,20.16,147.37,49.05,220.63,76L2430.4,124c24.28,8.83,48.63,17.38,73.18,25.27,37.25,12,74.92,22.41,113.35,29.94,40.67,8,82.18,12.71,124.95,12.57q13.73,0,27.3-.86c35.37-2.06,70.05-7.78,104.22-15.92l2-.48c30.62-7.38,60.83-16.69,90.8-27q12.93-4.45,25.79-9.15c24.08-8.77,48-18,71.9-27.35h0l10.59-4.14c20.55-8,41.07-16,61.6-23.7q7.25-2.71,14.5-5.37,20.52-7.52,41.35-14.52C3313.08,22.58,3441.39-4.21,3570.69.55A729.11,729.11,0,0,1,3648,7.36Z"/><path class="b" d="M3648,103.27V505H0V95.86c128-19.29,259.84-15.68,389.2,4,2.69.41,5.39.82,8.08,1.25q17.55,2.76,35,5.93h0a4.72,4.72,0,0,1,.9.16h0Q448.57,110,463.86,113q9.12,1.81,18.18,3.74h0q9.59,2,19.12,4.17,13.35,3,26.63,6.18h0q37.75,9.06,74.88,19.7,41.24,11.78,81.52,25.29l10.18,3.44c20.71,7,41.42,14.32,62.19,21.57q13.78,4.81,27.61,9.56,12.45,4.27,24.93,8.43c79.13,26.29,159.53,48,243.47,47.73,68.1-.23,133.45-14.85,197.48-35.35l3.37-1.08c48.3-15.62,95.86-34.5,143.29-53,21.54-8.4,43-16.71,64.6-24.59,34.12-12.49,68.5-23.73,103.11-33.45q5.79-1.62,11.58-3.19a1098.92,1098.92,0,0,1,154-30.56q23.5-2.89,47.11-4.6c91.74-6.62,184.53.41,277.79,25.56,96,25.9,188.59,66.23,283.45,98.23q17.7,6,35.53,11.52c72.24,22.36,146.2,38.35,224.35,38.1,80.37-.27,156.91-20.58,232-46.95,14.46-5.07,28.86-10.37,43.22-15.8l2-.76c32.63-12.35,65.06-25.32,97.5-37.72q9.54-3.66,19.09-7.23,7.47-2.8,14.94-5.54,27.1-9.92,54.72-19,17.08-5.56,34.35-10.75,20.12-6,40.45-11.44,39.3-10.5,79.29-18.32C3285.24,63.41,3356,56.5,3427.08,59.11,3502.85,62,3578.52,76.36,3648,103.27Z"/><path class="c" d="M3648,285.25v276.5H493.26V236.57l-3.81-.06c1.27-.63,2.53-1.27,3.81-1.89q22.85-11.33,46.46-21.52L540,213a980.56,980.56,0,0,1,101.93-37.37q47.52-14.55,96.16-24.48,10.63-2.19,21.3-4.15,40.64-7.53,81.83-12.09a1281.46,1281.46,0,0,1,150.24-7.69q30.08.18,60.19,1.66a1603,1603,0,0,1,208,24.23q15.6,2.84,31.15,5.94,27.94,5.58,55.61,12,5.19,1.2,10.36,2.44c54.36,12.95,107.88,28.25,160.06,45.41,27.61,9.08,55.22,18.7,82.93,28.18,32.78,11.21,65.7,22.23,98.89,31.92h0c66.56,19.44,134.27,33.57,204.33,33.35,72.64-.23,142.31-15.83,210.56-37.52q5.44-1.73,10.85-3.5c56-18.35,111.13-40.49,166.23-61.3q12.21-4.62,24.49-9.14,8.14-3,16.36-5.95a1437.87,1437.87,0,0,1,151.82-45.72c63.66-15.24,128-25.41,192.83-29.09q10.53-.61,21.09-1a893.68,893.68,0,0,1,162.48,8.84c.71.1,1.42.2,2.15.32a850.05,850.05,0,0,1,91.84,19l.48.13q3.42.9,6.82,1.84,9.74,2.64,19.43,5.47c23.78,6.92,47.38,14.57,70.89,22.61,57.61,19.73,114.65,41.9,172.32,61.89q16,5.55,32.12,10.85,9.72,3.2,19.48,6.26,15.27,4.81,30.67,9.26c19.92,5.75,40,11,60.22,15.55q5.09,1.16,10.18,2.23c47.73,10.16,96.52,16.35,147,16.19C3565.73,299.45,3607.22,294.06,3648,285.25Z"/><path class="d" d="M3648,310.83V622.28H429.37V297.1l-3.74-.05c1.25-.63,2.49-1.27,3.74-1.89q18.28-9.24,37.07-17.7,4.41-2,8.86-3.95,36.08-15.84,73.07-28.51,38.44-13.23,77.7-23.18a1077,1077,0,0,1,130.55-24.64q13.77-1.74,27.57-3.16,12.75-1.29,25.54-2.33c76.44-6.15,153.77-5,230.75,2.17q27.79,2.58,55.52,6.18c51.8,6.72,103.3,16,154.11,27.51A1908.13,1908.13,0,0,1,1435,279.44c21.72,7.27,43.45,14.89,65.22,22.5,29.74,10.4,59.57,20.79,89.61,30.28,73.06,23.11,147.37,40.92,224.58,40.67,71.37-.24,139.82-15.83,206.88-37.52,51.61-16.69,102.4-37,153.07-56.71,20.35-7.91,40.69-15.73,61.05-23.19,36.74-13.45,73.76-25.48,111-35.8q13.68-3.8,27.42-7.26c80-20.26,161.19-32.33,243.06-33.25a854.07,854.07,0,0,1,152.25,11.71q30.47,5.14,61,12.69,8.28,2,16.57,4.28c93.3,25.17,183.45,63.57,275.4,95.51,16.77,5.82,33.6,11.43,50.52,16.71,75.24,23.47,152.27,40.33,233.7,40.07,60.67-.2,119.22-11.49,176.6-28.2C3604.82,325.58,3626.45,318.44,3648,310.83Z"/><path class="e" d="M490.92,678.36,0,687V249.1q14.91-7.59,30.28-14.38c76.73-33.85,161.25-52.63,246.19-57.38,27.9-1.56,55.79-1.7,83.61-.58C439,179.91,517.44,193.22,594,213.1q16.08,4.17,32,8.72c36.54,10.4,72.62,22.21,108.1,35,145.47,52.52,290,123.45,446.31,121.24,113.09-1.6,217.36-35.77,319.77-76.14,45.25-17.83,90.13-36.88,135.26-54.86,43.12-17.19,86.45-33.4,130.53-46.67,184.44-55.49,368.75-41.88,548.27,9.62q16.11,4.62,32.17,9.64,32.41,10.13,64.6,21.78c75.49,27.27,150.73,59.47,227.51,83.84,71.17,22.6,143.64,38.47,218.81,37.41,91.74-1.3,179-27.78,264.78-59.35,41.39-15.24,82.43-31.66,123.46-47l9-3.36,7.9-2.9q58.21-21.25,118.44-39.09c87-25.66,176.61-45.32,267-56.9V622.25Z"/><path class="f" d="M3648,627.9v50.46H0v-386A891.72,891.72,0,0,1,132.1,267.13c110.71-12.75,223.43-5.72,334.34,16q41.16,8,81.93,18.69c75.25,19.58,149.22,45.46,220.66,75.94,57.11,24.37,114.25,51.78,172.24,74.16,67.46,26,136.09,45.26,207.18,45,68.88-.28,135-18.8,199.86-45,2.34-.94,4.67-1.9,7-2.86,72.34-29.82,143.06-68.7,214.12-101.85q10.2-4.76,20.42-9.32a1138.16,1138.16,0,0,1,142.81-53.22c75.32-22.17,151.55-34.81,228.41-34.81A670.77,670.77,0,0,1,2151,276.95q11.7,3.44,23.41,7.33,3.19,1.06,6.39,2.16c131,45.05,255.81,123.36,388.09,165.43,55.52,17.66,112.36,28.94,171.53,28.7,53.5-.22,105.36-11.44,156.22-28.7,90.17-30.59,177.21-80.13,264.76-121q5.65-2.64,11.32-5.22a1269.83,1269.83,0,0,1,139.13-54.44q15.18-4.87,30.44-9.26,19.29-5.55,38.73-10.28c70.07-17,141.43-25.65,213.08-22.29q27,1.26,53.92,5V627.9Z"/></svg>