<?xml version="1.0" encoding="UTF-8" standalone="no"?>
<svg
   xmlns:dc="http://purl.org/dc/elements/1.1/"
   xmlns:cc="http://creativecommons.org/ns#"
   xmlns:rdf="http://www.w3.org/1999/02/22-rdf-syntax-ns#"
   xmlns:svg="http://www.w3.org/2000/svg"
   xmlns="http://www.w3.org/2000/svg"
   xmlns:sodipodi="http://sodipodi.sourceforge.net/DTD/sodipodi-0.dtd"
   xmlns:inkscape="http://www.inkscape.org/namespaces/inkscape"
   viewBox="0 0 3648.02 1297.7265"
   version="1.1"
   id="svg35"
   sodipodi:docname="astro-waves.svg"
   inkscape:version="0.92.4 (5da689c313, 2019-01-14)"
   width="3648.02"
   height="1297.7264">
  <metadata
     id="metadata39">
    <rdf:RDF>
      <cc:Work
         rdf:about="">
        <dc:format>image/svg+xml</dc:format>
        <dc:type
           rdf:resource="http://purl.org/dc/dcmitype/StillImage" />
      </cc:Work>
    </rdf:RDF>
  </metadata>
  <sodipodi:namedview
     pagecolor="#ffffff"
     bordercolor="#666666"
     borderopacity="1"
     objecttolerance="10"
     gridtolerance="10"
     guidetolerance="10"
     inkscape:pageopacity="0"
     inkscape:pageshadow="2"
     inkscape:window-width="1920"
     inkscape:window-height="1052"
     id="namedview37"
     showgrid="false"
     inkscape:zoom="0.2814471"
     inkscape:cx="1247.7152"
     inkscape:cy="516.29606"
     inkscape:window-x="0"
     inkscape:window-y="0"
     inkscape:window-maximized="1"
     inkscape:current-layer="svg35" />
  <defs
     id="defs19">
    <style
       id="style2">.a{fill:#65c9d1;opacity:0.15;}.a,.b,.c,.d,.e{isolation:isolate;}.b{fill:#20c0ff;opacity:0.55;}.c{fill:#4f9aed;opacity:0.48;}.d{fill:#2381e9;opacity:0.2;}.e{fill:#00bdee;opacity:0.86;}.f{fill:url(#a);}</style>
    <linearGradient
       id="a"
       x1="1824"
       y1="3551.1299"
       x2="1824"
       y2="-308.73001"
       gradientUnits="userSpaceOnUse"
       gradientTransform="matrix(1,0,0,0.6224525,0,870.10153)">
      <stop
         offset="0.02"
         stop-color="#041845"
         id="stop4" />
      <stop
         offset="0.31"
         stop-color="#17347b"
         id="stop6" />
      <stop
         offset="0.51"
         stop-color="#0357a7"
         id="stop8" />
      <stop
         offset="0.66"
         stop-color="#0a6db3"
         id="stop10" />
      <stop
         offset="0.74"
         stop-color="#1582bd"
         id="stop12" />
      <stop
         offset="0.89"
         stop-color="#28a7ce"
         id="stop14" />
      <stop
         offset="1"
         stop-color="#53d6db"
         id="stop16" />
    </linearGradient>
  </defs>
  <title
     id="title21">astro-waves</title>
  <path
     inkscape:connector-curvature="0"
     class="b"
     d="m 3648,814.44 v 370 H 0 v -370 h 39 v -14 h 93.1 V 713.2 c 4.88,0.79 10,0.95 14.59,2.51 6.11,2.07 11.84,5.23 19.88,8.89 4.68,-0.5 11.86,-1.93 19.05,-2 q 61.71,-0.31 123.42,0 a 47.17,47.17 0 0 1 14.76,2.45 l 14.3,-4.82 8.17,8 c 4.28,-8.5 10.82,-16.12 12.38,-27.76 0.79,-5.89 1.22,-11.76 1.43,-17.62 0.39,-10.73 0,-21.42 -0.18,-32.11 -0.2,-9.33 -4,-18.57 -6.39,-29 l 4.38,-4.71 29.56,27.41 c 2.46,-12.55 -1.29,-25.73 1.78,-38.47 0.19,-0.83 0.42,-1.66 0.68,-2.49 0.19,-0.6 1.17,-1 2.3,-1.83 q 2.61,2.73 5.1,5.57 c 9.75,11.07 18.5,23.38 29,36.26 v -28 l 6,-2.36 v 0 l 0.6,-0.24 0.3,0.4 v 0 l 28.91004,37.83 c 3.68,-8.67 3.7,-10.13 1.77,-21.79 v -17.69 l 4.64,-2.6 c 5.5,3.85 9.68,8.74 13.54,13.84 v 0 c 3.08,4 6,8.25 9.15,12.17 2.9,3.56 6.27,6.74 10,10.67 v -24.58 l -1.59,-0.31 5.82,-10.76 c 8,8.22 15.12,15.64 22.3,23 l 0.1,0.11 v 0 c 2.55,2.65 5,5.4 7.72,7.88 9.6,8.8 18.27,18.9 31.44,23 h 14.29 c 6.1,-2.94 13.05,-5.28 18.83,-9.3 0.87,-0.61 1.74,-1.22 2.6,-1.85 a 170.54,170.54 0 0 0 35.44,-34.32 c 2.76,-3.59 5.85,-6.92 8.78,-10.37 5.29,0.82 6.3,4.84 6.56,8.49 a 111,111 0 0 1 -0.44,16.2 c -0.4,5.31 -1.23,10.59 0,16.76 l 30.29,-36.22 c 4.7,0.6 5.39,3.8 5.39,7.53 v 26.78 c 7.92,-4.87 11.11,-12.43 16.16,-18.23 5.05,-5.8 9.8,-11.81 15.1,-18.24 h 5.92 v 38.7 l 32,-41.41 c 5.55,1.4 5.72,5.47 4.86,9.91 -2.09,10.82 -4.3,21.61 -6.6,33.14 6.8,-6.82 12.41,-13.8 19.35,-19 7.14,-5.35 10.36,-15.52 20.78,-17.35 4.31,6.78 -0.11,11.9 -2,17.53 -1.89,5.63 -2.91,11.8 -5.44,17.54 v 18.71 c -4.2,6 -4.87,12.79 -4.8,19.91 q 0.06,5.56 0.08,11.13 v 47.17 c 6.42,-1.37 3.56,-6.61 6,-10.32 l 7.48,2 9.76,-4.91 c 0.49,-4.17 1.27,-8.45 1.77,-12.77 a 65.74,65.74 0 0 0 0.49,-7.28 q 0,-8.1 0.08,-16.2 0.1,-22.35 0.11,-44.71 v -72.63 c 2.82,-5.26 6.52,-4.7 10,-4.71 q 20.37,0 40.75,-0.06 c 3.39,0 6.77,-0.39 10.42,-0.61 2.85,-9.46 1.18,-18.37 1.49,-27.12 0.31,-8.53 0.09,-17.07 0.09,-25.61 v -27.79 h 46.31 c 0.21,-4.14 0.3,-7.13 0.53,-10.11 2.72,-35.16 2,-70.39 2.06,-105.61 0,-3.43 -0.53,-7.13 4,-9.8 H 1032.23 l 5.11,4.82 c -0.47,10.51 -1,20.46 -1.33,30.42 -0.34,10.66 -0.14,21.42 0.35,32 3,65.68 1.35,131.37 1.51,197.05 q 0,16 0.25,32 a 171.52,171.52 0 0 1 2.21,23.33 c 0.12,3.77 0.16,7.53 0.16,11.3 0,12.39 -0.55,24.79 -0.21,37.16 0.12,4.14 -0.36,8.3 -0.58,12.92 h 16 c 0.33,-6 1,-11.87 0.86,-17.72 -0.2,-6.39 1.78,-12 4.4,-18.53 h 34.38 c 0.22,-2.88 0.51,-5.33 0.67,-7.65 0.08,-1.09 0.13,-2.15 0.14,-3.21 v -2 c 0.08,-19.9 0,-39.82 0.2,-59.71 a 40.14,40.14 0 0 1 0.65,-6.26 c 0.4,-2.34 0.9,-4.67 1.24,-7 l 9.08,-1.75 c 0.4,-5.28 0.78,-10.21 1.22,-16 l 9.76,-2.78 c 3.87,-10.52 3.51,-21.66 3.48,-32.79 v -77.18 c 7.29,-5.23 14.48,-2.59 21.21,-3.09 6.49,-0.48 13,-0.1 19.66,-0.1 3.84,-13.7 -2.58,-27.92 4.92,-40.36 h 13.73 c 3.3,-7 -1.78,-15.07 4,-21.9 h 13 c 5.67,6.23 0.6,14.07 4.41,21 9.16,3.61 19.44,0.07 29.86,2.25 1.77,7.41 4.89,14.56 1.76,23.07 -1.56,4.26 0,9.67 0.2,15.7 11.56,0.09 21.91,0.22 32.26,0.26 10.35,0.04 20.87,0 29.93,0 5.27,2.79 4.57,6.49 4.58,9.93 q 0,27.94 0.08,55.89 v 114.12 c 0,3.78 0.14,7.55 0.21,11.51 9.74,3 18.48,1.63 27.52,1.32 0.83,-2 2.1,-3.68 2.17,-5.41 q 0.33,-8.23 0.71,-16.46 c 0.74,-16.89 1.48,-33.8 1.55,-50.69 0.35,-94.7 0.29,-189.4 0.54,-284.1 0,-8.43 1.71,-16.85 1.73,-25.29 0,-8 -1.24,-16.07 -1.72,-24.12 a 54.54,54.54 0 0 1 0.63,-7.8 c 17.37,-9.14 37.79,-8.1 54.35,-18.12 v -20.46 l -9.07,-12.47 -9.81,-0.57 -5.86,-5.14 c -0.22,-3.14 -0.43,-6.18 -0.64,-9.24 l -8.49,-4.27 v -19.22 l -11.34,-9.13 v -14.7 c 10.28,-12 25.18,-14.69 41.06,-18.11 v -23.18 c 10.22,-4.33 20.65,1.28 29.83,-4.86 1,-9.57 2.1,-19.46 3.13,-28.91 l -4.8,-7.32 4.5,-7 c -0.34,-10.79 2.1,-21.68 -2.41,-32.27 l 4.66,-7.14 V 16.8 l -4.45,-6.93 8.41,-9.87 c 1.48,2.89 3.18,6.24 5,9.84 -3,9 -2.94,19.66 -0.69,26 v 34.21 l 3.29,7.54 -3.38,5.53 c 0.58,11.37 1.12,21.75 1.71,33.23 l 22.37,0.93 c 5.43,8 0.72,16.61 3.78,24.95 14.72,1.71 28.51,6.88 40.32,17.74 v 14.47 l -10.19,8.08 c -1.06,7.88 -2,14.7 -2.87,21.41 l -7,3.25 c -0.28,5.31 0.11,11.07 -6.73,14.35 l -7.91,0.47 c -10.74,5.82 -14,18.37 -9.3,35.81 8,2.44 16.58,0.83 25,1.18 8.13,0.34 16.29,0.08 24.86,0.08 l 6.11,5.69 a 15.63,15.63 0 0 1 0.35,1.87 c 2.84,78.67 2,157.36 2.09,236.05 0,3.37 -0.48,6.74 -0.77,10.63 7.56,3.81 15.78,1.31 23.68,1.72 8.12,0.43 16.28,0.1 24.52,0.1 l 6.07,5.68 c 0.12,1.63 0.32,3.15 0.33,4.67 q 0,43 0.06,86.06 v 43.18 c 0,2.32 -0.41,4.8 0.25,6.93 0.59,1.9 2.41,3.41 4.88,6.65 0.86,-4 1.67,-6 1.67,-8 0,-12.72 0.24,-25.23 4,-37.74 a 24.12,24.12 0 0 0 0.81,-4.16 74.64,74.64 0 0 0 -0.05,-11.28 57.6,57.6 0 0 1 0,-6.57 c 0.87,-16.94 2,-33.87 3,-50.24 2.36,-4.3 4.76,-8.16 6.66,-12.26 2.48,-5.36 7.08,-6.67 12,-6.81 4.85,-6.73 -2.67,-12.95 0.47,-20.16 l 8,1 v 19 l 6.2,0.57 c 0.61,-3.53 1.19,-6.83 1.76,-10.14 0.61,-0.43 1.19,-1.2 1.82,-1.25 24.05,-1.85 39,-0.91 45.89,3 0.29,5.39 0.59,11.07 0.9,16.75 h 1.25 c 0.35,-3.74 0.69,-7.48 1.06,-11.47 3.59,-3.11 8,-1.54 12.12,-1.8 4.12,-0.26 8.46,-0.06 13.39,-0.06 0.74,-3 1.75,-5.5 1.85,-8 0.28,-7 -0.07,-14 0.28,-21 0.79,-15.78 1.85,-31.54 2.81,-47.44 -7.11,-7 -9.09,-15.27 -6.7,-25.49 l 6.5,-3.16 a 34.43,34.43 0 0 1 4.38,15.94 c 0.7,26.27 1.73,52.53 2.58,78.79 0.13,3.91 0.46,7.61 5.11,10.54 1.26,-2.69 2.91,-5.16 3.55,-7.86 0.64,-2.7 0.12,-5.41 0.22,-8.12 0.75,-20.83 1.47,-41.66 2.41,-62.48 0.11,-2.41 1.56,-4.75 2.59,-7.71 6.48,4.57 3.52,11.61 5.9,14.36 -0.62,9.12 -1.42,16.37 -1.54,23.62 -0.22,14.36 -0.06,28.72 -0.06,43.16 1.55,2.39 3,4.63 4.73,7.28 v 9.83 l 5,6.79 v 75.71 c 5.66,0.7 10.55,1.26 15.43,2 0.62,0.09 1.13,1 2.61,2.42 v 28.58 H 1776 c 0.15,-3.12 0.42,-6.11 0.43,-9.1 0.06,-16.69 -0.73,-33.42 0.21,-50.06 q 0.34,-6 0.62,-12 0.89,-19 1.24,-37.94 c 1.12,-55 -0.38,-110.08 0,-165.12 0.56,-71.4 0.13,-142.82 0.16,-214.23 0,-2.66 0.25,-5.32 0.42,-8.66 14.95,-2 29.63,-0.18 46.58,-1.18 l 3.72,-3.41 c -0.83,-10.05 -1.42,-17.3 -2,-24.69 l 9.37,-8.7 c 1,-9.09 2.24,-20.08 3.57,-31.94 l 5.93,-0.63 a 73.21,73.21 0 0 0 6.79,36.68 l 20.4,1 c 6,7.1 1,15.6 4.29,23 4.05,3.18 8.09,3.35 11.92,-0.64 3.27,-28.83 4.74,-57.47 1.75,-86.34 -1.26,-3.45 -2.62,-7.2 -4.08,-11.19 5.43,-2.69 9.17,-2.68 12.48,1.79 l -4.14,12 c 1.82,20.74 3.44,39.48 -0.23,58.26 a 20.52,20.52 0 0 0 -0.06,6.95 39,39 0 0 0 2,6.21 c -0.89,2.93 -1.67,5.46 -2.54,8.32 l 5.57,6.72 h 34.09 c 0.95,2.84 2.15,5.19 2.47,7.66 0.39,3.05 0,6.19 0,9.3 q 0.06,178.52 0.11,357 v 53.29 c 5.32,6.15 11.43,2.94 16.93,3.7 2.86,-4.12 1.57,-8.52 1.58,-12.61 v -45.21 q 0.15,-154.38 0.25,-308.75 c 0,-4.07 -1.64,-8.65 3,-12.51 11.83,-1.69 24.65,0.88 38.27,-1.68 0.15,-12.46 0.29,-24.27 0.45,-36.86 13.25,-2.76 25.7,-0.18 38.08,-1.83 4.08,-8.5 -2,-18.56 4,-27.18 h 26.18 c 3.41,11.15 0.3,22.5 2.22,34.39 20.28,0.48 40.33,0.07 61.4,0.22 0.94,2 2.52,4.18 3,6.58 0.55,3 0.17,6.19 0.17,9.29 q 0,65.2 0.05,130.41 v 12.31 a 41.68,41.68 0 0 0 25.24,0.28 V 266.2 l 7,-8.08 5.22,9.25 v 61.07 h 50.1 c 7,8.18 14.18,16.22 21,24.56 3,3.73 3.24,8.45 3.22,13.22 -0.12,19.8 0,39.59 0,59.38 v 11 l 14.13,0.88 v -68.04 c 0,-22.9 -0.77,-45.84 0.27,-68.69 1,-22.27 -2,-44.53 0.34,-66.64 4,-4.07 8.61,-5.21 13.88,-5.15 11.63,0.16 23.25,0.05 35.36,0.05 2.71,-10.93 0,-21.86 2,-32.52 1.51,-0.83 2.82,-2.18 4.14,-2.19 17.77,-0.14 35.54,-0.09 53.77,-0.09 4.86,12.82 -0.78,26.07 3.77,38.28 l 43.54,1.4 c 1.35,1.23 1.66,1.47 1.92,1.76 a 5.1,5.1 0 0 1 0.67,0.93 3.62,3.62 0 0 1 0.52,1 22.18,22.18 0 0 1 0.26,2.3 v 3.49 q 0.14,191.3 0.28,382.59 v 5.13 a 3.72,3.72 0 0 0 0.18,1.14 10.44,10.44 0 0 0 0.66,1.34 c 2.88,3.62 6.12,3.65 10.13,-0.27 0.06,-1 0.15,-2.09 0.24,-3.23 0.13,-1.71 0.26,-3.54 0.27,-5.37 0.07,-18.63 0.18,-37.26 0,-55.89 -0.06,-6.25 0.56,-12.23 3.83,-18.35 l 16.33,-0.9 c 4.3,-3.89 2.68,-8.45 2.7,-12.51 0.15,-32.21 0.11,-64.42 0.14,-96.64 v -11.74 c 5.54,-7 12.74,-2.22 17.89,-4.84 4,-2.43 3.17,-6.15 3.18,-9.56 v -51.5 c 13.56,-7 27.94,-1.13 42.66,-4.4 1.22,-4.94 2.64,-10.36 3.89,-15.83 2.92,-12.85 7.58,-24.95 17.38,-34.1 4.38,-4.08 10.11,-6.72 15.2,-10 2.21,-1.44 4.37,-3 5.74,-3.92 l 4.44,-21.25 c 3.26,3.71 5.48,5.23 6.23,7.28 1.55,4.28 2.33,8.85 3.59,14 l 14.5,5.24 c 18,15.23 29.31,33.76 29.05,58.33 l 13.86,2.06 4,4.77 v 39.37 c 8.26,3.28 16.57,0.12 25.33,2.28 0.23,3.19 0.68,6.54 0.68,9.89 0.07,60.54 0,121.09 0.22,181.63 0,7.94 1.27,15.88 2,24.57 h 27.4 a 32.46,32.46 0 0 1 2.1,3.63 31.11,31.11 0 0 1 3.18,14.56 c 0,6.51 -0.93,13.13 2,19.41 a 6,6 0 0 1 0.09,4.57 c -2.89,6.15 0.46,11.63 0.69,17.72 h 13.22 c 0.11,-9.51 -0.11,-18.71 0.36,-27.88 q 0.73,-14.69 1.19,-29.36 c 2.42,-75.86 -0.12,-151.75 1,-227.61 0,-1.16 0.17,-2.32 0.35,-4.68 10.83,-6.87 23.77,-1 36.45,-4.28 v -42.63 c 10.87,-6.74 22.75,-0.71 34.21,-4.67 2.15,-9.62 0.67,-19.66 0.93,-29.55 0.27,-10.08 0.06,-20.18 0.06,-30.27 v -31.21 l 8.15,-3.83 c 0.65,2.63 1.32,4.06 1.32,5.49 q 0.12,38.42 0.08,76.84 v 11.26 c 8.15,4.76 16,2.08 23.55,2.56 7.25,0.47 14.55,0.1 22.64,0.1 0.61,16.63 -0.25,32.3 0.74,47.49 h 25.84 l 4.29,4.34 v 308.07 l 1.49,0.06 c 0.18,-2.85 0.53,-5.7 0.53,-8.55 V 680.6 c 0,-15.39 -0.11,-30.78 0.09,-46.16 0,-1.79 0,-3.58 0.08,-5.37 0.21,-12.69 1.35,-25.36 2.3,-38 0.12,-1.72 1.52,-3.34 2.2,-4.74 14.85,-2 50.86,-1.4 58.6,0.7 16.06,-3.42 31.56,-0.91 47,-1.83 l 6.33,6 v 116.6 l 6.1,3.84 9.61,-7.49 h 14.19 c 11.74,7.08 25.75,10.72 36.28,19.44 2,-1.58 2.34,-1.78 2.6,-2.05 a 2.81,2.81 0 0 0 0.68,-0.9 2.94,2.94 0 0 0 0.19,-1.14 V 619.44 l 2.24,-2.36 v 0 l 4,-4.14 h 67.28 a 42.56,42.56 0 0 0 1.32,-11.44 c 0,-4.08 -0.32,-8.19 -0.36,-12.26 -0.08,-6.85 0.59,-13.58 4.82,-19.89 h 72 a 64.8,64.8 0 0 1 2.64,6.8 c 0.41,1.44 0.11,3.08 0.15,4.63 l 0.06,2.4 c 0.67,25.09 1.39,50.18 1.9,75.27 0.1,4.54 -0.77,9.09 -1.28,14.58 3.1,3.81 7.81,5.63 14.52,5 0,-0.65 0,-1.29 0.07,-1.93 v 86.34 h 140 v 52 z"
     id="path8427"
     style="opacity:1;isolation:isolate;fill:#1a60ae;fill-opacity:1" />
  <path
     class="a"
     d="M 3648,874.68278 V 1147.8647 H 0 V 913.27484 c 261.78,-49.45386 551.85,-28.28425 809.85,23.74033 q 9.06,1.81757 18.07,3.69737 c 20.76,4.32605 41.52,8.85128 62.32,13.38273 49.58,10.7871 99.41,21.58665 150.08,29.67231 18.49,2.95043 37.09,5.53983 55.83,7.63749 32.9,3.68492 66.24,5.85106 100.15,5.78259 65.55,-0.13694 128.56,-8.5774 190.29,-20.58451 q 5.3,-1.02704 10.56,-2.09144 c 56.46,-11.36598 111.9,-25.52055 167.32,-38.77256 q 5.77,-1.38807 11.54,-2.75124 14.51,-3.44217 29,-6.75984 c 41.3,-9.41148 83,-17.67765 125,-24.51218 q 24.1,-3.92767 48.35,-7.208 A 1003.67,624.7369 0 0 1 1937,880.90108 q 9.28,-0.31745 18.57,-0.51663 c 80.39,-1.68685 161.53,3.37991 243,17.06142 74.72,12.54864 147.37,30.53129 220.63,47.30639 l 11.2,2.53338 c 24.28,5.49626 48.63,10.81822 73.18,15.72937 37.25,7.46943 74.92,13.94917 113.35,18.63623 40.67,4.97962 82.18,7.91137 124.95,7.82423 q 13.73,0 27.3,-0.53531 c 35.37,-1.28225 70.05,-4.84268 104.22,-9.90944 l 2,-0.29878 c 30.62,-4.5937 60.83,-10.38873 90.8,-16.80622 q 12.93,-2.76991 25.79,-5.69544 c 24.08,-5.45891 48,-11.20414 71.9,-17.02407 v 0 l 10.59,-2.57696 c 20.55,-4.97962 41.07,-9.95924 61.6,-14.75212 q 7.25,-1.68685 14.5,-3.34257 20.52,-4.68084 41.35,-9.03801 c 121.15,-25.34004 249.46,-42.01555 378.76,-39.05267 a 729.11,453.83634 0 0 1 77.31,4.2389 z"
     id="path23"
     inkscape:connector-curvature="0"
     style="opacity:0.15;isolation:isolate;fill:#65c9d1;stroke-width:1" />
  <path
     class="b"
     d="M 3648,934.3822 V 1184.44 H 0 V 929.76983 c 128,-12.00711 259.84,-9.76006 389.2,2.48981 2.69,0.2552 5.39,0.51041 8.08,0.77806 q 17.55,1.71797 35,3.69115 v 0 a 4.72,2.9379758 0 0 1 0.9,0.0996 v 0 q 15.39,1.74286 30.68,3.61022 9.12,1.12664 18.18,2.32797 v 0 q 9.59,1.24491 19.12,2.59563 13.35,1.86736 26.63,3.84676 v 0 q 37.75,5.63942 74.88,12.26231 41.24,7.33249 81.52,15.74183 l 10.18,2.14123 c 20.71,4.35717 41.42,8.91352 62.19,13.4263 q 13.78,2.994 27.61,5.95065 12.45,2.65785 24.93,5.24725 c 79.13,16.3643 159.53,29.8777 243.47,29.7097 68.1,-0.1432 133.45,-9.2434 197.48,-22.0037 l 3.37,-0.6723 c 48.3,-9.7227 95.86,-21.47457 143.29,-32.98995 21.54,-5.2286 43,-10.40118 64.6,-15.3061 34.12,-7.77443 68.5,-14.7708 103.11,-20.82104 q 5.79,-1.00837 11.58,-1.98562 a 1098.92,684.0255 0 0 1 154,-19.02215 q 23.5,-1.79889 47.11,-2.86328 c 91.74,-4.12064 184.53,0.2552 277.79,15.90988 96,16.12152 188.59,41.22503 283.45,61.14351 q 17.7,3.73472 35.53,7.17065 c 72.24,13.918 146.2,23.8711 224.35,23.7155 80.37,-0.1681 156.91,-12.8101 232,-29.2242 14.46,-3.15583 28.86,-6.45483 43.22,-9.83475 l 2,-0.47306 c 32.63,-7.68729 65.06,-15.7605 97.5,-23.47891 q 9.54,-2.27818 19.09,-4.50033 7.47,-1.74287 14.94,-3.44839 27.1,-6.17473 54.72,-11.8266 17.08,-3.46083 34.35,-6.69136 20.12,-3.73472 40.45,-7.12086 39.3,-6.53575 79.29,-11.40333 c 69.45,-8.39066 140.21,-12.6918 211.29,-11.0672 75.77,1.79889 151.44,10.7373 220.92,27.4875 z"
     id="path25"
     inkscape:connector-curvature="0"
     style="opacity:0.55;isolation:isolate;fill:#20c0ff;stroke-width:1" />
  <path
     class="c"
     d="m 3648,1047.6561 v 172.1081 H 493.26 v -202.4091 l -3.81,-0.037 c 1.27,-0.3921 2.53,-0.7905 3.81,-1.1764 q 22.85,-7.0524 46.46,-13.3952 l 0.28,-0.062 a 980.56,610.35202 0 0 1 101.93,-23.26104 q 47.52,-9.05668 96.16,-15.23763 10.63,-1.36318 21.3,-2.58318 40.64,-4.68707 81.83,-7.52545 a 1281.46,797.64798 0 0 1 150.24,-4.78666 q 30.08,0.11204 60.19,1.03327 a 1603,997.79136 0 0 1 208,15.08202 q 15.6,1.76777 31.15,3.69737 27.94,3.47329 55.61,7.46943 5.19,0.74694 10.36,1.51878 c 54.36,8.06076 107.88,17.58429 160.06,28.26559 27.61,5.6519 55.22,11.6398 82.93,17.5407 32.78,6.9777 65.7,13.8371 98.89,19.8687 v 0 c 66.56,12.1005 134.27,20.8957 204.33,20.7588 72.64,-0.1432 142.31,-9.8534 210.56,-23.3544 q 5.44,-1.0769 10.85,-2.1786 c 56,-11.422 111.13,-25.2031 166.23,-38.1564 q 12.21,-2.8757 24.49,-5.68919 8.14,-1.86735 16.36,-3.70359 a 1437.87,895.00578 0 0 1 151.82,-28.45853 c 63.66,-9.48617 128,-15.81652 192.83,-18.10714 q 10.53,-0.3797 21.09,-0.62245 a 893.68,556.27335 0 0 1 162.48,5.50248 c 0.71,0.0622 1.42,0.12449 2.15,0.19918 a 850.05,529.11575 0 0 1 91.84,11.8266 l 0.48,0.0809 q 3.42,0.5602 6.82,1.14531 9.74,1.64327 19.43,3.40482 c 23.78,4.30737 47.38,9.06913 70.89,14.07365 57.61,12.28098 114.65,26.08076 172.32,38.52356 q 16,3.4546 32.12,6.7536 9.72,1.9919 19.48,3.8966 15.27,2.994 30.67,5.7639 c 19.92,3.5791 40,6.847 60.22,9.6791 q 5.09,0.7221 10.18,1.3881 c 47.73,6.3241 96.52,10.1771 147,10.0775 42.44,-0.075 83.93,-3.4297 124.71,-8.9135 z"
     id="path27"
     inkscape:connector-curvature="0"
     style="opacity:0.47999998;isolation:isolate;fill:#4f9aed;stroke-width:1" />
  <path
     class="d"
     d="m 3648,1063.5784 v 193.8629 H 429.37 v -202.4091 l -3.74,-0.031 c 1.25,-0.3922 2.49,-0.7905 3.74,-1.1765 q 18.28,-5.7514 37.07,-11.0174 4.41,-1.2449 8.86,-2.4587 36.08,-9.8596 73.07,-17.7461 38.44,-8.235 77.7,-14.4284 a 1077,670.38134 0 0 1 130.55,-15.33727 q 13.77,-1.08306 27.57,-1.96695 12.75,-0.80296 25.54,-1.45031 c 76.44,-3.82808 153.77,-3.11226 230.75,1.35072 q 27.79,1.60593 55.52,3.84676 c 51.8,4.18288 103.3,9.95925 154.11,17.12365 a 1908.13,1187.7203 0 0 1 184.89,32.2991 c 21.72,4.5252 43.45,9.2683 65.22,14.0051 29.74,6.4735 59.57,12.9408 89.61,18.8479 73.06,14.3849 147.37,25.4708 224.58,25.3151 71.37,-0.1493 139.82,-9.8534 206.88,-23.3544 51.61,-10.3887 102.4,-23.0307 153.07,-35.2993 20.35,-4.9236 40.69,-9.7911 61.05,-14.4346 36.74,-8.372 73.76,-15.8601 111,-22.2838 q 13.68,-2.3653 27.42,-4.519 c 80,-12.61092 161.19,-20.12392 243.06,-20.69658 a 854.07,531.61801 0 0 1 152.25,7.28892 q 30.47,3.1994 61,7.89892 8.28,1.24491 16.57,2.6641 c 93.3,15.66714 183.45,39.56934 275.4,59.45044 16.77,3.6227 33.6,7.1146 50.52,10.4012 75.24,14.6089 152.27,25.1035 233.7,24.9417 60.67,-0.1245 119.22,-7.152 176.6,-17.5532 21.89,-3.9526 43.52,-8.3969 65.07,-13.1338 z"
     id="path29"
     inkscape:connector-curvature="0"
     style="opacity:0.2;isolation:isolate;fill:#2381e9;stroke-width:1" />
  <path
     class="e"
     d="M 490.92,1292.3484 0,1297.7264 v -272.5719 q 14.91,-4.7245 30.28,-8.9509 c 76.73,-21.07004 161.25,-32.75969 246.19,-35.71634 27.9,-0.97103 55.79,-1.05817 83.61,-0.36103 78.92,1.96073 157.36,10.24557 233.92,22.61997 q 16.08,2.5956 32,5.4277 c 36.54,6.4736 72.62,13.8247 108.1,21.7859 145.47,32.6912 290,76.8417 446.31,75.4661 113.09,-0.9959 217.36,-22.2651 319.77,-47.3935 45.25,-11.0983 90.13,-22.9561 135.26,-34.1478 43.12,-10.6999 86.45,-20.7899 130.53,-29.04981 184.44,-34.53989 368.75,-26.06831 548.27,5.98801 q 16.11,2.8757 32.17,6.0004 32.41,6.3055 64.6,13.557 c 75.49,16.9743 150.73,37.0173 227.51,52.1865 71.17,14.0674 143.64,23.9457 218.81,23.2859 91.74,-0.8092 179,-17.2917 264.78,-36.9425 41.39,-9.4862 82.43,-19.7069 123.46,-29.2553 l 9,-2.0915 7.9,-1.8051 q 58.21,-13.2271 118.44,-24.3316 c 87,-15.97217 176.61,-28.20959 267,-35.41759 v 291.41359 z"
     id="path31"
     inkscape:connector-curvature="0"
     style="opacity:0.86000001;isolation:isolate;fill:#00bdee;stroke-width:1" />
  <path
     class="f"
     d="m 3648,1260.9395 v 31.4089 l -3648,5.378 v -245.6447 c 43.33546,-7.2971 87.494349,-12.5469 132.1,-15.7044 110.71,-7.9363 223.43,-3.5605 334.34,9.9592 27.44,3.3198 54.75,7.1976 81.93,11.6336 75.25,12.1877 149.22,28.2967 220.66,47.2691 57.11,15.1692 114.25,32.2306 172.24,46.1611 67.46,16.1837 136.09,28.1722 207.18,28.0103 68.88,-0.1743 135,-11.7021 199.86,-28.0103 2.34,-0.5851 4.67,-1.1827 7,-1.7802 72.34,-18.5616 143.06,-42.7625 214.12,-63.3968 6.8,-1.9753 13.6067,-3.909 20.42,-5.8013 46.3608,-13.016 94.0711,-24.0831 142.81,-33.1269 75.32,-13.7998 151.55,-21.6676 228.41,-21.6676 64.281,-0.073 128.2451,5.6058 189.93,16.8623 7.8,1.4274 15.6033,2.9483 23.41,4.5625 2.1267,0.4399 4.2567,0.8881 6.39,1.3445 131,28.0415 255.81,76.7858 388.09,102.9723 55.52,10.9926 112.36,18.0138 171.53,17.8644 53.5,-0.1369 105.36,-7.1208 156.22,-17.8644 90.17,-19.0408 177.21,-49.8771 264.76,-75.3167 3.7667,-1.0955 7.54,-2.1786 11.32,-3.2492 45.268,-12.9853 91.7251,-24.3003 139.13,-33.8863 10.12,-2.0209 20.2667,-3.9422 30.44,-5.7639 12.86,-2.3031 25.77,-4.436 38.73,-6.3988 70.07,-10.5817 141.43,-15.966 213.08,-13.8745 18,0.5228 35.9733,1.5603 53.92,3.1123 v 244.9475 z"
     id="path33"
     inkscape:connector-curvature="0"
     style="fill:url(#a);stroke-width:1"
     sodipodi:nodetypes="ccccccccccccccccccccccccccccccc" />
</svg>
