<?xml version="1.0" encoding="iso-8859-1"?>
<!-- Generator: Adobe Illustrator 19.0.0, SVG Export Plug-In . SVG Version: 6.00 Build 0)  -->
<svg version="1.1" id="Layer_1" xmlns="http://www.w3.org/2000/svg" xmlns:xlink="http://www.w3.org/1999/xlink" x="0px" y="0px"
	 viewBox="0 0 511.883 511.883" style="enable-background:new 0 0 511.883 511.883;" xml:space="preserve">
<path style="fill:#8CC153;" d="M447.962,213.288h-85.137c-11.777,0-21.338,9.545-21.338,21.323v39.858
	c1.375-10.459,10.31-18.527,21.15-18.527h42.646c11.779,0,21.34,9.545,21.34,21.339v106.632c0,11.778-9.561,21.339-21.34,21.339
	h-42.646c-10.841,0-19.775-8.076-21.15-18.527v39.835c0,11.778,9.561,21.339,21.338,21.339h85.137
	c11.779,0,21.309-9.561,21.309-21.339V234.611C469.271,222.833,459.742,213.288,447.962,213.288z"/>
<path style="fill:#A0D468;" d="M362.546,469.237c0,23.557-19.089,42.646-42.646,42.646H85.274c-23.557,0-42.662-19.09-42.662-42.646
	V149.302h319.934V469.237z"/>
<g>
	<path style="fill:#E6E9ED;" d="M296.185,110.616l0.062,0.07c-0.031-0.031-2.53-3.296-3.624-7.482
		c-1.093-4.335-0.25-7.506,2.812-10.607c8.686-8.693,11.529-19.988,8.092-31.805c-2.343-7.936-6.811-13.544-7.404-14.247
		c0-0.008,0-0.008,0-0.008s0-0.016-0.031-0.023v0.008c-1.938-2.358-4.904-3.866-8.186-3.866c-5.904,0-10.686,4.78-10.686,10.67
		c0,2.569,0.906,4.936,2.438,6.779l-0.031-0.047c0.031,0.023,2.5,3.156,3.531,7.178c1.093,4.14,0.249,7.225-2.812,10.31
		c-8.646,8.678-11.521,20.034-8.092,31.993c2.312,8.092,6.842,13.833,7.342,14.465v-0.008c1.969,2.421,4.937,3.976,8.311,3.976
		c5.874,0,10.654-4.772,10.654-10.661C298.56,114.771,297.655,112.444,296.185,110.616L296.185,110.616z M279.659,60.112
		l0.031,0.016l0,0L279.659,60.112z"/>
	<path style="fill:#E6E9ED;" d="M221.071,25.338c-3.187-11.942-9.311-20.222-9.998-21.128h-0.016C209.104,1.656,206.042,0,202.575,0
		c-5.89,0-10.654,4.772-10.654,10.662c0,2.413,0.796,4.624,2.155,6.404l-0.015,0.008c0.046,0.062,4.483,6.101,6.545,14.317
		c2.453,9.833,0.484,18.183-6.014,25.533c-11.388,12.88-15.028,28.688-10.498,45.708c3.171,11.942,9.311,20.222,9.998,21.128
		l0.016-0.008c1.938,2.562,5.015,4.218,8.467,4.218c5.889,0,10.669-4.772,10.669-10.661c0-2.414-0.812-4.624-2.156-6.405
		l0.016-0.008c-0.046-0.062-4.499-6.1-6.545-14.317c-2.453-9.833-0.484-18.183,6.014-25.533
		C221.961,58.167,225.586,42.358,221.071,25.338z"/>
	<path style="fill:#E6E9ED;" d="M132.888,60.792c-2.328-7.936-6.811-13.544-7.389-14.247c0-0.008,0-0.008,0-0.008
		c-0.016-0.008-0.016-0.016-0.016-0.016l0,0c-1.968-2.358-4.921-3.866-8.217-3.866c-5.89,0-10.669,4.78-10.669,10.67
		c0,2.569,0.921,4.936,2.437,6.779l-0.031-0.047c0.016,0.023,2.484,3.156,3.546,7.178c1.078,4.14,0.234,7.225-2.843,10.31
		c-8.639,8.678-11.513,20.034-8.076,31.993c2.328,8.092,6.827,13.833,7.342,14.465v-0.008c1.953,2.421,4.936,3.976,8.295,3.976
		c5.889,0,10.669-4.772,10.669-10.661c0-2.539-0.891-4.866-2.375-6.694h0.016l0.047,0.07c-0.031-0.031-2.531-3.296-3.609-7.482
		c-1.125-4.335-0.281-7.506,2.812-10.607C133.482,83.903,136.34,72.609,132.888,60.792z M109.034,60.112
		c0.016,0,0.016,0.008,0.031,0.016h-0.016L109.034,60.112z"/>
	<polygon style="fill:#E6E9ED;" points="95.943,394.566 156.882,293.011 217.821,394.566 	"/>
</g>
<polygon style="fill:#F5F7FA;" points="146.713,394.566 227.976,252.388 309.214,394.566 "/>
<g>
</g>
<g>
</g>
<g>
</g>
<g>
</g>
<g>
</g>
<g>
</g>
<g>
</g>
<g>
</g>
<g>
</g>
<g>
</g>
<g>
</g>
<g>
</g>
<g>
</g>
<g>
</g>
<g>
</g>
</svg>
