<?xml version="1.0" encoding="UTF-8" standalone="no"?>
<!-- Created with Inkscape (http://www.inkscape.org/) -->

<svg
   xmlns:dc="http://purl.org/dc/elements/1.1/"
   xmlns:cc="http://creativecommons.org/ns#"
   xmlns:rdf="http://www.w3.org/1999/02/22-rdf-syntax-ns#"
   xmlns:svg="http://www.w3.org/2000/svg"
   xmlns="http://www.w3.org/2000/svg"
   xmlns:sodipodi="http://sodipodi.sourceforge.net/DTD/sodipodi-0.dtd"
   xmlns:inkscape="http://www.inkscape.org/namespaces/inkscape"
   width="62.453976mm"
   height="60.76305mm"
   viewBox="0 0 62.453976 60.76305"
   version="1.1"
   id="svg7612"
   inkscape:version="0.92.4 (5da689c313, 2019-01-14)"
   sodipodi:docname="vhhacksintro.svg">
  <defs
     id="defs7606">
    <filter
       inkscape:collect="always"
       style="color-interpolation-filters:sRGB"
       id="filter11593"
       x="-0.013435347"
       width="1.0268707"
       y="-0.015513891"
       height="1.0310278">
      <feGaussianBlur
         inkscape:collect="always"
         stdDeviation="1.2387603"
         id="feGaussianBlur11595" />
    </filter>
  </defs>
  <sodipodi:namedview
     id="base"
     pagecolor="#ffffff"
     bordercolor="#666666"
     borderopacity="1.0"
     inkscape:pageopacity="0.0"
     inkscape:pageshadow="2"
     inkscape:zoom="1.4"
     inkscape:cx="26.451635"
     inkscape:cy="113.63456"
     inkscape:document-units="mm"
     inkscape:current-layer="layer1"
     showgrid="false"
     inkscape:window-width="1920"
     inkscape:window-height="1052"
     inkscape:window-x="1920"
     inkscape:window-y="0"
     inkscape:window-maximized="1" />
  <metadata
     id="metadata7609">
    <rdf:RDF>
      <cc:Work
         rdf:about="">
        <dc:format>image/svg+xml</dc:format>
        <dc:type
           rdf:resource="http://purl.org/dc/dcmitype/StillImage" />
        <dc:title></dc:title>
      </cc:Work>
    </rdf:RDF>
  </metadata>
  <g
     inkscape:label="Layer 1"
     inkscape:groupmode="layer"
     id="layer1"
     transform="translate(-43.612258,-122.23157)">
    <g
       style="display:inline"
       id="g11625"
       transform="matrix(0.26458333,0,0,0.26458333,-2268.78,-1127.7357)"
       inkscape:export-filename="/home/frank/ScribusProjects/VHH-SP/salmon-vhh.png"
       inkscape:export-xdpi="400"
       inkscape:export-ydpi="400">
      <g
         style="filter:url(#filter11593)"
         id="g11279">
        <path
           inkscape:connector-curvature="0"
           id="path11273"
           d="m 8742.7234,4759.3321 110.6415,191.6363 14.1397,-24.4905 -14.0585,-24.35 -0.03,0.043 -69.0873,-119.7502 h 132.1548 l 13.3296,-23.0877 z"
           style="fill:#ffffff;fill-opacity:1;stroke-width:0.19236526" />
        <path
           inkscape:connector-curvature="0"
           id="path11275"
           d="m 8935.7753,4759.3321 -13.3298,23.0874 h 0.064 l -66.0863,114.5479 14.06,24.3522 93.524,-161.9875 z"
           style="fill:#ffffff;fill-opacity:1;stroke-width:0.19236526" />
      </g>
      <path
         inkscape:connector-curvature="0"
         id="path11267"
         d="m 8742.7234,4759.3321 110.6415,191.6363 14.1397,-24.4905 -14.0585,-24.35 -0.03,0.043 -69.0873,-119.7502 h 132.1548 l 13.3296,-23.0877 z"
         style="fill:#ffffff;fill-opacity:1;stroke-width:0.19236526" />
      <g
         transform="matrix(0.41297821,0,0,0.41297821,8700.2507,4653.8242)"
         id="g11263">
        <path
           style="fill:#89c6e0"
           inkscape:connector-curvature="0"
           class="a"
           d="m 317.48,221.77 c -47.79,-43.12 -101.6,-7.06 -101.92,-4.18 -0.13,1.2 7.6,1.68 13.48,7.44 16.89,16.52 -12.52,93.16 -18.49,119 -8.34,36.07 8.56,82.06 22.3,84.11 12.89,1.86 36.68,-32.85 84.63,-206.37 z"
           id="path11190" />
        <path
           style="fill:#ebf5ee"
           inkscape:connector-curvature="0"
           class="b"
           d="m 659.08,502.22 c 3.2,1.59 6.81,3.68 7.81,7 -25,-0.78 -49.14,-6.67 -60.12,-17.72 -1.26432,-1.34373 -15.5803,5.88915 -16.30023,4.19038 C 587.78412,484.82255 611.58395,474.94596 616.88,470 c 1.24379,1.83892 2.57879,3.61447 4,5.32 10.12,12.05 24.19,19.94 38.2,26.9 z"
           id="path11192"
           sodipodi:nodetypes="ccccccc" />
        <path
           style="fill:#ffffff"
           inkscape:connector-curvature="0"
           class="c"
           d="m 605.42,434.15 c 0.32835,12.79745 4.30422,25.23504 11.46,35.85 -4.00412,5.88728 -8.37265,11.51828 -13.08,16.86 -30.03715,-14.89033 -9.99583,-33.30244 1.62,-52.71 z"
           id="path11194"
           sodipodi:nodetypes="cccc" />
        <path
           style="fill:#f37a7a"
           inkscape:connector-curvature="0"
           class="g"
           d="m 426.47,414.53 c -31.31,54.93 -20.64,119.74 17.88,147.59 35.79,25.87 81.46,11.66 90.41,8.51 -10.90986,6.26765 -22.42499,11.41712 -34.37,15.37 -84.4705,2.7899 -301.48837,-68.29184 -167.24,-279 3.93201,11.45737 10.04441,22.04541 18,31.18 24.54,27.9 72.05,35.23 103.64,28.57 -9.66,15.29 -23.32,27.94 -27.42,46.2 -0.28,0.51 -0.6,1.05 -0.9,1.58 z"
           id="path11204"
           sodipodi:nodetypes="ccccccccc" />
        <path
           style="fill:#f5938f"
           inkscape:connector-curvature="0"
           class="d"
           d="M 333.14,307 C 230,523.76 415.92,588.75 500.39,586 q -4,1.34 -8.07,2.49 c 0,0 0,0 0,0 -79.78,10.52 -305.58,-55 -164.56,-306.86 a 104.51,104.51 0 0 0 5.38,25.37 z"
           id="path11196" />
        <path
           style="fill:#f05663"
           inkscape:connector-curvature="0"
           class="e"
           d="m 492.27,588.45 c -31.56,9 -65.37,9.88 -98.45,3.08 -46.57,-9.57 -98,-33.63 -126.25,-74.11 -66.85,-95.75 -45.46,-246.2 87.84,-321.35 -21.35,25.2 -30.27,56.48 -27.7,85.52 C 186.69,533.42 412.49,599 492.27,588.45 Z"
           id="path11198" />
        <path
           style="fill:#ebf5ee"
           inkscape:connector-curvature="0"
           class="b"
           d="m 427.4,412.92 c -3.06555,14.46647 -2.20233,29.48986 2.5,43.51 9,27.76 31.62,51.46 59.56,58.84 15.35,4.06 31.7,2.74 47,-1.47 12.22,-3.36 24.31,-8.78 32.92,-18.21 16.1,-17.64 17.61,-46.35 36,-61.44 -6.53,20.26 -6.37,42 -1.63,52.71 -24.57,28.14 -67.81919,69.24718 -107.92919,65.61718 -62,-5.54 -96.97718,-86.04497 -69.34081,-137.95718 0.29,-0.52 0.61,-1.06 0.92,-1.6 z"
           id="path11200"
           sodipodi:nodetypes="cccccccccc" />
        <path
           style="fill:#d1eced"
           inkscape:connector-curvature="0"
           class="f"
           d="m 534.76,570.63 c -8.95,3.15 -54.61,17.36 -90.41,-8.51 -38.52,-27.85 -49.19,-92.66 -17.88,-147.59 -12.07,56 10.78,120.3 72.8,125.85 C 539.39,544 579.18,515 603.8,486.86 a 15.59,15.59 0 0 0 3,4.6 c 11,11 35.14,16.94 60.12,17.72 a 5.92,5.92 0 0 1 0.27,1.3 c 0.45,4.88 -4.75,8.11 -9.26,9.85 a 131.21,131.21 0 0 1 -51.62,8.7 c -7.54,-0.26 -17.13,-2 -23.62,2.41 -5.83,3.93 -10.67,11.36 -16,16.13 a 186.45,186.45 0 0 1 -31.87,23 z"
           id="path11202" />
        <path
           style="fill:#a5ddea"
           inkscape:connector-curvature="0"
           class="h"
           d="m 491.9,325.29 c -0.64,0 -5.09137,6.09301 -6.37137,6.97301 -2.60302,1.78332 -4.1338,5.78191 -7.00699,7.08602 -5.07373,2.32471 -7.78596,4.55036 -13.24111,5.72863 -26.18,5.73 -72.72186,1.07013 -95.32186,-13.62987 -9.94847,-6.39931 -16.59553,-22.49695 -18.98425,-34.08217 -0.69,-3.38 8.13408,-16.90244 10.78408,-19.74244 0,0 12.91,8.22 28.89,7 -1.78,0.13 10.85093,12.14164 11.37093,12.86164 2.6897,3.58063 10.18448,5.22191 14.03766,7.50411 l 1.13,0.67 C 442.81709,320.34893 463.62,327.09 491.9,325.29 Z"
           id="path11208"
           sodipodi:nodetypes="cccccccccccc" />
        <path
           style="fill:#d1eced"
           inkscape:connector-curvature="0"
           class="f"
           d="m 491.9,325.29 c -20.38,25.28 -30.56,37.92 -37.09,41.43 -33.4,18 -88.55,2.52 -117.31,-35.82 -20.76,-27.67 -20.64,-57.44 -13.13,-82.46 88.05179,-26.67654 132.21862,-75.60032 206.19,-52.37 5.57,6.81 10.76,15 12.51,21 -28.65,-3.09 -45.38,4.07 -55.32,11.11 -20.11,14.22 -21.65,34.36 -43.34,45.8 -14.56,7.68 -29.87,7 -40.07,5.48 31.84,20.73 52.79,17.41 67.81,16.83 31,-1.2 53,-35.92 54.45,-32.59 1.91,4.4 0,18.61 -34.7,61.61 -28.28,1.8 -60.09,3.62 -85.74,-11 l -1.13,-0.67 c -3.85317,-2.2822 -7.2203,-5.29937 -9.91,-8.88 -0.52,-0.72 -5.66,-11 -3.88,-11.18 -16,1.17 -28.89,-7 -28.89,-7 -2.64,2.84 -1.68,8.26 -1,11.64 2.38872,11.58522 9.34153,21.72069 19.29,28.12 22.6,14.74 54.16,20.43 80.34,14.7 5.45818,-1.17436 10.77267,-2.93803 15.85,-5.26 2.87319,-1.30411 5.62698,-2.85668 8.23,-4.64 1.3,-0.97 6.21,-5.8 6.84,-5.85 z"
           id="path11210"
           sodipodi:nodetypes="ccccccccccccccccccccccc" />
        <path
           style="fill:#ebf5ee"
           inkscape:connector-curvature="0"
           class="b"
           d="m 523.29,188.23 a 77.52,77.52 0 0 1 7.27,7.83 c -74,-23.07 -109.44,91 -206.19,52.38 9.56,-31.93 31.17,-56.09 36.82,-58.26 67.62,-25.87 136.27,-25.63 162.1,-1.95 z"
           id="path11206" />
        <path
           style="fill:#89c6e0"
           inkscape:connector-curvature="0"
           class="a"
           d="m 539.19,228.55 c -12.62,8.65 -16.74,-5.25 -38.72,4.6 -30.47,13.64 -25.57,38.75 -58.95,49.32 -7.67,2.43 -19.82,3.71 -37.18,-3 10.21,1.55 25.51,2.2 40.07,-5.48 21.69,-11.44 23.23,-31.58 43.34,-45.8 9.94,-7 26.66,-14.2 55.32,-11.11 0.69,2.37 0.84,4.39 0.25,5.81 a 15.61,15.61 0 0 1 -4.13,5.66 z"
           id="path11212" />
        <path
           style="fill:#594a42"
           inkscape:connector-curvature="0"
           class="i"
           d="m 412.91,259.34 a 5.14,5.14 0 0 1 -0.47,1.89 c -9,-1 -17.44,1.43 -23.35,6.25 -4.31,-2.81 -5,-8.72 -2.52,-13.46 a 16.18,16.18 0 0 1 13.9,-8.49 4.79,4.79 0 0 1 1.14,0.09 10.88,10.88 0 0 1 3,0.51 c 5.22,1.76 8.39,7.79 8.3,13.21 z"
           id="path11214" />
        <path
           style="fill:#d1eced"
           inkscape:connector-curvature="0"
           class="f"
           d="m 356.24,528.52 c 3.61,2.13 6.72,4.7 5.92,6.51 -7.12,16.35 -23.59,28.18 -23.3,54 0.15,13.61 8.22,23.34 5,25.65 -3,2.13 -11.71,-4.87 -16.56,-9.79 -7.52,-7.61 -8.83,-13.34 -12.23,-19 l 0.86,-0.54 c -9.82,-28.21 32.37,-55.65 39.42,-57.33 z"
           id="path11216" />
        <path
           style="fill:#a5ddea"
           inkscape:connector-curvature="0"
           class="h"
           d="m 347.32,524.66 c 1.11,0 4.66,1.47 8,3.35 -7.05,1.68 -49.25,29.12 -39.42,57.33 l -0.86,0.54 a 30.68,30.68 0 0 0 -6.63,-7.82 c -8.25,-7.13 -12.54,-5 -14.66,-9.95 -2.8,-6.46 6.75,-21.89 20.61,-30.53 10.21,-6.36 17.28,-7.39 24.08,-9.19 6.09,-1.63 5.2,-3.87 8.88,-3.73 z"
           id="path11218" />
        <path
           style="fill:#d1eced"
           inkscape:connector-curvature="0"
           class="f"
           d="m 437.33,572.77 c 21,17.56 25,49.47 22.49,50.73 -1.09,0.54 -2.73,-5.23 -8.67,-10.38 -5.52,-4.78 -11.55,-7 -17.8,-8.67 v 0 c -23.22,-8.22 -35.32,-43.66 -22.75,-45.69 9.4,4.96 17.56,6.34 26.73,14.01 z"
           id="path11220" />
        <path
           style="fill:#a5ddea"
           inkscape:connector-curvature="0"
           class="h"
           d="m 433.34,604.45 c -12.27,-3.19 -25.4,-3.93 -37.27,-16.58 -7.51,-8 -13.11,-22.4 -14.07,-57.54 a 83.53,83.53 0 0 0 14.07,17.81 62.53,62.53 0 0 0 14.53,10.62 c -12.6,2.03 -0.48,37.47 22.74,45.69 z"
           id="path11222" />
        <path
           style="fill:#d1eced;stroke-width:0.4129782"
           d="M 91.933594,64.285156 C 84.306649,62.104682 73.643467,62.334945 66.425057,65.952063 60.589675,68.880079 56.389276,75.181081 55.832031,79.271484 l 0.05469,0.02734 -0.0059,0.002 c 5.624764,2.936275 6.616886,10.109166 12.720703,10.654297 10.935663,0.970499 15.27993,-18.963201 25.191407,-20.003906 1.12743,-0.115634 0.442671,-2.941371 -0.771485,-5.576172 l -0.01758,0.0059 v -0.04687 c -0.356579,-0.02024 -0.713371,-0.03652 -1.070312,-0.04883 z"
           transform="matrix(2.4214353,0,0,2.4214353,95.64591,170.61821)"
           id="path11224"
           inkscape:connector-curvature="0"
           sodipodi:nodetypes="ccccccccccc" />
        <path
           style="fill:#d1eced"
           inkscape:connector-curvature="0"
           class="f"
           d="m 321.12,326.41 -0.23,0.09 v -0.11 z"
           id="path11226" />
        <path
           style="fill:#a5ddea"
           inkscape:connector-curvature="0"
           class="h"
           d="m 320.85,326.4 a 116.69,116.69 0 0 0 -59,12.14 c -14.09,7.12 -24.26,17.07 -31,24 -4.14,-2.14 -9.32,-3.31 -16.16,-2.82 -14.15,1 -18.24,12.56 -21.65,9.62 -2.95,-2.54 3.39,-14.06 5.49,-17.91 10,-18.35 63.28,-46.82 117,-33.76 a 38.14,38.14 0 0 1 5.32,8.73 z"
           id="path11230" />
        <path
           style="fill:#d1eced"
           inkscape:connector-curvature="0"
           class="f"
           d="m 231,362.65 -0.4,0.16 c 0.08,-0.08 0.15,-0.16 0.24,-0.25 z"
           id="path11232" />
      </g>
      <path
         inkscape:connector-curvature="0"
         id="path11265"
         d="m 8935.7753,4759.3321 -13.3298,23.0874 h 0.064 l -66.0863,114.5479 14.06,24.3522 93.524,-161.9875 z"
         style="fill:#ffffff;fill-opacity:1;stroke-width:0.19236526" />
    </g>
  </g>
</svg>
