<?xml version="1.0" encoding="UTF-8" standalone="no"?>
<svg
   xmlns:dc="http://purl.org/dc/elements/1.1/"
   xmlns:cc="http://creativecommons.org/ns#"
   xmlns:rdf="http://www.w3.org/1999/02/22-rdf-syntax-ns#"
   xmlns:svg="http://www.w3.org/2000/svg"
   xmlns="http://www.w3.org/2000/svg"
   xmlns:xlink="http://www.w3.org/1999/xlink"
   xmlns:sodipodi="http://sodipodi.sourceforge.net/DTD/sodipodi-0.dtd"
   xmlns:inkscape="http://www.inkscape.org/namespaces/inkscape"
   width="461px"
   height="182px"
   viewBox="0 0 461 182"
   version="1.1"
   id="svg32"
   sodipodi:docname="sketch-logo-dark.svg"
   inkscape:version="0.92.4 (5da689c313, 2019-01-14)">
  <metadata
     id="metadata36">
    <rdf:RDF>
      <cc:Work
         rdf:about="">
        <dc:format>image/svg+xml</dc:format>
        <dc:type
           rdf:resource="http://purl.org/dc/dcmitype/StillImage" />
      </cc:Work>
    </rdf:RDF>
  </metadata>
  <sodipodi:namedview
     pagecolor="#ffffff"
     bordercolor="#666666"
     borderopacity="1"
     objecttolerance="10"
     gridtolerance="10"
     guidetolerance="10"
     inkscape:pageopacity="0"
     inkscape:pageshadow="2"
     inkscape:window-width="1920"
     inkscape:window-height="1016"
     id="namedview34"
     showgrid="false"
     inkscape:zoom="0.75488069"
     inkscape:cx="230.5"
     inkscape:cy="91"
     inkscape:window-x="1680"
     inkscape:window-y="27"
     inkscape:window-maximized="1"
     inkscape:current-layer="svg32" />
  <!-- Generator: Sketch Experimental 58 (83828) - https://sketch.com -->
  <title
     id="title2">sketch-logo-dark</title>
  <desc
     id="desc4">Created with Sketch Experimental.</desc>
  <defs
     id="defs7">
    <path
       d="M20.9032258,2.83147321 L47.9032258,0 L74.9032258,2.83147321 L95.8064516,30.6662946 L47.9032258,86 L0,30.6662946 L20.9032258,2.83147321 Z"
       id="path-1" />
  </defs>
  <path
     d="m 169.36472,101.56411 -0.0653,-0.8797 H 168.42304 162.98381 162 l 0.0403,0.9895 C 162.48912,112.69814 169.87243,120 183.00319,120 c 12.52357,0 21.03925,-6.54975 21.03925,-16.46388 0,-5.360806 -1.8476,-9.154465 -5.36826,-11.74528 -2.70821,-1.992939 -5.94634,-3.116291 -11.31592,-4.288265 -0.35877,-0.07831 -0.73272,-0.158457 -1.18084,-0.25338 -0.2661,-0.05636 -1.22087,-0.257553 -1.1702,-0.246859 -9.75152,-2.05791 -12.84471,-3.845606 -12.84471,-9.169636 0,-5.50544 4.47255,-9.011407 11.97386,-9.011407 7.29819,0 11.9106,4.486912 12.12539,11.549998 l 0.028,0.921485 h 0.91585 5.36368 0.96636 l -0.0223,-0.972501 c -0.25239,-11.009651 -7.59078,-18.419134 -19.45255,-18.419134 -11.62555,0 -19.30171,7.04177 -19.30171,16.159695 0,5.345652 1.84564,9.068328 5.37185,11.555569 2.68629,1.894795 5.79821,2.899294 11.28777,4.014984 0.25709,0.05225 0.52533,0.10619 0.84467,0.169958 0.19767,0.03947 0.42092,0.08391 0.83989,0.167288 5.19405,1.034486 7.48583,1.67299 9.5766,2.896816 2.59547,1.519258 3.88361,3.689379 3.88361,7.050899 0,5.83632 -4.87481,9.1635 -13.40922,9.1635 -8.17023,0 -13.24059,-4.12461 -13.78956,-11.51574 z M 219.34027,60.95057 V 60 h -0.94431 -5.36368 -0.94431 v 0.95057 57.03422 0.95057 h 0.94431 5.36368 0.94431 v -0.95057 -10.16922 l 7.63401,-7.48414 13.63296,18.22515 0.28333,0.37878 h 0.47103 6.64795 1.90254 l -1.15043,-1.52536 -16.64932,-22.075528 15.35463,-15.383156 1.62131,-1.62432 h -2.28745 -7.17676 -0.39311 l -0.27698,0.280803 -19.61371,19.884242 z m 67.76375,40.19011 h 0.88713 l 0.0553,-0.89127 c 0.01,-0.15676 0.0242,-0.415877 0.0386,-0.728059 0.0114,-0.247114 0.0208,-0.487914 0.0276,-0.71558 0.007,-0.246714 0.0112,-0.471139 0.0112,-0.668889 0,-11.931284 -7.85064,-20.722433 -19.4528,-20.722433 -11.58036,0 -19.83053,9.357916 -19.83053,21.178707 0,12.163804 7.87622,21.254754 19.90607,21.254754 9.09613,0 16.12332,-5.43283 18.6552,-13.67351 l 0.37835,-1.23143 h -1.2805 -5.59032 -0.66692 l -0.22303,0.63269 c -1.58992,4.51039 -5.89451,7.50419 -11.19723,7.50419 -6.9325,0 -11.76514,-4.79243 -12.63572,-11.93917 z m -30.69783,-6.311783 c 1.22412,-6.399024 5.89934,-10.646387 12.26488,-10.646387 6.56087,0 11.08866,4.107985 12.07904,10.646387 z M 311.9205,84.790874 h 0.94432 v -0.95057 -4.562738 -0.95057 h -0.94432 -7.89443 V 68.250951 67.30038 h -0.94431 -5.36369 -0.94431 v 0.950571 10.076045 h -6.38354 -0.94431 v 0.95057 4.562738 0.95057 h 0.94431 6.38354 v 22.775666 c 0,7.47148 3.84975,11.52091 10.91623,11.52091 1.2334,0 2.29665,-0.0743 3.18948,-0.19915 0.55168,-0.0771 0.93265,-0.15703 1.14268,-0.21575 l 0.69158,-0.19338 v -0.72252 -4.86692 -1.17941 l -1.14491,0.25054 c -0.0458,0.01 -0.13847,0.029 -0.27089,0.054 -0.22437,0.0423 -0.4743,0.0849 -0.74242,0.12454 -0.68665,0.10164 -1.3677,0.16679 -1.99471,0.17823 -0.0645,0.001 -0.12814,0.002 -0.1909,0.002 -3.09558,0 -4.34383,-1.46365 -4.34383,-5.13308 V 84.790874 Z m 22.55015,35.057036 c 10.0383,0 17.12603,-6.39432 18.906,-15.44273 l 0.22331,-1.13522 h -1.14963 -5.43924 -0.72608 l -0.18653,0.70637 c -1.52484,5.7743 -5.66357,9.10352 -11.62783,9.10352 -7.44322,0 -12.57822,-5.91043 -12.57822,-14.410649 0,-8.565976 5.12608,-14.486691 12.57822,-14.486691 5.96426,0 10.10299,3.329215 11.62783,9.103518 l 0.18653,0.706367 h 0.72608 5.43924 1.14963 l -0.22331,-1.135216 c -1.77997,-9.048409 -8.8677,-15.44273 -18.906,-15.44273 -11.66086,0 -19.90608,9.424054 -19.90608,21.254752 0,11.765629 8.25657,21.178709 19.90608,21.178709 z M 366.95494,60.95057 V 60 h -0.94431 -5.36369 -0.94431 v 0.95057 57.03422 0.95057 h 0.94431 5.36369 0.94431 v -0.95057 -22.889733 c 0,-6.974061 4.21698,-11.064639 10.61405,-11.064639 6.10983,0 9.1787,3.560456 9.1787,10.304183 v 23.650189 0.95057 H 387.692 393.05569 394 v -0.95057 -24.714828 c 0,-9.525945 -5.85968,-15.855513 -15.52447,-15.855513 -4.97222,0 -8.96892,1.833741 -11.52059,4.465627 z"
     id="Wordmark"
     inkscape:connector-curvature="0"
     style="fill:#ffffff;fill-rule:nonzero;stroke:none;stroke-width:1" />
  <g
     style="fill:none;fill-rule:evenodd;stroke:none;stroke-width:1"
     id="Icon"
     transform="translate(47,48)">
    <mask
       fill="white"
       id="mask-2">
      <use
         height="100%"
         width="100%"
         y="0"
         x="0"
         id="use12"
         xlink:href="#path-1" />
    </mask>
    <use
       height="100%"
       width="100%"
       y="0"
       x="0"
       style="fill:#fdb300"
       xlink:href="#path-1"
       id="Mask" />
    <g
       mask="url(#mask-2)"
       id="Base">
      <g
         id="g19"
         transform="translate(0,30.666295)">
        <polygon
           style="fill:#ea6c00"
           points="19.403226,0 47.903226,55.333705 0,8.1839297e-15 "
           id="Path-54-Copy" />
        <polygon
           style="fill:#ea6c00"
           points="67.306452,0 95.806452,55.333705 47.903226,8.1839297e-15 "
           transform="matrix(-1,0,0,1,143.70968,0)"
           id="Path-54-Copy-3" />
        <polygon
           style="fill:#fdad00"
           points="19.403226,0 76.403226,0 47.903226,55.333705 "
           id="Path-65" />
      </g>
    </g>
    <g
       mask="url(#mask-2)"
       id="Crown">
      <polygon
         style="fill:#fdd231"
         points="47.903226,0 20.903226,2.8314732 19.403226,30.666295 "
         id="Path-52" />
      <polygon
         style="fill:#fdd231"
         points="76.403226,0 49.403226,2.8314732 47.903226,30.666295 "
         transform="matrix(-1,0,0,1,124.30645,0)"
         id="Path-52-Copy-2" />
      <polygon
         style="fill:#fdad00"
         points="74.903226,30.666295 95.806452,2.8314732 94.306452,30.666295 "
         transform="matrix(-1,0,0,1,170.70968,0)"
         id="Path-52-Copy-3" />
      <polygon
         style="fill:#fdad00"
         points="0,30.666295 20.903226,2.8314732 19.403226,30.666295 "
         id="Path-52-Copy-9" />
      <polygon
         style="fill:#feeeb7"
         points="47.903226,0 19.403226,30.666295 76.403226,30.666295 "
         id="Path-66" />
    </g>
  </g>
</svg>
