<svg xmlns="http://www.w3.org/2000/svg" viewBox="0 0 800 800"><defs><style>.a{fill:#dae8f7;}.b{fill:#bed4e6;}.c{fill:#f4fbfe;}.d{fill:#fff;}.e{fill:#262262;}.f{fill:#a1b3c1;}.g{fill:#aec7da;}.h{fill:#c8d2dd;}.i{fill:#88949e;}.j{fill:#f0f0f1;}.k{fill:#dae1ed;}</style></defs><title>icons</title><path class="a" d="M569.08,302.55c.14-12.51-.18-25-.68-37.52-.55-14.06-1.43-28.09-2.33-42.12q-.3-4.8-.72-9.59c54.54,100.25,45.64,222.07-25.53,296C418.34,635.6,283.16,604.9,241.68,552.43a88.38,88.38,0,0,1,13.72-1.75,92.39,92.39,0,0,1,14.95.56c.48,0,1.22.12,2.19.18a46.57,46.57,0,0,0,22.26-4.24q4.73.9,9.57,1.67c46.27,7.5,96.84-4.43,136.64-28.33,36.79-22.09,72-51,95.42-87.48C561.2,394.4,568.63,347.89,569.08,302.55Z"/><path class="b" d="M530.49,188.35a1.87,1.87,0,0,1,.07.18s0,0,0,0A.84.84,0,0,0,530.49,188.35Zm8.45,21.15c1.69,4.08-9.71-15.22-11.83-23.79,0-.51,0-1-.06-1.5l.9,1a30.11,30.11,0,0,1-1-7.09,0,0,0,0,1,0,0c0-1.23.07-2.41.14-3.58v0c1.43-15.09,13.17-28.83,25.82-34.8,7.84-3.71,9.28-11.87,11-14.81.87.06,1.4.27,1.49.59C572.17,148,520.59,165.16,538.94,209.51Z"/><path class="a" d="M527.13,174.5c-.07,1.17-.11,2.35-.14,3.58A31.54,31.54,0,0,1,527.13,174.5Z"/><path class="c" d="M514.35,269.78c8.28-12.1,13.74-27.63,11.57-43.28l-.86.08c-2.53-14.88-20.6-12.22-35.88-16.51-28.53-8-38.67-23-29.66-26v0c4.76-.26,11.56-2,21-7.57,22-12.9,39.38.36,46.5,7.78,0,.5,0,1,.06,1.5,2.12,8.57,13.52,27.87,11.83,23.79-18.35-44.35,33.23-61.53,26.47-84.06-.09-.32-.62-.53-1.49-.59.48-.87,1-1.27,1.7-1,9.55,3.76,32.53,46.66-2.53,85.37q1.15,2,2.26,4.09.42,4.78.72,9.59c.9,14,1.78,28.06,2.33,42.12.5,12.5.81,25,.68,37.52-.45,45.34-7.89,91.85-32.66,130.5C513,469.57,477.79,498.44,441,520.53c-39.8,23.9-90.36,35.83-136.64,28.33q-4.85-.78-9.57-1.67a53,53,0,0,0,15.57-10.59c5.38-7.2,12.68-19.66,11.82-34.92,0-.12,0-.26,0-.38-.08.47-.17,1-.28,1.51v0c0,.08,0,.16,0,.24-.87,4.38-3.22,16.1-12.64,24.66a99,99,0,0,1-37-4.61c-16.34-5.42-23.91-13.06-37.77-12.41a37.66,37.66,0,0,0-8.89,1.5c-.43-.5-.86-1-1.27-1.51C197.21,477.83,195.09,430,211.7,392c0,0,0,0,0,0q2.64-3.58,5.59-6.93c76.52-53.07,169.61,38.78,174.16,43.33-1.31-1.72-3.89-12.14-4.54-14-8.1-23.24-22.13-39.12-39.45-49.06.55-.41,1.43-1.06,2.61-1.89,68.13-17.37,144.69-.75,144.69-.75,5.09-4.66-28.08-23.39-69-27.09,2.75-3.57,40.77-52,87.39-64.65Zm-151,217.92c.65-5.47-3.39-10.49-8.5-13.17a17.27,17.27,0,0,0-18.09,1.25c-4.72,3.46-8,10.18-6.2,15.17,2.14,5.86,11.19.32,17.74-.6C352.87,489.72,362.92,491.59,363.38,487.71Z"/><path class="d" d="M425.83,335.56c40.87,3.71,74,22.43,69,27.09,0,0-76.56-16.62-144.69.75,9.88-7,40.82-26.71,75.57-27.63Z"/><path class="b" d="M449.6,183c-.24-2.29,2.11,1.37,9.92,1v0c-9,3,1.13,18,29.66,26,15.27,4.29,33.34,1.63,35.88,16.51C517,227.21,454.48,230.6,449.6,183Z"/><path class="d" d="M386.92,414.35c.65,1.87,3.23,12.29,4.54,14C386.91,423.81,293.82,332,217.3,385c25.29-28.75,68-43.63,129.51-19.22l.66-.52C364.79,375.23,378.82,391.11,386.92,414.35Z"/><path class="e" d="M354.87,474.54c5.11,2.68,9.16,7.69,8.5,13.17-.46,3.89-10.51,2-15,2.66-6.56.91-15.6,6.45-17.74.6-1.82-5,1.48-11.72,6.2-15.17A17.27,17.27,0,0,1,354.87,474.54Z"/><path class="d" d="M309.19,527.73a39.08,39.08,0,0,1-9.88,6.3c-12.22,5.62-23.86,4.49-36.86,3-1.45-.17-2.93-.38-4.42-.64a90.94,90.94,0,0,1-32.54-24.18,37.66,37.66,0,0,1,8.89-1.5c13.86-.64,21.43,7,37.77,12.41A99,99,0,0,0,309.19,527.73Z"/><path class="f" d="M314,526.19c-7.07,9.21-18.38,14.08-29.64,15.7a53.27,53.27,0,0,1-10.16.45A123.31,123.31,0,0,1,258,536.39c1.49.26,3,.47,4.42.64,13,1.49,24.64,2.61,36.86-3a39.08,39.08,0,0,0,9.88-6.3c9.42-8.56,11.77-20.28,12.64-24.66,0-.08,0-.16,0-.24C321.67,508.66,320.34,518,314,526.19Z"/><path class="g" d="M274.22,542.34a206,206,0,0,0,20.57,4.86,46.57,46.57,0,0,1-22.26,4.24c-1-.06-1.7-.14-2.19-.18a92.39,92.39,0,0,0-14.95-.56,88.38,88.38,0,0,0-13.72,1.75c-.24-.29-4.24.38-4.67.41a46.19,46.19,0,0,1-10.79-.62c-3.58-.68-7.36-1.89-10-4.51-3.28-3.21-2.76-6.7-3.6-10.61l.08,0h0a2.89,2.89,0,0,0,.77-.16c10.36-2.15,21.08-.14,31.41,1.17C254.83,539.34,264.38,541.93,274.22,542.34Z"/><path class="h" d="M322.17,501.69c.87,15.26-6.43,27.72-11.82,34.92a53,53,0,0,1-15.57,10.59,206,206,0,0,1-20.57-4.86,53.27,53.27,0,0,0,10.16-.45c11.25-1.62,22.56-6.49,29.64-15.7,6.32-8.22,7.65-17.53,7.85-23.35v0c.11-.53.2-1,.28-1.51C322.16,501.43,322.16,501.56,322.17,501.69Z"/><path class="a" d="M224.22,510.7c.42.51.84,1,1.27,1.51a47.08,47.08,0,0,0-13.78,6.88l-.17.23c-29.4-21.84-30.57-85.57.16-127.33C195.09,430,197.21,477.83,224.22,510.7Z"/><path class="i" d="M274.22,542.34c-9.85-.41-19.39-3-29.34-4.25-10.33-1.31-21-3.32-31.41-1.17a1.7,1.7,0,0,0,.32-.17c12.54-8.59,29.21-2.85,44.25-.36A123.31,123.31,0,0,0,274.22,542.34Z"/><path class="d" d="M212.71,537.08l.77-.16A2.89,2.89,0,0,1,212.71,537.08Z"/><path class="j" d="M211.64,519.38l-.09-.07.17-.23a47.08,47.08,0,0,1,13.78-6.88A90.94,90.94,0,0,0,258,536.39c-15-2.49-31.71-8.23-44.25.36a1.7,1.7,0,0,1-.32.17l-.77.16h0l-.39,0a3.86,3.86,0,0,1-2.06-.74c-3.74-2.46-4.61-6.52-3-10.5C207.39,525.36,211.09,519,211.64,519.38Z"/><path class="d" d="M478.73,503.39c33.11-2.69,71.21,18.94,70,26.17-.41,2.46-5.17.94-15.53,6C506.9,543.21,459.29,533.1,478.73,503.39Z"/><path class="b" d="M518.87,545c-5.85,5-9.59,9.51-18.1,13.62-4.24,2.06-12.57,6.06-22.94,5.57-18.41-.89-39.05-15.77-38.57-31.28.38-12.06,13.41-20.45,15.64-21.89a49.93,49.93,0,0,1,21.36-7.33C434.35,536.69,497.39,556.69,518.87,545Z"/><path class="k" d="M478.73,503.39c-19.43,29.71,28.17,39.83,54.47,32.18-.48.24-1,.49-1.49.76A67.89,67.89,0,0,0,518.87,545c-21.49,11.74-84.53-8.27-42.61-41.32C477.08,503.54,477.9,503.46,478.73,503.39Z"/></svg>