<svg xmlns="http://www.w3.org/2000/svg" viewBox="0 0 800 800"><defs><style>.a{fill:#8b6aae;}.b{fill:#d4b4d6;}.c{fill:#fff;}.d{fill:#f7eef5;}.e{fill:#bb91c2;}.f{fill:#3c2415;}.g{fill:#ac8ec2;}.h{fill:#ad7fb8;}.i{fill:#a274b2;}.j{fill:#ecd8ea;}.k{fill:#f8edf5;}.l{fill:#b398c8;}</style></defs><title>icons</title><path class="a" d="M560.54,508.26C571,564.61,602.44,556,602.44,556s20.06,12,38.94-7c2.35-2.36-40.6-3-32.08-64.62C611.2,470.71,558,494.42,560.54,508.26Z"/><path class="b" d="M619.74,399c7.59,49.08,4.67,101.81-27.85,140.58a111.72,111.72,0,0,1-10.58,11c-19.17,7.93-34.57,13.42-48.46,16.29a125.53,125.53,0,0,0,24.79-15.38c31.81-4.44,59.21-53.74,59.21-104.24,0-37.73-7.52-78.17-24.05-98.29a0,0,0,0,1,0,0c-5.55-20.52-14.51-43.86-29.53-65.64-2.58-3.74-5.42-29.07-12.57-49.45-15.49-44.21-65.29-55-69.47-55.83a71.77,71.77,0,0,1,10.53-1.43c53.12-3.32,83.61,46.85,83.26,97.94C575,275,610.86,341.65,619.74,399Z"/><path class="c" d="M592.79,349c16.53,20.13,24,60.56,24.05,98.29,0,50.5-27.4,99.8-59.21,104.24,46.61-37.25,52.15-99.66,44.84-149.11C601.13,393.3,599.32,373.1,592.79,349Z"/><path class="d" d="M602.48,402.4c7.31,49.46,1.78,111.86-44.84,149.11a33.59,33.59,0,0,1-4.66.33c-33.74,0-72.84-42.65-71.11-95.56,2.4-73.18,52.69-120.23,86.43-120.23,9.69,0,17.82,4.8,24.49,12.91a0,0,0,0,0,0,0C599.32,373.1,601.13,393.3,602.48,402.4Z"/><path class="e" d="M455.93,418.84c2-25.68-2.77-44.65-20.76-44.2q-4.47.12-8.8.52a362,362,0,0,1,41.53-81.33c-5.4-3.08-25.77-15.52-33.5-40.2-6.07-19.38-1.38-36.73,4.41-48.79A72.81,72.81,0,0,1,481.21,178c4.18.83,54,11.62,69.47,55.83,7.15,20.38,10,45.71,12.57,49.45,15,21.77,24,45.12,29.53,65.64-6.67-8.11-14.8-12.91-24.49-12.91-33.74,0-84,47-86.43,120.23-1.72,52.91,37.37,95.56,71.11,95.56a33.59,33.59,0,0,0,4.66-.33,125.53,125.53,0,0,1-24.79,15.38c-26.48,5.5-47.51,1.47-78.94-13.3-11.19-5.26-20-13.67-26.65-24.19C438,501.84,453.26,454,455.93,418.84Zm47.55-167.26c2.18-1.81,8.21-3.93,7-6.31-1.68-3.37-5.69-5-9.4-4.9a9.82,9.82,0,0,0-9.16,6.48c-1.22,3.5-.48,8.43,2.33,10.73C497.57,260.29,500.33,254.21,503.48,251.59Z"/><path class="f" d="M510.49,245.27c1.2,2.38-4.84,4.51-7,6.31-3.15,2.63-5.91,8.7-9.22,6-2.82-2.3-3.56-7.23-2.33-10.73a9.82,9.82,0,0,1,9.16-6.48C504.8,240.3,508.82,241.91,510.49,245.27Z"/><path class="g" d="M532.85,566.9c13.89-2.87,29.29-8.36,48.46-16.29-28.61,26-68,34.71-106.73,31.77C497.59,579.91,516.84,574.52,532.85,566.9Z"/><path class="a" d="M453.91,553.59c31.44,14.77,52.47,18.81,78.94,13.3-16,7.62-35.25,13-58.27,15.48A205.3,205.3,0,0,1,408,565.66a47,47,0,0,1-15.48-11,124.24,124.24,0,0,0,24.18-3.14c1.26-.3,5.4-8.87,10.56-22.09C433.92,539.93,442.72,548.33,453.91,553.59Z"/><path class="h" d="M434.4,253.63c7.73,24.69,28.09,37.12,33.5,40.2a362,362,0,0,0-41.53,81.33A136.61,136.61,0,0,0,395,382c11.11-21.46,44.32-81.16,43.64-82-24.13-28.94-20.59-68.69.15-95.22C433,216.9,428.34,234.25,434.4,253.63Z"/><path class="e" d="M435.17,374.64c18-.45,22.71,18.52,20.76,44.2-10.74,1.63-25.76,4.31-43.42,8.75,1-6.6,2.29-13.09,3.84-19.35a342.19,342.19,0,0,1,10-33.08Q430.71,374.75,435.17,374.64Z"/><path class="e" d="M412.51,427.59c17.66-4.44,32.68-7.12,43.42-8.75-2.67,35.2-17.89,83-28.67,110.56C410.55,503.07,407.11,463.6,412.51,427.59Z"/><path class="h" d="M395,382a136.61,136.61,0,0,1,31.35-6.86,342.19,342.19,0,0,0-10,33.08c-1.55,6.27-2.85,12.75-3.84,19.35l-2.13.54c-12,3.08-22.78,6.38-32.65,9.72a300.53,300.53,0,0,1,13.84-48.79C392,388,393.2,385.53,395,382Z"/><path class="h" d="M377.39,525.31a132.39,132.39,0,0,1-4-27,251,251,0,0,1,4.37-60.5c9.87-3.34,20.69-6.65,32.65-9.72l2.13-.54c-5.41,36-2,75.48,14.74,101.81-5.16,13.21-9.3,21.79-10.56,22.09a124.24,124.24,0,0,1-24.18,3.14C385.06,546.62,380.31,536.28,377.39,525.31Z"/><path class="h" d="M260.26,431.36c1,.76,2.07,1.58,3.17,2.45.78,7.29,9.35,10.85,11.91,11.75C299,453.76,337.14,401.81,395,382c-1.83,3.51-3,6-3.44,7a300.53,300.53,0,0,0-13.84,48.79c-53.81,18.19-79.32,37.36-106.33,26.48-10.31-4.16-23.76-13.87-34.69-39.3a14.55,14.55,0,0,1,4.23-1.46c3.47-.63,6.93.19,10.86,2.24A61.91,61.91,0,0,1,260.26,431.36Z"/><path class="i" d="M229.4,445.26a36.24,36.24,0,0,1,.16-9.84,15.21,15.21,0,0,1,3.06-7.14,13,13,0,0,1,4.1-3.25c10.93,25.44,24.38,35.15,34.69,39.3,27,10.88,52.52-8.28,106.33-26.48a251,251,0,0,0-4.37,60.5,132.39,132.39,0,0,0,4,27,154.44,154.44,0,0,1-35.3-.66c-59.68-8.1-96.77-49.26-109.16-64.7a12.93,12.93,0,0,0-1.36-2A114.42,114.42,0,0,1,229.4,445.26Z"/><path class="a" d="M377.39,525.31c2.92,11,7.67,21.31,15.12,29.31-28.51,1.09-61.08-5.41-85.48-15.12-17.6-7-33.81-17-46.39-31.43a138.62,138.62,0,0,1-16.15-23.38c-1.26-2.26-8-18.55-11.55-24.76,12.39,15.45,49.48,56.6,109.16,64.7A154.44,154.44,0,0,0,377.39,525.31Z"/><path class="a" d="M277.06,360.17c1.29,12.16,3.86,27.13.82,40.16-4.11,17.6-14.92,29.2-14.45,33.47-1.09-.87-2.14-1.69-3.17-2.45a112.57,112.57,0,0,0,7.71-30.3,114.69,114.69,0,0,0-6.54-52.11c1.87-4.35,5-7,8.32-7.29C273.22,341.33,276.48,354.8,277.06,360.17Z"/><path class="h" d="M261.43,348.95A114.69,114.69,0,0,1,268,401.06a112.57,112.57,0,0,1-7.71,30.3,61.91,61.91,0,0,0-8.45-5.55,85.83,85.83,0,0,0-2.74-61.54l-.16-.25c5.39-3.37,9.81-7.93,12.18-14.25C261.19,349.49,261.31,349.21,261.43,348.95Z"/><path class="b" d="M249.07,364.28a85.83,85.83,0,0,1,2.74,61.54c-3.93-2-7.39-2.87-10.86-2.24a125.84,125.84,0,0,0-6.72-53.29A58.08,58.08,0,0,0,248.91,364Z"/><path class="j" d="M240.49,396.8a125.64,125.64,0,0,1,.46,26.77,14.55,14.55,0,0,0-4.23,1.46,13,13,0,0,0-4.1,3.25A83,83,0,0,1,211.9,408.4a84.1,84.1,0,0,1-14.44-32.52,10.38,10.38,0,0,1,2.77.11c14.47,2.36,20.82,28.6,23.46,27.65,2-.71-7.41-29.42.2-30.92,3.33-.66,6.84-1.44,10.34-2.45A125.5,125.5,0,0,1,240.49,396.8Z"/><path class="b" d="M232.62,428.28a15.21,15.21,0,0,0-3.06,7.14A132.93,132.93,0,0,1,179,384.23c9.44-2.36,12.7-7.81,18.48-8.34A84.1,84.1,0,0,0,211.9,408.4,83,83,0,0,0,232.62,428.28Z"/><path class="a" d="M231.57,457.93c-.2-.24-.38-.38-.53-.37a97.14,97.14,0,0,1-71.66-35.46c-8.59-10.46-22.06-28.82-15.84-43.13,1.36-3.12,6.06.17,13.16,3a85.8,85.8,0,0,0,28.76,45,84.55,84.55,0,0,0,43.93,18.28A114.42,114.42,0,0,0,231.57,457.93Z"/><path class="h" d="M229.56,435.42a36.24,36.24,0,0,0-.16,9.84A84.55,84.55,0,0,1,185.47,427a85.8,85.8,0,0,1-28.76-45c5.47,2.21,12.36,4.14,20.26,2.68.7-.13,1.37-.28,2-.45a132.93,132.93,0,0,0,50.58,51.19Z"/><path class="b" d="M468,515.75c4.86.22,2.71,38.73-13.3,68.23h0c-7.26,6.63-9.32,8.79-25.77,15.44-13.86,5.6-42.41,8.42-46.72,1.21-3.19-5.33,6-12.24,14.27-32.33a106.39,106.39,0,0,0,7.82-35C409.14,522.12,425.09,513.86,468,515.75Z"/><path class="i" d="M429,599.44c16.45-6.65,18.51-8.81,25.77-15.44-6.71,12.35-15.86,23.14-28,28.83-7.06,3.57-18.68,2.68-18.68,2.68a38.13,38.13,0,0,1-16.89,7.83c-8.27,1.52-19.85-6.28-19.85-6.28s-10.32,5.08-16.5,3.69a13.3,13.3,0,0,1-11.26-11,2.32,2.32,0,0,1,.13-1.59c1.52-2.73,7.26-3.09,8-3.15,4.29-.34,38.41-22,51.73-69.11a19.37,19.37,0,0,1,.89-2.5,106.39,106.39,0,0,1-7.82,35c-8.31,20.09-17.46,27-14.27,32.33C386.54,607.86,415.09,605,429,599.44Z"/><path class="j" d="M563.26,283.33c-6.54,2.88-14.65,3.87-24.57,1.93-37.54-7.35-32.19-26-20.74-36.78,9.54-9,25-21.5,40.82-25.5l.18.69a15.22,15.22,0,0,1,6.59,3.62C575.09,236.43,577.47,257.77,563.26,283.33Z"/><path class="k" d="M563.26,283.33c14.21-25.56,11.84-46.9,2.28-56a15.22,15.22,0,0,0-6.59-3.62l-.18-.69c7.25-1.85,14.57-1.91,21.45,1C590.42,228.23,590,271.56,563.26,283.33Z"/><path class="l" d="M547.76,268.8c-8.65-1.65-12.16-7.1-13.31-10.45a1.06,1.06,0,0,1,.21-1.27.86.86,0,0,1,1.23.21c2.14,3.13,6.66,8.43,12.75,8.85,9.17.62,23.44-12.88,20.81-29.52,0,0,2.32-1.58,2.31-1.54-.53,5.11,3.24,14.77,6.9,15.49,1.83.35,2.17-.53,2.66-1.76.3-.76.29-2.19,1.26-2.33.48-.06.38,6.17-4.26,5.87-3-.19-5.61-3.62-6.86-7.36C567.81,260,560.55,271.23,547.76,268.8Z"/><path class="a" d="M547.76,266.39c-8.66-1.62-12.18-6.88-13.35-10.09a1,1,0,0,1,.21-1.22.89.89,0,0,1,1.23.21c2.15,3,6.7,8.13,12.78,8.55,9.17.64,23.37-12.25,20.66-28.22,0,0,2.31-1.5,2.3-1.46-.5,4.9,3.31,14.19,7,14.9,1.83.35,2.17-.5,2.65-1.67.3-.73.28-2.1,1.25-2.23.48-.06.41,5.92-4.23,5.62-3-.2-5.62-3.5-6.89-7.09C567.75,258.08,560.56,268.78,547.76,266.39Z"/><path class="a" d="M561.26,234c.29,2.37,5.9,5.64,10.45,3.13,4.34-2.4,4.34-8.2,2.37-9.67C571.13,225.21,560.83,230.52,561.26,234Z"/><path class="b" d="M535.89,362c-1.7,1.27-1.27,7.11,1.76,8.44,2.47,1.09,5.78-1.23,5.84-3.48C543.57,364,537.79,360.63,535.89,362Z"/><path class="b" d="M555.25,361.88c-1,.66-.91,3.78.77,5.67,2.23,2.52,6.13,1.68,6.53.37C563.13,366,557,360.77,555.25,361.88Z"/><path class="b" d="M565.51,346.31c1.14.49,2,4.39,0,6.56-1.59,1.7-4.44,1.8-5.11.76C559.21,351.85,563.77,345.55,565.51,346.31Z"/><path class="b" d="M575,351.69c0,3.08,4.87,7.09,8,5.7s3.28-7.84.92-9.82C581.28,345.38,575,348.23,575,351.69Z"/><path class="b" d="M590.56,365.63c.15,1.82,3.73,4.33,5.81,2.93,1.83-1.23,1.62-4.91.22-6C594.75,361,590.38,363.51,590.56,365.63Z"/><path class="b" d="M586.66,385.39c-.72,2.07,3.58,6.74,5.59,6,1.44-.53,2.52-4.17.57-6.37S587.19,383.87,586.66,385.39Z"/><path class="b" d="M574.92,379.77c-.87.95-.17,4.83,2.49,5.72,2.16.73,4.38-.92,4.35-2.24C581.72,381.17,576.12,378.46,574.92,379.77Z"/><path class="b" d="M570.59,363.78c-.61,1,.11,3.24,1.55,3.87,1.87.82,3.95-1.59,3.64-2.81C575.42,363.41,571.48,362.37,570.59,363.78Z"/><path class="b" d="M561.34,378.83c.14-.57,1.79-1,2.17-1.48l0,0c.39-.1,2.35,3.66,1.7,4.3S561.12,379.76,561.34,378.83Z"/><path class="b" d="M563.53,393.11a2.46,2.46,0,0,1,3.24-.27,2.63,2.63,0,0,1,.69,1.69c.3,2.29-.81,5.1-1.93,5C564.14,399.46,562.1,394.8,563.53,393.11Z"/><path class="b" d="M574,398c-.12,1.52,1.39,3.08,2.36,3,1.46-.14,2.33-4,1.32-4.89C576.9,395.35,574.19,396,574,398Z"/></svg>