<svg xmlns="http://www.w3.org/2000/svg" viewBox="0 0 380.79 820.93"><defs><style>.a{fill:#4ec1e1;}.b{fill:#d6a663;}.c{fill:#b28936;}.d{fill:#32271e;}.e{fill:#4a3b2c;}.f{fill:#634e3b;}.g{fill:#1985a3;}.h{fill:#11596d;}.i{fill:#202415;}.j{fill:#21b1d9;}.k,.s{fill:#a6e0f0;}.l{fill:#082c36;}.m{fill:#382c23;}.n{fill:#ce9c2c;}.o,.w{fill:#fc6;}.p{opacity:0.2;}.p,.x{isolation:isolate;}.q{fill:#9b6d31;stroke:#825a2a;stroke-width:3px;}.q,.s,.w,.y{stroke-miterlimit:10;}.r{fill:#7c582c;}.s{stroke:#7c624c;stroke-width:4px;}.t{fill:#efb930;}.u{fill:#333;}.v{fill:#f5ebcb;}.w{stroke:#fc6;stroke-width:2px;}.x{opacity:0.12;}.y{fill:none;stroke:#fff;stroke-linecap:round;stroke-width:6px;}</style></defs><title>newdiver2</title><path class="a" d="M312.79,312.37l-12.55,47.74-.59,2.25-2.16,8.23-3.89,14.9-.53,2-1.87,7.13-2.88,10.84a8.13,8.13,0,0,1-1,2.29,8.53,8.53,0,0,1-.84,1.13,12,12,0,0,1-4.71,3.2,15.44,15.44,0,0,1-5.75,1L261.84,413l-62.52-.4h-3.95l-6.08,0-17.3-.11-61.17-.39a14,14,0,0,1-10.34-4.32,8.51,8.51,0,0,1-2.06-4.12L94.65,382.7l-.52-2.87-3.46-19.42-.28-1.53-1.34-7.51L66.7,227.07l-.58-3.25a7.34,7.34,0,0,1,.23-3.57c1.16-3.6,4.85-6.35,9.48-7.08a16.08,16.08,0,0,1,3.06-.2l28.49.81,45.44,1.29,26.2.76,32.9.93,61.24,1.73,13.77.39,35.18,1C323.81,219.9,312.79,312.37,312.79,312.37Z"/><path class="b" d="M282.15,142.54,283.55,82a8.9,8.9,0,0,1,9.19-8.58l6.2.14a8.88,8.88,0,0,1,8.79,9l-1.4,60.58a8.9,8.9,0,0,1-9.19,8.58l-6.2-.14A8.88,8.88,0,0,1,282.15,142.54Z"/><path class="c" d="M300.49,112.19c.23-14.72,1.37-27.41,2.83-33.18.54-2.15,1.13-3.34,1.73-3.34,2.21,0,3.75,16.45,3.44,36.61s-2.35,36.55-4.56,36.51c-.63,0-1.21-1.35-1.7-3.74C301,139.1,300.27,126.61,300.49,112.19Z"/><path class="b" d="M92.71,81.61l-2.38,57a8.68,8.68,0,0,1-9.17,8.11l-5.67-.22A8.61,8.61,0,0,1,67,137.71l2.38-57a8.68,8.68,0,0,1,9.17-8.11l5.67.22A8.61,8.61,0,0,1,92.71,81.61Z"/><path class="c" d="M74.51,109.88c-.47,13.93-1.79,25.91-3.3,31.35-.56,2-1.14,3.14-1.72,3.13-2.13-.06-3.33-15.63-2.68-34.69s2.9-34.54,5-34.47c.6,0,1.14,1.3,1.58,3.57C74.49,84.41,75,96.24,74.51,109.88Z"/><rect class="b" x="160.35" y="1.46" width="73.84" height="22.31" rx="9.25" ry="9.25" transform="translate(0.55 -6.82) rotate(1.98)"/><path class="c" d="M197,7.49c-13.91-.38-25.88-1.57-31.32-3-2-.52-3.14-1.08-3.13-1.63.05-2,15.58-3.27,34.62-2.75s34.5,2.58,34.44,4.62c0,.58-1.29,1.1-3.55,1.53C222.45,7.34,210.65,7.86,197,7.49Z"/><path class="d" d="M297.44,817.42a20,20,0,0,1-8.77,3.34c-13.12,1.3-21.27-5.31-26.48-11.79-7.64-9.52-10.56-21.31-10.65-33.16,0-.36,63.58-10.68,70.26-11.79a35.18,35.18,0,0,1,2,4.53c5.54,15.79-5.24,31.75-22.4,45.91A43.19,43.19,0,0,1,297.44,817.42Z"/><path class="e" d="M323.81,768.57c-.44,7.69-6.91,20.76-16.94,26.37a38.58,38.58,0,0,1-9.48,3.32q-10.71,2.7-21.48,4.84c-19.56,3.87-22.36-20.2-25-29.49,13-4.54,26.11-9,39.7-12.11,8.41-1.94,24.22-5.79,30.28-1.14a5,5,0,0,1,1.85,2.16A13.29,13.29,0,0,1,323.81,768.57Z"/><path class="f" d="M310.22,716l2.32,9.62,8.4,34.7.9,3.72.82,3.43c1.11,4.64-27.88,15.68-32.64,17.9-5.61,2.67-12.13,4.92-18,4.35a21.6,21.6,0,0,1-10.29-4.19c-10.4-7.29-12.41-14.39-13.39-25.28-.66-7.3-1.34-14.6-2.25-21.85-.79-6.5-1.29-9.2-1.29-9.2Z"/><path class="d" d="M192.41,771.73a16.39,16.39,0,0,1-7.45,3.65c-11.52,2-19.4-3.84-24.67-9.68-7.73-8.59-11.48-19.58-12.73-30.8,0-.34,55.38-13.64,61.19-15.06a36.3,36.3,0,0,1,2.19,4.18c6.48,14.63-1.51,30.34-15.34,44.7A36.46,36.46,0,0,1,192.41,771.73Z"/><path class="e" d="M211,724c.37,7.3-4.08,20-12.42,25.9a31.54,31.54,0,0,1-8.09,3.67q-9.24,3.16-18.59,5.77c-17,4.75-21.84-17.88-25.07-26.52,11.12-5,22.28-10,34-13.67,7.27-2.3,20.93-6.83,26.77-2.77a5,5,0,0,1,1.85,1.94A13.7,13.7,0,0,1,211,724Z"/><path class="g" d="M316.11,709.2a9.81,9.81,0,0,1-3.1,3.63c-2.92,2.06-6.8,3-10.55,3.7a174.51,174.51,0,0,1-42,2.83c-3.63-.2-7.35-.53-10.59-1.83a16.66,16.66,0,0,1-3.25-1.73c-22.79-8.82-44.58-122.35-52.33-176.07-2.47-17.38-7.84-34.42-11.11-51.6q-.5-2.52-.9-5a6,6,0,0,0-.11-.71c-.39-2.45-.67-4.95-.87-7.48-.07-.81-.12-1.62-.16-2.44-1.08-19.66,3-40.91,8.16-59.9q.61-2.29,1.24-4.49l9.38-.38,2.92-.12,8.75-.35,1,0,8.86-.35,1,0c11.94-.47,25.19-1,35.82-1.4,10.35-.39,18.24-.66,20-.66,6.08,0,.52.76,8.24,4.16l.42.18.68.28c11.48,4.64,0,50.85-1.11,58.75-4.35,31.86-5.46,63.4-2.36,95.48,1.71,17.65-.45,34.31,3.89,51.94,4.08,16.57,10.44,32.74,17.17,48.75C309,673.28,321.95,697.71,316.11,709.2Z"/><path class="h" d="M212.06,679c-1,3.34-6.4,5.22-13.94,6.17-21.78,2.76-61.87-2.15-69.15-1.59-2.52.2-4.86-1.85-7-5-5.47-8.11-9.35-23.56-10.15-26.9a8,8,0,0,0-.44-1.32C90.92,601.52,75.87,551.46,79.1,499.72c1.4-22.92,7.57-45.83,13.87-68.44q1.22-4.35,2.42-8.69h0c1-3.63,2-7.25,3-10.86a9.44,9.44,0,0,1,2.12-3.95,14.66,14.66,0,0,1,11.19-4.32c14.47.4,40.45,1.18,61.24,2.09,11.74.52,21.81,1.07,27.14,1.63,1.19.12,2.13.24,2.81.37,1.85.33,1.77.65-.88,1a8.07,8.07,0,0,0-2.16.57,11.51,11.51,0,0,0-4.37,3.5c-9.82,12.06-11.71,46.88-12.78,53.92q-.42,2.82-.87,5.65c-.15.91-.28,1.82-.43,2.73s-.26,1.67-.39,2.51c-.17,1-.32,2-.48,3l-.35,2.29q-.43,2.6-.83,5.2c-3.78,24.44-7,49.12-4.57,73.61,3,29.79,14.39,59.18,28.42,86.32C208.06,657.26,215.37,668.33,212.06,679Z"/><path class="f" d="M193.72,675l3,9,10.89,32.38,1.17,3.47,1.07,3.2c1.45,4.33-23.19,16.4-27.2,18.75-4.72,2.84-10.28,5.33-15.51,5.12a19.4,19.4,0,0,1-9.55-3.39c-10-6.33-12.44-12.93-14.38-23.18-1.31-6.87-2.64-13.75-4.16-20.56-1.34-6.11-2.06-8.64-2.06-8.64Z"/><path d="M207.81,700.34q-7.39.61-14.85.62c-21.84.31-55.48-.62-55.48-.62s-2-1.83-4.47-4.58c-4.41-4.73-10.52-12.12-11-17.25-.29-3.06,1.4-5.27,6.58-5.69,19-1.53,72.56,0,72.56,0a91.73,91.73,0,0,1,8.32,12.28C213.22,692.07,215.39,699.58,207.81,700.34Z"/><path class="g" d="M360.41,449.68c-7.29,2.69-15.8,2.64-23.95,2.43a15.42,15.42,0,0,1-6.29-1.06c-2.49-1.22-3.63-3.58-4.56-5.76a.41.41,0,0,1,0-.1c-10.14-23.49-17.95-46.43-22-70.9A365.29,365.29,0,0,0,287,309.16l-.12-.35c-2.89-8-6.1-16-9.69-24.14l-.24-.55-1.49-3.29c-.58-1.26-1.16-2.53-1.66-3.82a15.94,15.94,0,0,1-1.15-5.28c-.07-3.29,1.32-6.44,2.81-9.47,1.15-2.27,17.89-27.52,29-39.67,1.3-1.43,2.52-2.67,3.63-3.67.27-.26.54-.5.81-.7,2.14-1.8,3.78-2.55,4.63-1.75l0,0c.73.78,1.45,1.56,2.15,2.35h0c27.15,30.25,39.27,66.74,44.53,102.64,2.79,19,3.71,38.14,3.88,57.2a317.73,317.73,0,0,0,5.18,54.83c.12.66.21,1.32.27,2C370.21,441.69,368.06,446.84,360.41,449.68Z"/><path class="i" d="M380.74,487a33.84,33.84,0,0,1-.94,6.61c-1.39,5.52-8.52,15.91-9.47,16.3-2.07.84-3-.27-5,1.44-1.66,1.44-2.63,3.35-4.71,4.33-2.86,1.35-6.31,1.06-7.66-2.1-1.54-3.61-.45-7.42-.24-11.16.2-3.55-11.08,20-17.1,14.12a4.65,4.65,0,0,1-1.47-3c-1-13.49,5.43-23.74,4.2-37.21-.16-1.71-.51-5.3-2.75-3.83-2.89,1.9-4.56,7.09-6.75,10.38-.59.88-.77,9.22-1.5,10-3,3.23-7.62.66-8.25-2.87-.88-4.93-2.2-10.87-1.52-15.25.44-2.85,4.31-12.64,5.27-15.5.38-1.13,3.31-5.6,3.6-6.76.56-2.2-3.3-5.12-1.31-6.91l.41-.35,5.07-4.39a2.27,2.27,0,0,1,1.2-.52l37.87-4.73,2.74-.35c1.69-.22,3,1.29,2.35,2.64a14.21,14.21,0,0,0-1.24,2.9c-.07.94,1.4,3.48,1.33,4.42-.22,3,4.93,17.08,4.64,21.51a38.37,38.37,0,0,0,.43,7.06A78.49,78.49,0,0,1,380.74,487Z"/><path class="h" d="M109.23,293.52c-.3,2.07-.66,4.2-1.09,6.38-2.43,12.47-6.8,26.49-11,39q-1.76,5.26-3.42,10.09c-1.22,3.57-2.35,6.87-3.35,9.93-2.65,8-4.25,13.75-3.52,15.28.34.72.08,2.19-.64,4.24-5.46,15.42-37.34,63.33-37.34,63.33h0c-7.88,12.5-38.79-6.11-38.79-6.11.12-1.58.24-3.15.4-4.74,3.25-33.61,15.28-66.92,23.4-100l4.26-17.38c4.09-16.66,7.62-33.74,12.3-50.22.85-3,12.92-26.58,16.3-36.25.78-2.25,1.1-3.74.7-4.06l.77.63c1.17,1,3.61,3.06,6.8,5.92h0a204.86,204.86,0,0,1,18.17,18.81c6.14,7.33,11.89,15.52,15.18,23.57C110.47,277.21,110.49,284.79,109.23,293.52Z"/><path class="g" d="M107.37,213.79,78.88,213a16.08,16.08,0,0,0-3.06.2c-4.63.73-8.31,3.48-9.48,7.08a7.34,7.34,0,0,0-.23,3.57l.58,3.25L89.05,351.38l1.34,7.51.28,1.53,3.46,19.42.52,2.87,3.77,20.95a8.51,8.51,0,0,0,2.06,4.12,14,14,0,0,0,10.34,4.32l35.72.23c-3.69-66.08-8.69-132.71-24.07-198.1Z"/><path class="j" d="M312.65,312l-13.2,49.9c.07.15.15.3.2.45a10.14,10.14,0,0,1,.87,4.34l-.21,10.41a10.92,10.92,0,0,1-3,7.21,14.32,14.32,0,0,1-4.23,3.19,4.29,4.29,0,0,1-.43.22l-1.94,7.19-3.34,12.83-.09.33a8,8,0,0,1-.33,1,10.92,10.92,0,0,1-6.37,5.74L261.84,413l-44.71-.44c-2.25-.37,12.24-160.22,17-189,.12-.82,58.63-26.78,83.42-8.81C340,231,312.65,312,312.65,312Z"/><path class="k" d="M303.13,394.81l-.6,9.56-.13,2.12a13.63,13.63,0,0,1-5.48,9.9c-.14.12-.3.23-.45.34a17.56,17.56,0,0,1-11.12,3.19L275,419.46l-2.5-.12-7.72-.36-3.53-.16L236,417.62l-3.87-.22L223.5,417l-2-.1-15.83-.75-27.77-1.31L98.07,411a17,17,0,0,1-11.3-4.84c-.18-.17-.33-.34-.49-.51a13,13,0,0,1-3.46-9.61l.75-11.69a4.93,4.93,0,0,1,.09-.94,14.53,14.53,0,0,1,9.07-11.14,17.5,17.5,0,0,1,3.86-1.12,18.31,18.31,0,0,1,4-.25l24,1.14,55.36,2.62.76,0,10.32.46,5,.24,11.67.55H208l26.5,1.25,4.24.21,4.79.23.67,0,23.62,1.12h.35l3.13.15.88,0,2.66.13,2.24.1,10.78.51c6.26.3,11.76,3.75,14.11,8.85.11.23.21.47.3.71A12.51,12.51,0,0,1,303.13,394.81Z"/><path class="l" d="M224.87,563.69l-8.3,1.8c-3.32.71-5.67,3-5.78,5.74l-1.16,24.37a5.18,5.18,0,0,0,1,3.22L225,619.37c1.76,2.5,5.46,3.73,9,3l8.36-1.8c3.31-.72,5.65-3,5.78-5.74l1.15-24.37a5.18,5.18,0,0,0-1-3.22l-14.42-20.56C232.13,564.15,228.39,562.92,224.87,563.69Z"/><path class="l" d="M104.32,530.87,99.43,529c-4.61-1.27-8.21-1.08-8.32.42l-7.1,22a1.31,1.31,0,0,0,.14.64l12.73,27.19c.82,1.76,4.95,4.07,9.58,5.32h0c4.61,1.26,8.21,1.08,8.31-.43L116.48,561a1.24,1.24,0,0,0-.15-.65l-7.27-26C108.19,532.56,108.93,532.13,104.32,530.87Z"/><path class="i" d="M100.69,246.39l14.74-.48a6.27,6.27,0,0,1,6.67,5.78l5.7,151.6a6.19,6.19,0,0,1-6.22,6.2l-14.74.48a6.27,6.27,0,0,1-6.67-5.78l-5.7-151.6A6.19,6.19,0,0,1,100.69,246.39Z"/><path class="i" d="M270.35,238.42,285,240a6.1,6.1,0,0,1,5.64,6.65L271.39,397.32a6.36,6.36,0,0,1-7.16,5.24l-14.65-1.62a6.1,6.1,0,0,1-5.64-6.65l19.25-150.63A6.36,6.36,0,0,1,270.35,238.42Z"/><path class="m" d="M244,374.56l26.27,2.62a4.1,4.1,0,0,1,3.61,4.52l-4,42.56a4,4,0,0,1-4.38,3.72l-24.27-2.62c-2.2-.22-5.82-5.24-5.61-7.52l4-39.56A4,4,0,0,1,244,374.56Z"/><path class="f" d="M280.4,378.95l-3.27,39.95A9.77,9.77,0,0,1,266.59,428L248,426.07a10,10,0,0,1-8.68-11l3.4-36.71C243.21,372.83,278.34,381.46,280.4,378.95Z"/><path class="m" d="M258.71,399l-15.42-22.71a1.23,1.23,0,0,1,.57-1.84,1.86,1.86,0,0,1,1-.18L279,377.44a1.43,1.43,0,0,1,1.42,1.49,1.24,1.24,0,0,1-.34.69l-18.67,19.54a1.81,1.81,0,0,1-2.25.24A1.45,1.45,0,0,1,258.71,399Z"/><path class="n" d="M309.28,216.8l-1.87,4.77-.39,1-27.55,70.28-2.68,6.86c.06,5.53-2.91,10.57-7.76,14.26a27.14,27.14,0,0,1-5.14,3.05,20.92,20.92,0,0,1-2.13.86,32.57,32.57,0,0,1-4.71,1.37,34.37,34.37,0,0,1-3.43.55A33.6,33.6,0,0,1,250,320l-17.2.09-94.13.53A33.53,33.53,0,0,1,122.74,317a25.87,25.87,0,0,1-3.92-2.5,21.08,21.08,0,0,1-2.42-2.18,16.6,16.6,0,0,1-5.06-11.41l-.86-2.06L96.92,266.63,80.26,227.09h0L77,219.37a16.39,16.39,0,0,1,4-10.72c4.73-5.67,13.15-9.5,22.79-9.62l9.51-.11,11.68-.13,29.79-.33,18.52-.21,19.32-.21,40.71-.46,31.82-.35,4.29-.05h0L282,197a33.21,33.21,0,0,1,17.29,4.41l.23.14c5.25,3.21,8.82,7.87,9.58,13.17a2.87,2.87,0,0,0,.06.38c.05.45.09.91.09,1.37C309.28,216.62,309.28,216.71,309.28,216.8Z"/><path class="o" d="M304.54,213l-1.31,3.34-.39,1-1.71,4.45-24.85,63.3L272,295.88c.06,5.53-2.91,10.58-7.76,14.26a28,28,0,0,1-6.61,3.68,26.61,26.61,0,0,1-3.05,1l-.28.09-.21.05a35.64,35.64,0,0,1-8.91,1.22l-12,.07-99.32.56a35,35,0,0,1-11.24-1.71,29.14,29.14,0,0,1-6.27-2.88,21.35,21.35,0,0,1-2.32-1.59,21.07,21.07,0,0,1-4.51-4.71,15.77,15.77,0,0,1-2.92-8.87l-9.43-22.28L74.32,220.46l-1.6-3.81-.42-1c-.12-11.06,11.89-20.17,26.82-20.34l20.26-.23H120l25.58-.34,9.22-.1h1.58l17.3-.2,10.1-.11h2.45l14.57-.16,37.45-.43,22.76-.25,8.84-.1,7.33-.09c9.17-.1,17.31,3.2,22.28,8.31l.25.27A16.55,16.55,0,0,1,304.54,213Z"/><path class="c" d="M267,201.82c.16,4.56-4.22,9-11.9,12.86-13.83,6.94-38.39,12.08-66.52,13.07-41.42,1.45-75.74-6.64-79.66-18.34a6.81,6.81,0,0,1-.38-2c-.1-2.89,1.62-5.73,4.86-8.4a36.36,36.36,0,0,1,6-3.89l.41-.21a87.77,87.77,0,0,1,16.14-6.14,204.21,204.21,0,0,1,39-6.58q5.85-.48,12-.69c5.39-.19,10.65-.21,15.75-.09.81,0,1.63,0,2.43.07q4.71.15,9.2.48a161.86,161.86,0,0,1,31.3,5c6.53,1.83,11.82,4.05,15.5,6.57a16.9,16.9,0,0,1,4.11,3.77A8.06,8.06,0,0,1,267,201.82Z"/><path class="i" d="M198.75,371.55a2.53,2.53,0,0,1,0,.59l-2.29,29.57-1.08,14.18,0,.43-.1,1.26-.24,3.13-3.72,48.08-1.16,15a3.69,3.69,0,0,1-.93,2.12,7.17,7.17,0,0,1-5.51,2.21l-.45,0-3.76-.05-6.16-.08-3.57,0c-3.37,0-6-2.05-5.76-4.49h0l1.13-14.58,3.62-46.86.47-6.11,1.13-14.62,1.36-17.64.92-11.91a3.49,3.49,0,0,1,.51-1.54c1-1.71,3.39-2.82,5.93-2.79l14,.18c2.57,0,4.77,1.23,5.51,3A2.79,2.79,0,0,1,198.75,371.55Z"/><path class="i" d="M181.24,481.28a4.47,4.47,0,0,1-1.12,1.36,6,6,0,0,1-.52.39l-4.47,3-1.31.87a7.34,7.34,0,0,1-.89.5,8.77,8.77,0,0,1-8.55-.85L159.85,483,92.92,431.28l-2.31-1.79c1.6-2.05,2.77-3.48,2.77-3.48l1.94-3.43h0l4.62-8,65.57,50.67,13,10,1.31,1a5.07,5.07,0,0,1,1.11,1.15A3.6,3.6,0,0,1,181.24,481.28Z"/><path class="i" d="M179.35,479.09l3.21,3.7,1,1.1c2,2.24,5.83,2.86,8.75,1.4l5.13-2.55,82.89-41.16,3.89-18.68a7.89,7.89,0,0,0-4.54.7l-98.5,48.89c-2.8,1.36-3.67,4.24-1.94,6.44Z"/><path class="p" d="M309.33,217l-1.81,4.66-.32.86L279.78,293.4,277,300.66c-3.91,18.07-23.34,19.1-23.34,19.1l.93-3.69.15-1.23,10-79.71,2.2-17.47.33-2.64,2.25-17.84v0l.48-3.82,7.33-.08c9-.09,17.06,3.13,22,8.17l.24.25.24.15c5,3.18,8.49,7.71,9.33,12.91a2.87,2.87,0,0,0,.06.38c.06.46.1.93.12,1.41A2.87,2.87,0,0,0,309.33,217Z"/><path class="q" d="M175.39,380.79h.26l19.06.78a2.3,2.3,0,0,1,2.31,2.33v0l-.95,16.68a2.38,2.38,0,0,1-2.31,2.16h-.26L174.44,402a2.31,2.31,0,0,1-2.31-2.35v0l.95-16.68a2.39,2.39,0,0,1,2.31-2.17m-.1-1.83a4.34,4.34,0,0,0-4.18,3.91l-.95,16.68a4.19,4.19,0,0,0,4.18,4.28h0l19.06.78.46,0a4.3,4.3,0,0,0,4.17-3.91L199,384a4.19,4.19,0,0,0-4.18-4.28h0l-19.06-.78Z"/><rect class="r" x="178.35" y="400.03" width="12" height="5" rx="1.28" ry="1.28" transform="translate(-226.79 566.78) rotate(-87.17)"/><path class="q" d="M104.62,387.17h.08l19.08.54a2.35,2.35,0,0,1,2.37,2.33h0l-.55,16.68a2.34,2.34,0,0,1-2.43,2.2h-.08L104,408.37a2.35,2.35,0,0,1-2.37-2.34l.55-16.68a2.34,2.34,0,0,1,2.43-2.19m0-1.83a4.27,4.27,0,0,0-4.4,4L99.69,406A4.26,4.26,0,0,0,104,410.2l19.08.54h.14a4.28,4.28,0,0,0,4.4-4l.55-16.68a4.24,4.24,0,0,0-4.28-4.22h0l-19.08-.54Z"/><path class="r" d="M112.18,402.4l2.41.07a1.21,1.21,0,0,1,1.22,1.21l-.28,8.65a1.23,1.23,0,0,1-1.3,1.14l-2.41-.07a1.21,1.21,0,0,1-1.22-1.21l.28-8.65A1.23,1.23,0,0,1,112.18,402.4Z"/><path class="i" d="M49.93,484.43c-4.12-1.31-5-21.2-7.94-19.69-4.59,2.4-5.3,8.26-5.31,12.9,0,5.52,1.06,11,1.66,16.42.26,2.41,0,7.35-2.58,8.57a2.79,2.79,0,0,1-2.89-.55c-2.13-1.82-3.57-6.19-4.52-8.75a40.2,40.2,0,0,1-2.22-9.88c-.23-2.33-.17-4.53-.77-4.09-1.46,1.08-1.57.87-1.82,2.48-.64,4.12-.49,8.09-.72,12.23-.17,3-1.78,7.81-5.71,6.75a8,8,0,0,1-2.86-1.61,19.75,19.75,0,0,1-4.37-4.94,2.3,2.3,0,0,1-3.36.28c-1-1.13-.38-2.58-.75-3.88-.5-1.79-1.12-2.24-2.55-3.46-3.35-2.87-3.28-9.06-3.2-13.11.11-5,1.65-9.85,2-14.84.3-4.07-1.67-9.89,1.3-13.32,2.78-3.2,3.83-6,3.83-6.87s1.73-2.77,1.73-3.57A11.75,11.75,0,0,0,8,432.94a1.43,1.43,0,0,1,1-2,2.44,2.44,0,0,1,1.15-.09l.29.06,34,6.87a1.85,1.85,0,0,1,1,.52l3.43,3.45,1,1a1.42,1.42,0,0,1,.24,1.76l-1.75,3.06a1.43,1.43,0,0,0,.12,1.6c2.36,3.13,3.65,6.93,5.19,10.5,1.7,4,2.29,11.7,1.62,16C54.78,479,54.14,485.77,49.93,484.43Z"/><circle class="s" cx="182.44" cy="290.47" r="16.71"/><path class="t" d="M183.11,276.65,180.68,291a.18.18,0,0,0,.15.2h0l3.27.19a.19.19,0,0,0,.19-.19h0l-.86-14.57a.19.19,0,0,0-.34,0Z"/><path class="o" d="M290.15,142.56a99.94,99.94,0,0,1-4.6,13.37A106.59,106.59,0,0,1,256,195.8c-1.87,1.58-3.8,3.09-5.77,4.52a108.07,108.07,0,0,1-37.72,17.61,110.23,110.23,0,0,1-13.13,2.44h0a107.81,107.81,0,0,1-21.12.57c-.51,0-1-.06-1.52-.11a108.53,108.53,0,0,1-25-5.09,107.27,107.27,0,0,1-27.89-14c-2-1.39-4-2.86-5.84-4.39l-.31-.25A102.5,102.5,0,0,1,89.14,73.65a107.45,107.45,0,0,1,73.95-59c3.45-.77,7-1.38,10.58-1.82h0c3.59-.46,7.16-.71,10.7-.81q4.4-.12,8.73.11l2.11.14c1.18.08,2.35.19,3.51.31a108.09,108.09,0,0,1,15.63,2.82A106.3,106.3,0,0,1,278.86,63a102.5,102.5,0,0,1,11.29,79.53Z"/><path class="u" d="M197.7,204.57a76.07,76.07,0,0,1-18.24,1.12c-37.59-2.18-67.45-26.86-67.29-59.6.07-26.08,19.6-51.75,48.45-57.11a76.07,76.07,0,0,1,18.24-1.12c37.6,2.17,68.14,30.56,68,63.31C246.78,177.24,226.57,199.2,197.7,204.57Z"/><path class="v" d="M162.52,99.53h0a67.9,67.9,0,0,1,57.82,16.87c10.37,9.84,16.06,22.17,16,34.69a39.84,39.84,0,0,1-10.83,27.16c-7.37,8-18,13.65-29.83,15.86a67.9,67.9,0,0,1-57.83-16.87c-10.36-9.85-16.05-22.17-16-34.69a39.71,39.71,0,0,1,10.85-27.25c7.35-8,17.95-13.65,29.83-15.86m-3.91-21c-33.13,6.16-57.55,31.74-57.63,63.78-.12,38.37,34.79,71.58,78,74.08A85.84,85.84,0,0,0,199.66,215c33.14-6.16,57.55-31.74,57.64-63.79.11-38.37-34.8-71.58-78-74.07a85.68,85.68,0,0,0-20.71,1.38Z"/><path class="w" d="M178.23,86a1.77,1.77,0,0,1,2.16-1.29,1.82,1.82,0,0,1,1.55,2,1.77,1.77,0,0,1-2.16,1.29A1.82,1.82,0,0,1,178.23,86Z"/><path class="w" d="M201.25,90.68a1.77,1.77,0,0,1,2.16-1.29,1.82,1.82,0,0,1,1.55,2,1.77,1.77,0,0,1-2.16,1.29A1.82,1.82,0,0,1,201.25,90.68Z"/><path class="w" d="M217,100.69a1.76,1.76,0,0,1,2.15-1.29,1.82,1.82,0,0,1,1.55,2,1.76,1.76,0,0,1-2.15,1.29A1.82,1.82,0,0,1,217,100.69Z"/><path class="w" d="M234,114a1.77,1.77,0,0,1,2.16-1.29,1.82,1.82,0,0,1,1.55,2,1.77,1.77,0,0,1-2.16,1.29A1.82,1.82,0,0,1,234,114Z"/><path class="w" d="M241.95,126.66a1.77,1.77,0,0,1,2.16-1.29,1.82,1.82,0,0,1,1.55,2,1.77,1.77,0,0,1-2.16,1.29A1.82,1.82,0,0,1,241.95,126.66Z"/><path class="w" d="M247,141.72a1.77,1.77,0,0,1,2.16-1.29,1.82,1.82,0,0,1,1.55,2,1.77,1.77,0,0,1-2.16,1.29A1.82,1.82,0,0,1,247,141.72Z"/><path class="w" d="M178.23,86a1.77,1.77,0,0,1,2.16-1.29,1.82,1.82,0,0,1,1.55,2,1.77,1.77,0,0,1-2.16,1.29A1.82,1.82,0,0,1,178.23,86Z"/><path class="w" d="M155.17,88.16a1.77,1.77,0,0,1,2.16-1.29,1.82,1.82,0,0,1,1.55,2,1.77,1.77,0,0,1-2.16,1.29A1.82,1.82,0,0,1,155.17,88.16Z"/><path class="w" d="M137.25,96a1.77,1.77,0,0,1,2.16-1.29,1.82,1.82,0,0,1,1.55,2,1.77,1.77,0,0,1-2.16,1.29A1.82,1.82,0,0,1,137.25,96Z"/><path class="w" d="M122.13,108.72a1.77,1.77,0,0,1,2.16-1.29,1.82,1.82,0,0,1,1.55,2,1.77,1.77,0,0,1-2.16,1.29A1.82,1.82,0,0,1,122.13,108.72Z"/><path class="w" d="M114.06,121.37a1.77,1.77,0,0,1,2.16-1.29,1.82,1.82,0,0,1,1.55,2,1.77,1.77,0,0,1-2.16,1.29A1.82,1.82,0,0,1,114.06,121.37Z"/><path class="w" d="M110.7,132.58a1.77,1.77,0,0,1,2.16-1.29,1.82,1.82,0,0,1,1.55,2,1.77,1.77,0,0,1-2.16,1.29A1.82,1.82,0,0,1,110.7,132.58Z"/><path class="w" d="M178,209.68a1.77,1.77,0,0,1,2.16-1.29,1.82,1.82,0,0,1,1.55,2,1.77,1.77,0,0,1-2.16,1.29A1.82,1.82,0,0,1,178,209.68Z"/><path class="w" d="M201,207.55a1.77,1.77,0,0,1,2.16-1.29,1.82,1.82,0,0,1,1.55,2,1.77,1.77,0,0,1-2.16,1.29A1.82,1.82,0,0,1,201,207.55Z"/><path class="w" d="M218.93,199.67a1.77,1.77,0,0,1,2.16-1.29,1.82,1.82,0,0,1,1.55,2,1.77,1.77,0,0,1-2.16,1.29A1.82,1.82,0,0,1,218.93,199.67Z"/><path class="w" d="M234.05,187.83a1.77,1.77,0,0,1,2.16-1.29,1.82,1.82,0,0,1,1.55,2,1.77,1.77,0,0,1-2.16,1.29A1.82,1.82,0,0,1,234.05,187.83Z"/><path class="w" d="M242.13,176a1.77,1.77,0,0,1,2.16-1.29,1.82,1.82,0,0,1,1.55,2,1.77,1.77,0,0,1-2.16,1.29A1.82,1.82,0,0,1,242.13,176Z"/><path class="w" d="M247.41,156.92a1.77,1.77,0,0,1,2.16-1.29,1.82,1.82,0,0,1,1.55,2,1.77,1.77,0,0,1-2.16,1.29A1.82,1.82,0,0,1,247.41,156.92Z"/><path class="w" d="M178,209.68a1.77,1.77,0,0,1,2.16-1.29,1.82,1.82,0,0,1,1.55,2,1.77,1.77,0,0,1-2.16,1.29A1.82,1.82,0,0,1,178,209.68Z"/><path class="w" d="M154.94,205a1.77,1.77,0,0,1,2.16-1.29,1.82,1.82,0,0,1,1.55,2,1.77,1.77,0,0,1-2.16,1.29A1.82,1.82,0,0,1,154.94,205Z"/><path class="w" d="M137.13,195.21a1.77,1.77,0,0,1,2.16-1.29,1.82,1.82,0,0,1,1.55,2,1.77,1.77,0,0,1-2.16,1.29A1.82,1.82,0,0,1,137.13,195.21Z"/><path class="w" d="M122.16,180.88a1.77,1.77,0,0,1,2.16-1.29,1.82,1.82,0,0,1,1.55,2,1.77,1.77,0,0,1-2.16,1.29A1.82,1.82,0,0,1,122.16,180.88Z"/><path class="w" d="M114.25,167.37a1.77,1.77,0,0,1,2.16-1.29,1.82,1.82,0,0,1,1.55,2,1.77,1.77,0,0,1-2.16,1.29A1.82,1.82,0,0,1,114.25,167.37Z"/><path class="w" d="M109.18,149.36a1.77,1.77,0,0,1,2.16-1.29,1.82,1.82,0,0,1,1.55,2,1.77,1.77,0,0,1-2.16,1.29A1.82,1.82,0,0,1,109.18,149.36Z"/><path class="x" d="M308.53,116.93c-1.63,22.39.35,25.36-4.6,31.86-3.48,4.58-16.32,2.45-16.32,2.45C281,166.67,268.87,185,256,195.83c-1.87,1.58-3.8,3.09-5.77,4.52A108.07,108.07,0,0,1,212.54,218a110.23,110.23,0,0,1-13.13,2.44h0a107.81,107.81,0,0,1-21.12.57l.1-1,.31-3.25.08-.79.28-2.87.81-8.28.36-3.66.44-4.46,1.41-14.36,8-81.72.48-4.89L195,50.93l3.77-38.31a108.09,108.09,0,0,1,15.63,2.82A106.3,106.3,0,0,1,278.86,63a131.8,131.8,0,0,1,6.75,13.25c3.38-3.64,16.71-4.48,19.44-.57C309.29,81.74,307.73,93.92,308.53,116.93Z"/><path class="p" d="M72.33,217.08l1.76,4.66.31.86,31,70.84,1.89,7.27c3.81,18.07,19.3,18.25,19.3,18.25l-.91-2.83-.15-1.23L103.47,195c-8.79-.09-20,2.27-24.88,7.31,0,0-6.3,6.41-6.13,12.45a2.94,2.94,0,0,1-.06.38c-.06.46-.1.93-.12,1.41A2.94,2.94,0,0,1,72.33,217.08Z"/><path class="y" d="M186.86,109.74A41.69,41.69,0,0,1,223.11,147"/><path class="y" d="M224.14,157.92A8.42,8.42,0,0,1,221.4,165"/><path d="M317.33,704.45a1.18,1.18,0,0,1,.1.44c.06,1.45.27,9.43-1.77,12.42-1.82,2.66-6.07,5.52-7.63,6.52a1.2,1.2,0,0,0-.56,1.08c.06,1.15.19,3.59.34,6.57.22,4.16-23,6-30.17,9.69s-27.1-2-27.1-2h-.06L244,737.83a1.22,1.22,0,0,1-1-1.13l-.81-15.53a1.22,1.22,0,0,1,1.11-1.28h0a1.22,1.22,0,0,0,1.1-1.38l-.53-3.89a1.22,1.22,0,0,1,1-1.36l1.84-.39,67-14a1.22,1.22,0,0,1,1.36.68l.18.39Z"/></svg>