<svg xmlns="http://www.w3.org/2000/svg" viewBox="0 0 800 800"><defs><style>.a{fill:#60c2e7;}.b{fill:#feece8;}.c{fill:#fff;}.d{fill:#76d0ee;}.e{fill:#afe1f4;}.f{fill:#23b2da;}.g{fill:#262262;}</style></defs><title>icons</title><path class="a" d="M275.91,533.4q-4.45-3.72-8.61-7.73h0c-20.18-40.93-26.38-85.91-6.11-128.25,24-50.11,74.31-89.43,126.39-106.62,68.12-22.48,149.39-17.88,219.24,8,20.56,13,35,38.85,27.17,42a6.6,6.6,0,0,1-3.75.12c-47.42-9.5-42-30.84-47.78-32.73-44.72-14.67-46,5.88-71.78,11.47-16.34,3.56-20.49,1.35-20.66,5.77-.61,15.76-4.07,28.47-9.19,38.7-12.6,1.18-25.27,1-37.94,1.12.09-17.62-10-37.3-17.34-35.65A122.32,122.32,0,0,0,409,334.6c-24.43,1-156.64,42.79-135.29,136.74h0c3.94,15.34,11.31,31.75,22.82,49.08,0,0,52.44-25.26,73.29-8,.31.25-2.62-.16-7,1.05,0,0-12.91-1.5-28.63,18.67-10,12.82-29.35,4.5-38.48,4.08a67.16,67.16,0,0,1,12.82,7.91c-1.22-.33-1.75-.44-1.3,0,14.87,15,11.72,36,.08,59.37-6.75,13.53,7.55,28.28,8.28,31.27A116.47,116.47,0,0,1,275.91,533.5a.35.35,0,0,1,0-.08Z"/><path class="b" d="M630.24,341a6.6,6.6,0,0,0,3.75-.12C606.9,360.5,571.2,321.14,569.4,322.5c-26.26,19.7-53.83,38.21-87.22,41.57l-1.34.12c5.11-10.23,8.58-22.93,9.19-38.7.17-4.42,4.32-2.22,20.66-5.77,25.73-5.59,27.06-26.14,71.78-11.47C588.21,310.13,582.82,331.47,630.24,341Z"/><path class="c" d="M569.4,322.5c1.8-1.35,37.5,38,64.59,18.36-17.21,19.63-62.49-9.67-62.49-9.67s-56.29,36.65-92.62,45.05c-2,.47-4.22.84-6.48,1.14a71.26,71.26,0,0,0,8.44-13.19l1.34-.12C515.57,360.71,543.14,342.2,569.4,322.5Z"/><path class="d" d="M605.45,298c.46.27.91.56,1.36.84-69.86-25.93-151.13-30.53-219.24-8C335.49,308,285.17,347.29,261.18,397.4c-20.27,42.34-14.07,87.32,6.11,128.25a162.34,162.34,0,0,1-21.52-25.38,184.61,184.61,0,0,1-27.47-64.37h0c1.63-30,12.46-114.93,85-171.92,57-44.73,119.9-47.08,140.94-47.57,76.29-1.76,131.18,31.86,151.93,46.34a133.54,133.54,0,0,1,9,30.76h0C605.48,296.39,605.45,298,605.45,298Z"/><path class="d" d="M605.22,293.52h0a133.54,133.54,0,0,0-9-30.76l1.11.79A102,102,0,0,1,605.22,293.52Z"/><path class="e" d="M597.33,263.54l-1.11-.79c-13.58-31.46-39.13-55.09-73.8-66.54-28.15-9.3-59.36-12.41-89-13.83,19.76-1.16,83.17-1.76,126.7,33.06C579.89,231.27,591,248.76,597.33,263.54Z"/><path class="e" d="M522.42,196.22c34.67,11.45,60.23,35.08,73.8,66.54-20.75-14.49-75.64-48.1-151.93-46.34-21,.48-84,2.83-140.94,47.57-72.59,57-83.42,141.93-85,171.92-1.18-5.26-2.13-10.58-2.88-15.92-7.48-52.68,4.81-108.87,34.25-150.89,16-22.87,37.93-43.24,60.75-60.27,34.82-20.11,74.81-28.16,116.4-26.71l.45.76s2.2-.25,6.11-.47C463.06,183.8,494.27,186.92,522.42,196.22Z"/><path class="a" d="M480.84,364.19a71.26,71.26,0,0,1-8.44,13.19c-19.7,24.44-49.38,28-53.87,27l-.15,0c8.8-6.37,24-20,24.52-38,0-.34,0-.67,0-1C455.57,365.24,468.25,365.37,480.84,364.19Z"/><path class="f" d="M442.9,366.33c-.49,18-15.71,31.63-24.52,38-4.88-1.36,10.37-10.56,13.31-27.18.72-4,1.52-7.76,1.42-11.68,3.26-.08,6.53-.11,9.79-.14C442.92,365.66,442.91,366,442.9,366.33Z"/><path class="f" d="M442.91,365.31c-3.27,0-6.53.07-9.79.14-.2-8-4.21-16.8-20.54-30.37-.48-.41-1.73-.56-3.62-.49a122.32,122.32,0,0,1,16.61-4.93C432.87,328,443,347.7,442.91,365.31Z"/><path class="c" d="M433.12,365.46c.1,3.92-.7,7.65-1.42,11.68a129.87,129.87,0,0,0-45,4.23,43.52,43.52,0,0,1-3.79-9.66,228,228,0,0,1,41.88-5.95Q428.91,365.55,433.12,365.46Z"/><path class="b" d="M433.12,365.46q-4.2.1-8.38.3a228,228,0,0,0-41.88,5.95c-3.37-13.43,1.46-27.62,26.11-37.11,1.89-.07,3.14.08,3.62.49C428.91,348.65,432.91,357.44,433.12,365.46Z"/><path class="c" d="M382.85,371.7a43.52,43.52,0,0,0,3.79,9.66c-12.55,3.37-23.49,8-33.8,11.69-49.11,17.76-71,49.44-77.49,71,6.69-37.51,39-64.76,72.72-80.34A188.78,188.78,0,0,1,382.85,371.7Z"/><path class="b" d="M409,334.6c-24.65,9.49-29.48,23.67-26.11,37.11a188.78,188.78,0,0,0-34.78,12c-33.72,15.59-66,42.84-72.72,80.34,0,0,0,0,0,0a52.91,52.91,0,0,0-1.68,7.24C252.32,377.39,384.53,335.61,409,334.6Z"/><path class="f" d="M334.19,532.17c15.72-20.17,28.63-18.67,28.63-18.67-6,1.69-14.79,6.55-21.39,20.71-8.21,17.63-27.46,11.45-32.9,10a67.16,67.16,0,0,0-12.82-7.91C304.83,536.67,324.2,545,334.19,532.17Z"/><path class="f" d="M315.59,634.82c.2.75-.48.75-2.59-.21-71.62-32.76-38.41-98.55-37.09-101.11a116.47,116.47,0,0,0,39.68,101.32Z"/><path class="f" d="M301.7,137c16.94,2.37,77.66,22.45,51.74,48.27-6.86,6.83-19,12.6-31.16,15l1.84-1.27c7.5-5.11,17.62-9.11,19.11-19.15,2.88-19.52-23.54-36.2-38.8-41.29A5.56,5.56,0,0,1,301.7,137Z"/><path class="e" d="M353.43,185.32c25.92-25.82-34.8-45.9-51.74-48.27-5.9-8,84.28-22.28,125.12,45.06-41.59-1.45-81.58,6.6-116.4,26.71q5.89-4.41,11.85-8.5C334.41,197.91,346.57,192.15,353.43,185.32Z"/><path class="g" d="M540.92,288.6a5.38,5.38,0,0,1-1,1.75c-8.46-4.27-17.46-4.82-24.73-2.06-3.32-4.41-2.18-10.67,1.75-14.59a15.69,15.69,0,0,1,16.21-3.62,5,5,0,0,1,1.08.5,11.42,11.42,0,0,1,2.77,1.6C541.5,275.85,542.71,283.13,540.92,288.6Z"/></svg>