<svg xmlns="http://www.w3.org/2000/svg" viewBox="0 0 800 800">
  <defs>
    <style>
      .a {
        fill: #002b75;
      }

      .b {
        fill: #003592;
      }

      .c {
        fill: #0052d0;
      }

      .d {
        fill: #003fa1;
      }

      .e {
        fill: #0593ff;
      }

      .f {
        fill: #0468b5;
      }

      .g {
        fill: #1cb5e8;
      }

      .h {
        fill: #1899c4;
      }

      .i {
        fill: #d9fff4;
      }

      .j {
        fill: #b6d6cd;
      }
    </style>
  </defs>
  <title>fishy</title>
  <g>
    <g>
      <path class="a" d="M628.79,346c1.61,2.13-11.22,6.76-14,20.33a92,92,0,0,0-1.52,18.35h-.15a121,121,0,0,0-92.34,38l-.45.13A59,59,0,0,0,516.8,414C586.12,338.87,628.79,346,628.79,346Z"/>
      <path class="b" d="M613.12,384.72h.15c-.08,16.29,1,30.57-18.22,43.41l-.27-.41a65.51,65.51,0,0,0-33-9.66,66.27,66.27,0,0,0-39.66,12.66H522a46.15,46.15,0,0,0-1.7-7.88l.45-.13a121,121,0,0,1,92.34-38Z"/>
      <path class="a" d="M585.92,487.75c4.38,4.9,10.91,5.39,10.44,6.6-.12.34-.83.35-1.07.36-47.83,1.16-77.5-42.67-77.5-42.67a30.76,30.76,0,0,0,2.33-4.67c.35-.88.65-1.75.91-2.63a83.14,83.14,0,0,1,61.75,38.32l.4,0A13.84,13.84,0,0,0,585.92,487.75Z"/>
      <path class="a" d="M594.78,427.72l.27.41c-6.67,4.47-15.79,8.77-28.26,12.91a49.59,49.59,0,0,0-18-6.65,50.23,50.23,0,0,0-26.33,3h-.18a36.46,36.46,0,0,0-.24-6.65h.09a66.27,66.27,0,0,1,39.66-12.66A65.51,65.51,0,0,1,594.78,427.72Z"/>
      <path class="b" d="M583.18,483l-.4,0A83.14,83.14,0,0,0,521,444.74a31.58,31.58,0,0,0,1.24-7.36h.18a50.23,50.23,0,0,1,26.33-3,49.59,49.59,0,0,1,18,6.65c7,4.32,10.39,9,12,12.33C583.94,464,580.33,474.88,583.18,483Z"/>
      <path class="b" d="M521,444.74c-.26.88-.56,1.75-.91,2.63a30.76,30.76,0,0,1-2.33,4.67c-.38.4-.77.79-1.15,1.18l-.52-.51c-9.36,4.48-21.19,9.7-35.24,14.86a20,20,0,0,0,2.25-10.5c-.66-9.36-8.45-17.92-19.41-20.84,16.15.66,29.37-11.11,29.71-24.88.3-12.16-9.5-23.53-23.4-26a29.71,29.71,0,0,0,18.85-16,198.7,198.7,0,0,1,27.74,44.3.16.16,0,0,0,0,.07c0,.1.09.19.13.29h0a59,59,0,0,1,3.53,8.82,46.15,46.15,0,0,1,1.7,7.88,36.46,36.46,0,0,1,.24,6.65A31.58,31.58,0,0,1,521,444.74Z"/>
      <path class="a" d="M516.12,452.71l.52.51a282.23,282.23,0,0,1-50.94,41.67c-1.3-7.53-7.73-12.85-8.07-13.12,10.73-.6,19.33-6.57,23.25-14.2C494.93,462.41,506.76,457.19,516.12,452.71Z"/>
      <path class="c" d="M437.09,325.14a196.15,196.15,0,0,1,51.79,44.23h0a29.71,29.71,0,0,1-18.85,16c13.9,2.48,23.7,13.85,23.4,26-.34,13.77-13.56,25.54-29.71,24.88,11,2.92,18.75,11.48,19.41,20.84a20,20,0,0,1-2.25,10.5,412,412,0,0,1-53.36,15.61,18.34,18.34,0,0,0,1.34-8.2c-.62-8.89-8-17-18.43-19.79,15.34.63,27.9-10.56,28.22-23.64.29-11.56-9-22.35-22.22-24.71,12.93-3.8,21.24-15.48,20-27.72-1.29-13.09-13.15-23.67-27.69-24.26C423.43,350.22,432,336.1,429,322.4c-.15-.69-.33-1.37-.54-2Q432.83,322.64,437.09,325.14Z"/>
      <path class="d" d="M480.88,467.57c-3.92,7.63-12.52,13.6-23.25,14.2.34.27,6.77,5.59,8.07,13.12a229.39,229.39,0,0,1-55,25.52,15.13,15.13,0,0,0,1.56-4.32c1.89-9.76-7.23-17.32-7.62-17.64,11-.61,19.65-7.18,22.87-15.27A412,412,0,0,0,480.88,467.57Z"/>
      <path class="a" d="M428.46,320.37A175.39,175.39,0,0,0,361,300.92c2.4-3.74,7.71-8.54,13.95-12,8-4.44,17.82-7.46,25.78-9.35,15.56-.95,29.1-4.77,38.69-15.38a43.69,43.69,0,0,0,9.24-16.71c2.12,3,13.83,20.08,9.56,43.14-3.35,18.16-14.64,29.37-21.15,34.52Q432.83,322.64,428.46,320.37Z"/>
      <path class="e" d="M361,300.92a175.39,175.39,0,0,1,67.44,19.45c.21.66.39,1.34.54,2,3,13.7-5.57,27.82-20.23,32.46,14.54.59,26.4,11.17,27.69,24.26,1.21,12.24-7.1,23.92-20,27.72,13.2,2.36,22.51,13.15,22.22,24.71-.32,13.08-12.88,24.27-28.22,23.64,10.41,2.77,17.81,10.9,18.43,19.79a18.34,18.34,0,0,1-1.34,8.2,406.7,406.7,0,0,1-61,8.68c5.27-4.74,8.18-11.5,7.48-18.15-.92-8.84-8.14-16.66-18-19,14.34,0,25.64-11.69,25.44-24.76-.18-11.54-9.3-21.94-21.71-23.75a26.5,26.5,0,0,0-9.16-51.55c13.51-5.25,21-19.69,17.64-33.24a28.42,28.42,0,0,0-22.74-20.93Q353.29,300.34,361,300.92Z"/>
      <path class="f" d="M404.65,498.45c.39.32,9.51,7.88,7.62,17.64a15.13,15.13,0,0,1-1.56,4.32,219,219,0,0,1-63.82,9.77c7.11-2.45,12.27-8.22,13.2-14.75,1.38-9.82-7.42-17-7.8-17.3a25,25,0,0,0,14.22-6.27,406.7,406.7,0,0,0,61-8.68C424.3,491.27,415.65,497.84,404.65,498.45Z"/>
      <path class="b" d="M345.49,300.49c-3.56.06-7.12.25-10.7.55a154.32,154.32,0,0,0-34.9,7.09c2.63-5.28,9.56-14.21,21.38-21.8,7.29-4.68,17-7.25,25.43-8.72,18.76.75,37.54,3,54.05,2-8,1.89-17.75,4.91-25.78,9.35-6.24,3.46-11.55,8.26-13.95,12Q353.3,300.34,345.49,300.49Z"/>
      <path class="g" d="M299.89,308.13a154.32,154.32,0,0,1,34.9-7.09c3.58-.3,7.14-.49,10.7-.55a28.42,28.42,0,0,1,22.74,20.93c3.35,13.55-4.13,28-17.64,33.24a26.5,26.5,0,0,1,9.16,51.55c12.41,1.81,21.53,12.21,21.71,23.75.2,13.07-11.1,24.75-25.44,24.76,9.83,2.33,17,10.15,18,19,.7,6.65-2.21,13.41-7.48,18.15q-14.08.92-29,.85c-10.91-.07-21.45-.58-31.61-1.44,10.55-18,20.05-43.06,18.27-73.9-3.41-59-45.48-92.28-51.66-97l-.17-.32A164.14,164.14,0,0,1,299.89,308.13Z"/>
      <path class="h" d="M352.29,498.13c.38.31,9.18,7.48,7.8,17.3-.93,6.53-6.09,12.3-13.2,14.75a242,242,0,0,1-64.83-8.7,138,138,0,0,0,23.79-30.21c10.16.86,20.7,1.37,31.61,1.44q15,.09,29-.85A25,25,0,0,1,352.29,498.13Z"/>
      <path class="c" d="M346.7,277.61c-8.46,1.47-18.14,4-25.43,8.72-11.82,7.59-18.75,16.52-21.38,21.8a164.14,164.14,0,0,0-27.6,11.92,184,184,0,0,0-21.65,13.82c7.16-27.93,19.34-35.28,29.06-42.2C298.78,278.07,322.72,276.64,346.7,277.61Z"/>
      <path class="i" d="M250.64,333.87a184,184,0,0,1,21.65-13.82l.17.32c6.18,4.72,48.25,38,51.66,97,1.78,30.84-7.72,55.95-18.27,73.9a409.26,409.26,0,0,1-131.73-33.9l-.21.14a36.89,36.89,0,0,1-2.12-3.47C166.12,443.41,193.93,375.75,250.64,333.87Z"/>
      <path class="j" d="M305.85,491.27a138,138,0,0,1-23.79,30.21c-54.16-14.76-95.2-44.95-108.15-64l.21-.14A409.26,409.26,0,0,0,305.85,491.27Z"/>
    </g>
    <g>
      <path class="a" d="M460.56,551.37c-14.82,4.11-37.12-3.57-50.42-10.22-15.27-7.65-28.74-20-33.6-36.85-5.34-18.48,1.69-38.62,7.75-44.82-.79,2.86-7.08,28.28,10.66,49.25,17.31,20.45,42.54,19,45.09,18.82C443.47,538.14,451.6,545.37,460.56,551.37Z"/>
      <path class="c" d="M437.79,494c6.31,9.42-2.7,18.19,2.25,33.5-2.55.19-27.78,1.63-45.09-18.82-17.74-21-11.45-46.39-10.66-49.25,1.25-1.28,2.45-2,3.5-1.93,3.76.14,2.29,9.54,10.5,18.5C411.46,490.41,429.79,482.1,437.79,494Z"/>
    </g>
    <path class="a" d="M271,416.14a15.07,15.07,0,0,0-15.8,1.09c-4.12,3-7,8.89-5.41,13.25,1.87,5.12,9.77.28,15.5-.52,4-.55,12.73,1.07,13.13-2.32C279,422.86,275.43,418.48,271,416.14Z"/>
  </g>
</svg>
