<svg xmlns="http://www.w3.org/2000/svg" viewBox="0 0 800 800">
  <defs>
    <style>
      .a {
        fill: #fff;
      }

      .b {
        fill: #bffcff;
      }

      .c {
        fill: #0097ad;
      }

      .d {
        fill: #008599;
      }

      .e {
        fill: #36b3ba;
      }

      .f {
        fill: #54cfd6;
      }

      .g {
        fill: #85e1e6;
      }

      .h {
        fill: #33578e;
      }
    </style>
  </defs>
  <title>fishy</title>
  <g>
    <g>
      <path class="a" d="M523.33,411.3c69.33-75.17,105.93-56.31,98-47.67-21,22.87,13.16,54.34-48,74.67,7,4.32,12.38,9,14,12.33,3.73,7.73,3.39,16,3.38,22.9h-.45a75.53,75.53,0,0,1-63.4-29.41C531.88,430.79,526.27,417.2,523.33,411.3Z"/>
      <path class="b" d="M592.46,485c12.92,23.1-70.58-8.27-68.13-35.71a30.76,30.76,0,0,0,2.33-4.67l.2-.51a75.53,75.53,0,0,0,63.4,29.41h.45C590.71,478.14,590.86,482.15,592.46,485Z"/>
      <path class="c" d="M524.33,449.3c-.38.4-.77.79-1.15,1.18l-.52-.51c-9.37,4.48-21.2,9.7-35.25,14.86a20,20,0,0,0,2.25-10.5c-.65-9.36-8.44-17.92-19.4-20.84,16.14.67,29.37-11.11,29.71-24.88.3-12.16-9.5-23.53-23.4-26a29.71,29.71,0,0,0,18.85-16A198.33,198.33,0,0,1,523.19,411c0,.1.09.19.14.29,2.94,5.9,8.55,19.49,3.53,32.82l-.2.51A30.76,30.76,0,0,1,524.33,449.3Z"/>
      <path class="d" d="M522.66,450l.52.51a281.09,281.09,0,0,1-51,41.67c-1.29-7.52-7.72-12.84-8.06-13.12,10.73-.59,19.32-6.56,23.24-14.2C501.46,459.67,513.29,454.45,522.66,450Z"/>
      <path class="e" d="M453.06,328.33a196.28,196.28,0,0,1,42.36,38.31,29.71,29.71,0,0,1-18.85,16c13.9,2.48,23.7,13.85,23.4,26-.34,13.77-13.57,25.55-29.71,24.88,11,2.92,18.75,11.48,19.4,20.84a20,20,0,0,1-2.25,10.5,411.84,411.84,0,0,1-53.35,15.61,18.34,18.34,0,0,0,1.34-8.2c-.62-8.89-8-17-18.43-19.79,15.33.63,27.9-10.56,28.22-23.64.29-11.56-9-22.35-22.23-24.71,12.93-3.8,21.25-15.48,20-27.72-1.29-13.09-13.15-23.67-27.69-24.25,14.65-4.65,23.25-18.77,20.23-32.47q-.22-1-.54-2A183.7,183.7,0,0,1,453.06,328.33Z"/>
      <path class="b" d="M435,317.65a180.52,180.52,0,0,0-18.52-8.34l0-.07a47.35,47.35,0,0,1,10.75-17,47.83,47.83,0,0,1,21.5-12.5l0-.11c17.5,4.73,28.67,11,27.22,17.31-4.09,17.95-17.27,27.83-22.95,31.39A183.7,183.7,0,0,0,435,317.65Z"/>
      <path class="c" d="M487.41,464.83c-3.92,7.64-12.51,13.61-23.24,14.2.34.28,6.77,5.6,8.06,13.12a229,229,0,0,1-55,25.52,15,15,0,0,0,1.56-4.31c1.89-9.77-7.23-17.33-7.63-17.65,11-.61,19.66-7.18,22.88-15.27A411.84,411.84,0,0,0,487.41,464.83Z"/>
      <path class="a" d="M448.79,279.63l0,.11a47.83,47.83,0,0,0-21.5,12.5,47.35,47.35,0,0,0-10.75,17l0,.07a173.33,173.33,0,0,0-42.4-10.5A42.73,42.73,0,0,1,386.76,282a43.25,43.25,0,0,1,22.78-9.19A247.51,247.51,0,0,1,448.79,279.63Z"/>
      <path class="f" d="M374.08,298.81a173.33,173.33,0,0,1,42.4,10.5A180.52,180.52,0,0,1,435,317.65q.32,1,.54,2c3,13.7-5.58,27.82-20.23,32.47,14.54.58,26.4,11.16,27.69,24.25,1.21,12.24-7.11,23.92-20,27.72,13.2,2.36,22.52,13.15,22.23,24.71-.32,13.08-12.89,24.27-28.22,23.64,10.41,2.77,17.81,10.9,18.43,19.79a18.34,18.34,0,0,1-1.34,8.2,408,408,0,0,1-61,8.68c5.27-4.74,8.18-11.5,7.48-18.15-.92-8.84-8.15-16.66-18-19,14.34,0,25.64-11.69,25.43-24.76-.17-11.54-9.29-21.93-21.7-23.75a26.5,26.5,0,0,0-9.16-51.55c13.5-5.25,21-19.69,17.64-33.24a28.43,28.43,0,0,0-22.69-20.92A162.77,162.77,0,0,1,374.08,298.81Z"/>
      <path class="e" d="M411.18,495.71c.4.32,9.52,7.88,7.63,17.65a15,15,0,0,1-1.56,4.31,219,219,0,0,1-63.81,9.77c7.11-2.45,12.26-8.22,13.19-14.75,1.38-9.82-7.42-17-7.81-17.3A25,25,0,0,0,373,489.12a408,408,0,0,0,61-8.68C430.84,488.53,422.19,495.1,411.18,495.71Z"/>
      <path class="b" d="M352.08,297.76c-3.57.05-7.16.24-10.75.54-3.18.27-6.32.64-9.42,1.09a50.71,50.71,0,0,1,9.35-14.65,51.33,51.33,0,0,1,17.5-12.5v-.11a289.08,289.08,0,0,1,50.79.67A43.25,43.25,0,0,0,386.76,282a42.73,42.73,0,0,0-12.68,16.82A162.77,162.77,0,0,0,352.08,297.76Z"/>
      <path class="g" d="M331.91,299.39c3.1-.45,6.24-.82,9.42-1.09,3.59-.3,7.18-.49,10.75-.54a28.43,28.43,0,0,1,22.69,20.92c3.35,13.55-4.14,28-17.64,33.24a26.5,26.5,0,0,1,9.16,51.55c12.41,1.82,21.53,12.21,21.7,23.75C388.2,440.29,376.9,452,362.56,452c9.82,2.33,17.05,10.15,18,19,.7,6.65-2.21,13.41-7.48,18.15Q359,490,344,490c-10.91-.07-21.45-.58-31.61-1.44,10.56-17.95,20.06-43.06,18.28-73.9-3.16-54.67-39.48-87.23-49.74-95.49.52-1.3,1.05-2.56,1.61-3.77A158.72,158.72,0,0,1,331.91,299.39Z"/>
      <path class="f" d="M358.82,495.39c.39.31,9.19,7.48,7.81,17.3-.93,6.53-6.08,12.3-13.19,14.75a241.69,241.69,0,0,1-64.84-8.71,137.54,137.54,0,0,0,23.78-30.2c10.16.86,20.7,1.37,31.61,1.44q15,.09,29.06-.85A25,25,0,0,1,358.82,495.39Z"/>
      <path class="a" d="M358.75,272.13v.11a51.33,51.33,0,0,0-17.5,12.5,50.71,50.71,0,0,0-9.35,14.65,158.72,158.72,0,0,0-49.38,16c7.37-16.27,16.94-24.69,24.57-29.43C319.78,278.07,338.42,273.79,358.75,272.13Z"/>
      <path class="a" d="M280.92,319.14c10.26,8.26,46.58,40.82,49.74,95.49,1.78,30.84-7.72,55.95-18.28,73.9a408.92,408.92,0,0,1-131.72-33.9l-.21.14a36.89,36.89,0,0,1-2.12-3.47c-6.46-12.11,30.52-98.22,104.2-135.93C282,316.58,281.44,317.84,280.92,319.14Z"/>
      <path class="b" d="M312.38,488.53a137.54,137.54,0,0,1-23.78,30.2c-54.16-14.75-95.21-44.95-108.15-64l.21-.14A408.92,408.92,0,0,0,312.38,488.53Z"/>
    </g>
    <g>
      <path class="b" d="M420.83,531.5c3.95,12.2-10.09,24-31,11.75-10.16-6-26.94-15.76-32.5-35-5-17.34.88-36.14,6.62-43.52-.77,4-4.42,26.42,11.31,45.71,17.09,21,42.47,20.37,45.25,20.25l.07,0C420.65,530.94,420.74,531.22,420.83,531.5Z"/>
      <path class="a" d="M420.58,530.67l-.07,0c-2.78.12-28.16.72-45.25-20.25-15.73-19.29-12.08-41.69-11.31-45.71,1.64-2.1,3.27-3.28,4.63-3.23,3.76.15,2.29,9.55,10.5,18.5,13.17,14.37,31.5,6.06,39.5,18C424.77,507.26,416.2,515.88,420.58,530.67Z"/>
    </g>
    <path class="h" d="M256.75,422.11A15.07,15.07,0,0,0,241,423.2c-4.12,3-7,8.89-5.41,13.25,1.87,5.12,9.77.28,15.5-.52,4-.55,12.73,1.07,13.13-2.32C264.75,428.82,261.22,424.45,256.75,422.11Z"/>
  </g>
</svg>
