<?xml version="1.0" encoding="UTF-8" standalone="no"?>
<!-- Generator: Adobe Illustrator 19.0.0, SVG Export Plug-In . SVG Version: 6.00 Build 0)  -->

<svg
   xmlns:dc="http://purl.org/dc/elements/1.1/"
   xmlns:cc="http://creativecommons.org/ns#"
   xmlns:rdf="http://www.w3.org/1999/02/22-rdf-syntax-ns#"
   xmlns:svg="http://www.w3.org/2000/svg"
   xmlns="http://www.w3.org/2000/svg"
   xmlns:sodipodi="http://sodipodi.sourceforge.net/DTD/sodipodi-0.dtd"
   xmlns:inkscape="http://www.inkscape.org/namespaces/inkscape"
   version="1.1"
   id="Capa_1"
   x="0px"
   y="0px"
   viewBox="0 0 511.99997 511.99998"
   xml:space="preserve"
   sodipodi:docname="list.svg"
   inkscape:version="0.92.4 (5da689c313, 2019-01-14)"
   width="512"
   height="512"><metadata
   id="metadata57"><rdf:RDF><cc:Work
       rdf:about=""><dc:format>image/svg+xml</dc:format><dc:type
         rdf:resource="http://purl.org/dc/dcmitype/StillImage" /><dc:title></dc:title></cc:Work></rdf:RDF></metadata><defs
   id="defs55" /><sodipodi:namedview
   pagecolor="#ffffff"
   bordercolor="#666666"
   borderopacity="1"
   objecttolerance="10"
   gridtolerance="10"
   guidetolerance="10"
   inkscape:pageopacity="0"
   inkscape:pageshadow="2"
   inkscape:window-width="1920"
   inkscape:window-height="1052"
   id="namedview53"
   showgrid="false"
   inkscape:zoom="1.0754379"
   inkscape:cx="212.80557"
   inkscape:cy="200.28745"
   inkscape:window-x="1920"
   inkscape:window-y="0"
   inkscape:window-maximized="1"
   inkscape:current-layer="Capa_1"
   units="px"
   width="438.88983in" />
<g
   id="g20"
   style="fill:#ffffff"
   transform="matrix(1.1525428,0,0,1.1525428,3.0796744,3.0801515)">
	<g
   id="g18"
   style="fill:#ffffff">
		<g
   id="g16"
   style="fill:#ffffff">
			<path
   d="M 347.968,57.503 H 308.262 V 39.74 c 0,-5.747 -6.269,-8.359 -12.016,-8.359 H 265.422 C 258.108,10.483 239.822,0.034 218.924,0.034 198.256,-0.743 179.457,11.93 172.426,31.381 h -30.302 c -5.747,0 -11.494,2.612 -11.494,8.359 V 57.503 H 90.923 c -23.53,0.251 -42.78,18.813 -43.886,42.318 v 299.363 c 0,22.988 20.898,39.706 43.886,39.706 h 257.045 c 22.988,0 43.886,-16.718 43.886,-39.706 V 99.822 C 390.748,76.316 371.498,57.754 347.968,57.503 Z M 151.527,52.279 h 28.735 c 5.016,-0.612 9.045,-4.428 9.927,-9.404 3.094,-13.474 14.915,-23.146 28.735,-23.51 13.692,0.415 25.335,10.117 28.212,23.51 0.937,5.148 5.232,9.013 10.449,9.404 h 29.78 V 94.075 H 151.527 Z m 219.429,346.906 c 0,11.494 -11.494,18.808 -22.988,18.808 H 90.923 c -11.494,0 -22.988,-7.314 -22.988,-18.808 V 99.822 C 69.001,87.858 78.913,78.621 90.923,78.402 h 39.706 v 26.645 c 0.552,5.854 5.622,10.233 11.494,9.927 h 154.122 c 5.98,0.327 11.209,-3.992 12.016,-9.927 V 78.401 h 39.706 c 12.009,0.22 21.922,9.456 22.988,21.42 v 299.364 z"
   id="path2"
   style="fill:#ffffff"
   inkscape:connector-curvature="0" />
			<path
   d="m 179.217,233.569 c -3.919,-4.131 -10.425,-4.364 -14.629,-0.522 l -33.437,31.869 -14.106,-14.629 c -3.919,-4.131 -10.425,-4.363 -14.629,-0.522 -4.047,4.24 -4.047,10.911 0,15.151 l 21.42,21.943 c 1.854,2.076 4.532,3.224 7.314,3.135 2.756,-0.039 5.385,-1.166 7.314,-3.135 l 40.751,-38.661 c 4.04,-3.706 4.31,-9.986 0.603,-14.025 -0.19,-0.211 -0.391,-0.412 -0.601,-0.604 z"
   id="path4"
   style="fill:#ffffff"
   inkscape:connector-curvature="0" />
			<path
   d="M 329.16,256.034 H 208.997 c -5.771,0 -10.449,4.678 -10.449,10.449 0,5.771 4.678,10.449 10.449,10.449 H 329.16 c 5.771,0 10.449,-4.678 10.449,-10.449 0,-5.771 -4.678,-10.449 -10.449,-10.449 z"
   id="path6"
   style="fill:#ffffff"
   inkscape:connector-curvature="0" />
			<path
   d="m 179.217,149.977 c -3.919,-4.131 -10.425,-4.364 -14.629,-0.522 l -33.437,31.869 -14.106,-14.629 c -3.919,-4.131 -10.425,-4.364 -14.629,-0.522 -4.047,4.24 -4.047,10.911 0,15.151 l 21.42,21.943 c 1.854,2.076 4.532,3.224 7.314,3.135 2.756,-0.039 5.385,-1.166 7.314,-3.135 l 40.751,-38.661 c 4.04,-3.706 4.31,-9.986 0.603,-14.025 -0.19,-0.211 -0.391,-0.412 -0.601,-0.604 z"
   id="path8"
   style="fill:#ffffff"
   inkscape:connector-curvature="0" />
			<path
   d="M 329.16,172.442 H 208.997 c -5.771,0 -10.449,4.678 -10.449,10.449 0,5.771 4.678,10.449 10.449,10.449 H 329.16 c 5.771,0 10.449,-4.678 10.449,-10.449 0,-5.771 -4.678,-10.449 -10.449,-10.449 z"
   id="path10"
   style="fill:#ffffff"
   inkscape:connector-curvature="0" />
			<path
   d="m 179.217,317.16 c -3.919,-4.131 -10.425,-4.363 -14.629,-0.522 l -33.437,31.869 -14.106,-14.629 c -3.919,-4.131 -10.425,-4.363 -14.629,-0.522 -4.047,4.24 -4.047,10.911 0,15.151 l 21.42,21.943 c 1.854,2.076 4.532,3.224 7.314,3.135 2.756,-0.039 5.385,-1.166 7.314,-3.135 l 40.751,-38.661 c 4.04,-3.706 4.31,-9.986 0.603,-14.025 -0.19,-0.21 -0.391,-0.411 -0.601,-0.604 z"
   id="path12"
   style="fill:#ffffff"
   inkscape:connector-curvature="0" />
			<path
   d="M 329.16,339.626 H 208.997 c -5.771,0 -10.449,4.678 -10.449,10.449 0,5.771 4.678,10.449 10.449,10.449 H 329.16 c 5.771,0 10.449,-4.678 10.449,-10.449 0,-5.771 -4.678,-10.449 -10.449,-10.449 z"
   id="path14"
   style="fill:#ffffff"
   inkscape:connector-curvature="0" />
		</g>
	</g>
</g>
<g
   id="g22"
   transform="translate(-47.037,73.109914)">
</g>
<g
   id="g24"
   transform="translate(-47.037,73.109914)">
</g>
<g
   id="g26"
   transform="translate(-47.037,73.109914)">
</g>
<g
   id="g28"
   transform="translate(-47.037,73.109914)">
</g>
<g
   id="g30"
   transform="translate(-47.037,73.109914)">
</g>
<g
   id="g32"
   transform="translate(-47.037,73.109914)">
</g>
<g
   id="g34"
   transform="translate(-47.037,73.109914)">
</g>
<g
   id="g36"
   transform="translate(-47.037,73.109914)">
</g>
<g
   id="g38"
   transform="translate(-47.037,73.109914)">
</g>
<g
   id="g40"
   transform="translate(-47.037,73.109914)">
</g>
<g
   id="g42"
   transform="translate(-47.037,73.109914)">
</g>
<g
   id="g44"
   transform="translate(-47.037,73.109914)">
</g>
<g
   id="g46"
   transform="translate(-47.037,73.109914)">
</g>
<g
   id="g48"
   transform="translate(-47.037,73.109914)">
</g>
<g
   id="g50"
   transform="translate(-47.037,73.109914)">
</g>
</svg>