<svg xmlns="http://www.w3.org/2000/svg" viewBox="0 0 800 800"><defs><style>.a{fill:#d7dbde;}.b{fill:#2e3192;}.c{fill:#fff;}.d{fill:#452f92;}.e{fill:#eff1f2;}.f{fill:#004fa3;}.g{fill:#64378a;}</style></defs><title>icons</title><path class="a" d="M603.19,270.22c.78-3.72,1.52-7.34,2.28-10.82,68.8,127.31,19,270.79-117.39,312.1-117.54,35.6-257.14-42.4-280.79-162.16l.11,0c42.57,216,473.82,235.13,390.35-115.6C599.89,285.78,601.61,277.81,603.19,270.22Z"/><path class="b" d="M567.44,347.67c18.43-36.64,29.43-70.42,38-88.27-.75,3.48-1.49,7.11-2.28,10.82-1.59,7.59-3.31,15.56-5.44,23.5C592.13,314.69,583.68,335.36,567.44,347.67Z"/><path class="b" d="M540,394.22c6.88,13.63,14.78,28.75,14.43,54.17-.38,27.27-14,52.6-37.24,66.9-33.46,20.6-73.74,17.14-98.69-10.56-4-4.44-8.51-9.18-13.43-13.8C468.06,475.76,510.42,436.75,540,394.22Z"/><path class="c" d="M547.9,357a54.24,54.24,0,0,0,19.53-9.36A382.26,382.26,0,0,1,540,394.22c-5.76-11.4-10.8-21.77-9.72-36.25C530.28,359.31,546.3,357.44,547.9,357Z"/><path class="c" d="M536.12,318.66c.37,10.61-16.41,26.45-23.87,31.27-9.65,6.24-15.88,12-23.21,26.69-7.47-7.72-8.56-25.22-2.45-35.66C495.54,325.66,508,315.87,536.12,318.66Z"/><path class="b" d="M389.06,431c6.62-7.91,8.64-19,5-27.49-4.82-11.25-20.68-13.48-31.93-9.75C408.47,364.43,421.34,424.16,389.06,431Z"/><path class="b" d="M345.86,497.66c6.43,2.9,11.93,6.66,9.41,12.6-3.19,7.54-11.68,10.29-20.87,10.52-26.61.68-46.38-20.17-62.83-38.91-44.79-51-68.11-106.8-48.81-193.61-16.08,117,45,201.13,110.58,209.11Q339.71,497.66,345.86,497.66Z"/><path class="c" d="M349.89,463.25c20.2-.36,39.71,13.12,55.19,27.69a249.77,249.77,0,0,1-59.21,6.72c-5.31-2.4-11.28-4.22-13.86-6.22a16.55,16.55,0,0,1-7-12.87C324.47,467.34,340.49,463.41,349.89,463.25Z"/><path class="d" d="M246.91,288.76c21-25.76,41.12,15.43,79.61-21-6.79,16.88-29.52,27.13-47.42,23.08C258.2,286.09,246.91,288.76,246.91,288.76Z"/><path class="d" d="M189.05,264.18a45.34,45.34,0,0,1-21.5-43.28c6.67,52.35,70,30.77,55.22,67.37C219.25,273.12,201.1,271.34,189.05,264.18Z"/><path class="e" d="M207.29,409.34c-7.31-37.07-3.52-78.13,15.48-121.07-19.3,86.81,4,142.56,48.81,193.61,16.45,18.74,36.22,39.59,62.83,38.91,9.2-.24,17.68-3,20.87-10.52,2.52-5.94-3-9.7-9.41-12.6a249.77,249.77,0,0,0,59.21-6.72c4.92,4.62,9.43,9.36,13.43,13.8,25,27.69,65.24,31.15,98.69,10.56,23.21-14.3,36.86-39.64,37.24-66.9.35-25.41-7.55-40.53-14.43-54.17a382.26,382.26,0,0,0,27.43-46.56c16.24-12.31,24.69-33,30.32-53.95C681.22,644.44,250,625.27,207.4,409.32Z"/><path class="f" d="M530.28,358c-1.08,14.48,4,24.85,9.72,36.25-29.59,42.53-71.95,81.54-134.93,96.72-15.48-14.57-35-28.05-55.19-27.69-9.4.16-25.41,4.1-24.84,15.32a16.55,16.55,0,0,0,7,12.87c2.58,2,8.55,3.82,13.86,6.22q-6.15,0-12.52-.28c-65.58-8-126.66-92.09-110.58-209.11,14.77-36.6-48.54-15-55.22-67.37v0a48.9,48.9,0,0,1,2.38-11c2.71-8,7.53-14,15.7-16.08-7.32,6.56-7.34,18.6,2.54,23.93,7.94,4.28,22.45,5.34,30.69,8.79,18.33,7.68,28.63,22.55,17.2,46.7,15.81-32.84,37.4-30.63,53.91-21.38,21.9,12.27,33.41-10.68,32.28-14.85,3.7,3.14,7.24,11.76,6.15,23.09a27.55,27.55,0,0,1-1.87,7.62c-38.49,36.44-58.61-4.75-79.61,21-6.72,7.41-11.38,22.16-11.62,32.81-.56,25.75,3.54,46.51,16.14,66.75C268,415,292.17,431.93,321,442.18c22.22,7.9,43.35,7.81,63-6.46a28.06,28.06,0,0,0,5.07-4.74c32.28-6.83,19.41-66.55-26.94-37.25,18.84-45.83,81.93-41.39,81.93-41.39,13.57-22.23,32.58-50.81,53.41-67.45,25.14-20.08,50.91-34.17,108-25.51-8.6,17.86-19.6,51.63-38,88.27A54.24,54.24,0,0,1,547.9,357C546.3,357.44,530.28,359.31,530.28,358Zm-18-8c7.46-4.82,24.24-20.67,23.87-31.27-28.16-2.79-40.58,7-49.53,22.3-6.11,10.44-5,27.94,2.45,35.66C496.37,361.94,502.6,356.17,512.25,349.93Z"/><path class="d" d="M529.09,584.46l1.33,18.5.05.14a62.11,62.11,0,0,1-12,3c3.36-.48,6.17-3,7.72-6a22.65,22.65,0,0,0,2-9.89,53.8,53.8,0,0,0-.19-5.62l.94-.06h.07Z"/><path class="d" d="M528.08,584.53c-.93-10.66-4.88-21-9.52-30.7-1.54-3.23-3.17-6.44-4.79-9.64-4.12-8.09-8.24-16.18-11.13-24.77-4-12-5.5-25.39-.82-37.14,3.49-8.76,9.34-16,18.58-18.74l8.69,120.92H529Z"/><path class="d" d="M562.78,530.48c2.77,27.52-6.87,58.78-32.37,72.49l-1.33-18.5L520.4,463.54l.15-.05A89.81,89.81,0,0,1,562.78,530.48Z"/><path class="g" d="M530.42,603c25.5-13.71,35.14-45,32.37-72.49a89.81,89.81,0,0,0-42.23-67,31.36,31.36,0,0,1,10.5-1.11c20.29,1.06,32,17.58,36.63,34.85,3.89,14.6,4.66,30.23,3.3,45.23-1.31,14.29-4.29,28.36-13,40.09a58.44,58.44,0,0,1-27.55,20.56Z"/></svg>