<svg xmlns="http://www.w3.org/2000/svg" viewBox="0 0 800 800"><defs><style>.cls-1{isolation:isolate;}.cls-2,.cls-3,.cls-4,.cls-6,.cls-7{fill:#39465b;}.cls-3{mix-blend-mode:screen;}.cls-4,.cls-5,.cls-6,.cls-7{mix-blend-mode:multiply;}.cls-5{fill:#8e8383;}.cls-6{opacity:0.47;}.cls-7{opacity:0.72;}</style></defs><title>Rock 3</title><g class="cls-1"><g id="Layer_1" data-name="Layer 1"><path class="cls-2" d="M750,511l-12.92,18.92L722,552l-59,40s-42,3-54-12-48-13-98-18-81,13-167,23-51,9-87,4-63,0-105-8-61-10-61-10-23-4-36-26c-12.22-20.67-9.42-14,4.23-33q1.32-1.83,2.77-4c16-24,7-5,18-28,2.61-5.47,4.44-9.41,5.82-12.76,3-7.31,3.92-11.84,6.34-23.31.85-4,1.88-8.85,3.26-14.95.48-2.16,1-4.48,1.58-7,2.74-11.88,3.81-18.66,4-23.15h0c.37-10.27-4-8.68-4-28.84,0-10.44,2.59-27.24,6.33-44.78,5.17-24.26,12.54-50,18.26-62.29,1.63-3.51,3.13-5.94,4.41-6.93v-7l74-14,98-17,132-13,98,12,66,4,10.28,3.43L639,236l30,20-3.44,21.2L663,293l3,32,47,28,6.7,18.57,5.08,14.08L735,414s5.29,11.89,10.3,26.91c1.51,4.53,3,9.34,4.31,14.19.9,3.3,1.71,6.63,2.39,9.9C757,489,750,511,750,511Z"/><path class="cls-3" d="M499.31,410.82s0,8.18,2.61,10.91a50.8,50.8,0,0,0,6.53,5.45s6.53,4.09,7.84,4.09,7.84,2.73,9.15,2.73H538.5c1.31,0,6.53-4.09,6.53-4.09l-19.59,1.36-17-6.81Z"/><path class="cls-4" d="M503.23,406.73c11.75-10.9,31.35-6.81,32.66,0s5.22,25.91,10.45,24.54-22.21,0-22.21,0l-17-6.81L498,410.82Z"/><path class="cls-3" d="M268.84,338.94s11.6,9.55-9.66,16.72S236,338.94,236,338.94s11.59,33.44,32.84,0Z"/><ellipse class="cls-4" cx="252.42" cy="340.14" rx="16.42" ry="13.14"/><path class="cls-3" d="M678.9,480s7.72,6.37-6.44,11.15S657,480,657,480s7.73,22.29,21.9,0Z"/><ellipse class="cls-4" cx="667.95" cy="480.76" rx="10.95" ry="8.76"/><path class="cls-3" d="M597.9,333s7.72,6.37-6.44,11.15S576,333,576,333s7.73,22.29,21.9,0Z"/><ellipse class="cls-4" cx="586.95" cy="333.76" rx="10.95" ry="8.76"/><path class="cls-5" d="M404.72,483.83,401,483S405.73,481.36,404.72,483.83Z"/><path class="cls-5" d="M737.08,529.92,722,552l-59,40s-42,3-54-12-48-13-98-18-81,13-167,23-51,9-87,4-63,0-105-8-61-10-61-10-23-4-36-26c-12.22-20.67-9.42-14,4.23-33H83c69,0,117-17,150,0s46,26,46,26-12,18,20,8-38,40,45-16c47.61-32.12,59.36-42.86,60.72-46.17L459,496l14,16s8-9,31,0,33,14,54,9,56-27,56-27l58,24,46,11Z"/><path class="cls-3" d="M669,256l-3.44,21.2L628,266l-48-6-47-4-31-1-31-5-26-3-29,18-42,13-33-7-62,7-33,31-26,14-47-4-45-10-24.66,16.22h0C110,294,120.24,260.48,126,256v-7l74-14,98-17,132-13,98,12,66,4,45,15Z"/><path class="cls-6" d="M719.7,371.57,714,371l-29,2-41,4-61-4-55-5-41,1-38,3-63,15s-26,14-38,0-31-5-31-5l-38-1L101,398.84h0c-.16,4.49-1.23,11.27-4,23.15-.58,2.5-1.1,4.82-1.58,7l5.58-7c16,3,38-9,38-9l59-4,68-10h32l14-6,18,19,27,2,33-2,88-18,89-1s6,13,31,11,80-12,80-12l30-2,16.78-4.35Z"/><path class="cls-6" d="M749.61,455.1c-35.91.4-146.8,2.07-187.61,7.9-49,7-102,7-102,7l-42-7H369l-50,5s-38,17-66,16-39,0-66-2-17-8-59-11c-38.07-2.72-27.66-2.15-25.39-2-1.75-.15-9.07-.8-16.79-1.73,3-7.31,3.92-11.84,6.34-23.31L111,449l101,6,33,8,34-3,48-5,38-10,54-6h41l41,9s50,0,79,7c8.12,2,26.18,1.49,48-.2,38.95-3,89.82-9.94,117.32-13.89C746.81,445.44,748.3,450.25,749.61,455.1Z"/><path class="cls-7" d="M604.28,224.43c-8.32,1.92-11.85,1.2-21.28,4.57-14,5-22-2-37,5s-31-1-31-1l-23-9-47-13-35,3-41,10s-32,4-56,2-48,13-48,13l-53,26s-34,4-47,0c-7.57-2.33-28-2.62-43.41-2.07,1.63-3.51,3.13-5.94,4.41-6.93v-7l74-14,98-17,132-13,98,12,66,4Z"/></g></g></svg>