<svg xmlns="http://www.w3.org/2000/svg" viewBox="0 0 800 800"><defs><style>.cls-1{isolation:isolate;}.cls-2,.cls-3,.cls-4,.cls-5,.cls-6,.cls-7{fill:#39465b;}.cls-3,.cls-6{mix-blend-mode:screen;}.cls-4{opacity:0.78;}.cls-4,.cls-5,.cls-7{mix-blend-mode:multiply;}.cls-5{opacity:0.63;}.cls-6,.cls-7{opacity:0.51;}</style></defs><title>Rock 2</title><g class="cls-1"><g id="Layer_1" data-name="Layer 1"><path class="cls-2" d="M591,466l-13,63-56,72-61,66s-29,48-38,66-81,25-81,25l-58-21-50-63L214.93,549.66,209,511l3.54-45.61L218.38,390l.62-8,7.69-79,2.59-26.66L230,269l12.55-72.16L246,177l16.4-44.18L282,80l32-26,48-12c17.31,4.62,83.58,14.23,138.26,22.11,31.07,4.48,58.39,8.4,70.88,10.52A68,68,0,0,1,578,76c9,3-3,101-3,101l-21.79,53.34-5,12.22L546,248a122.09,122.09,0,0,0-18.33-3.14c-8.73-.79-18.8-.59-25.93,2.91-10.46,5.15-14.57,17.44,1.26,44.23q9.63,16.29,17.77,30.18c8.66,14.76,16.05,27.43,22.1,37.87C556.1,382.85,563,395,563,395l17,43.14Z"/></g><g id="Layer_3" data-name="Layer 3"><path class="cls-3" d="M572.43,74.63c-10.61,10-14.14,28.37-14.14,28.37s-17,2-30,0-45-42-50,5-36,6-36,6-30,11-51,2-63,11-63,11l-33,26-24,17-27.45,26.84L247.29,177l16.4-44.18L283.29,80l32-26,48-12c17.31,4.62,83.58,14.23,138.26,22.11C532.62,68.59,559.94,72.51,572.43,74.63Z"/><path class="cls-3" d="M501.55,64.11,448.29,70s-60,2-69,3-72,43-72,43l-43.6,16.82L283.29,80l32-26,48-12C380.6,46.62,446.87,56.23,501.55,64.11Z"/></g><g id="Layer_2" data-name="Layer 2"><path class="cls-4" d="M589.23,466.51l-13,63-56,72-61,66s-29,48-38,66-81,25-81,25l-58-21-50-63L213.16,550.17a449.85,449.85,0,0,1,43.07,16.34l38,60,51,24s39,2,53-20,41-41,50-64,12-36,36-57,15-31,60-50c13.94-5.89,24.82-13.79,34-20.86Z"/><path class="cls-5" d="M551.44,230.85l-17.21-9.34s-87,12-93,14-59-12-59-12l-96,34a315.24,315.24,0,0,1-58.72,19.38l-2.59,26.66,97.31-10,51-9,71-17,27-16L500,248.28l25.93-2.91,20.55-2.3Z"/><path class="cls-5" d="M541.1,360.56l-80.87,14.95-79,25-78,52L213.16,467.1l-2.39-1.2,5.84-75.36,32.62,10h46l87-20,86-39L519,322.69C527.66,337.45,535.05,350.12,541.1,360.56Z"/><path class="cls-3" d="M352.76,290.5l13.23.6s13-2,17-3,15-6,15-6l7.13-2.93-50.48,11-1.88.33"/><path class="cls-3" d="M358.82,417.22C360,417.1,376,412.1,378,411.1a76.32,76.32,0,0,0,11-8c2-2,2-4,8-4s12-2,17-3,9.64-6.81,9.64-6.81L380,403.1l-21,16-.17-1.88"/><polyline class="cls-3" points="263.69 461.31 296.99 467.1 324.99 446.1 334.41 433.49 301.99 455.1 263.69 461.31"/></g><g id="Layer_4" data-name="Layer 4"><path class="cls-6" d="M367.48,587.25s-10.42,10.74,0,13,11-2.77,11-2.77"/><ellipse class="cls-7" cx="374.78" cy="589.93" rx="7.3" ry="8.82"/><path class="cls-6" d="M438.07,284.11s0,6,2,8a39.08,39.08,0,0,0,5,4s5,3,6,3,6,2,7,2h10c1,0,5-3,5-3l-15,1-13-5Z"/><path class="cls-7" d="M441.07,281.11c9-8,24-5,25,0s4,19,8,18-17,0-17,0l-13-5-7-10Z"/><path class="cls-6" d="M512,422.07s7.73,6.37-6.44,11.15-15.46-11.15-15.46-11.15,7.73,22.29,21.9,0Z"/><ellipse class="cls-7" cx="501.02" cy="422.87" rx="10.95" ry="8.76"/><path class="cls-6" d="M279.09,339.07s11,6.37-9.12,11.15-21.9-11.15-21.9-11.15,10.95,22.29,31,0Z"/><ellipse class="cls-7" cx="263.58" cy="339.87" rx="15.51" ry="8.76"/><path class="cls-6" d="M468,201.07s7.73,6.37-6.44,11.15-15.46-11.15-15.46-11.15,7.73,22.29,21.9,0Z"/><ellipse class="cls-7" cx="457.02" cy="201.87" rx="10.95" ry="8.76"/><path class="cls-6" d="M365.53,137.07s9.34,6.37-7.78,11.15-18.68-11.15-18.68-11.15,9.34,22.29,26.46,0Z"/><ellipse class="cls-7" cx="352.3" cy="137.87" rx="13.23" ry="8.76"/></g></g></svg>