<svg xmlns="http://www.w3.org/2000/svg" viewBox="0 0 800 600"><defs><style>.cls-1{isolation:isolate;}.cls-2,.cls-3,.cls-4,.cls-8,.cls-9{fill:#39465b;}.cls-2,.cls-6{mix-blend-mode:screen;}.cls-4{opacity:0.72;}.cls-10,.cls-11,.cls-4,.cls-5,.cls-7,.cls-8,.cls-9{mix-blend-mode:multiply;}.cls-11,.cls-5{fill:#8e8383;}.cls-5{opacity:0.53;}.cls-10,.cls-6,.cls-7{fill:#223456;}.cls-10,.cls-9{opacity:0.65;}</style></defs><title>Artboard 1</title><g class="cls-1"><g id="Layer_1" data-name="Layer 1"><path class="cls-2" d="M484,226l16,11s10,2,11,2,11,1,11,1l-9,3-14-1-13-8-2-8Z"/><path class="cls-3" d="M792.29,366.34c-2.66,7.14-7.12,15.09-13.79,24.16C764,410.15,751.06,425.63,738.79,438c-.72.74-1.44,1.47-2.16,2.17-31.71,31.32-58.87,42.08-95.13,51.32-51,13-64,4-180-22s-79-66-145-57-67-7-122-28-104-20-104-20S1,364.5,10.82,322.06c0-.24.11-.48.17-.72,4.56-17.86,26.52-43.12,79.51-78.84,26.36-17.78,45.7-33.72,60.06-47.94q4-4,7.54-7.8c15.6-16.88,24.1-31.14,29.4-43l.27-.61a201.78,201.78,0,0,0,7.77-21.66c2.11-6.54,4-11.7,7.58-15.56a.08.08,0,0,1,0,0c9.39-10.14,30.27-11.36,96.34-5.42,178,16,85-6,190,25,92.54,27.32,199.84,29,232.9,84.48a69.33,69.33,0,0,1,7.39,17.53,75.74,75.74,0,0,1,1.71,8A107.85,107.85,0,0,0,745,273.31c11.17,19.21,26.27,32.55,37,45.77C793.2,332.82,799.71,346.42,792.29,366.34Z"/><path class="cls-4" d="M791.29,367.34c-2.66,7.14-7.12,15.09-13.79,24.16-53,72-86,88-137,101s-64,4-180-22-79-66-145-57-67-7-122-28-104-20-104-20S-1,365.5,10,322.34c21-7.7,45.72,15.49,90-1.34,50-19,8-7,64,26s23,27,58,31,116-17,116-17,8,13,37,15,106,2,106,2,46,32,58,40,125-26,125-26Z"/><path class="cls-2" d="M728.79,228.51,705,235s-116-64-127-61-44,27-44,27l-52-15s-45-53-60-40-46,32-46,32l-68-19-93-30-27.5,14.79-.73.39c3.91-8.85,6-16.33,8-22.52,2.19-6.71,4.25-11.91,8.3-15.7a.08.08,0,0,1,0,0c9.86-9.21,31.51-10.16,95.34-4.42,178,16,85-6,190,25,92,27.15,198.5,29,232.27,83.44A69.33,69.33,0,0,1,728.79,228.51Z"/><path class="cls-5" d="M149.56,190.56,170,211l200,64,55-1,151,33,93-8,112,16.08c-10.76-13.22-25.86-26.56-37-45.77-12.12,1.49-22,.9-27-3.31-20-17-102,27-102,27L463,255l-113,4-82-46s-72.52-19-110.9-30.24Z"/><path class="cls-5" d="M794.39,343.8c-36.6,2.64-89.24,6.2-92.39,6.2H422l-73-31L223,293l-77-21-39.53-42s-1-.6-2.5-1.58l19.8-15h0L187,261l83,22,82,24s52,1,56,14,87,20,91,20,76-14,76-14,31-3,46,7,122,0,122,0,26.81,2.41,50.62,4.39h0Z"/><path class="cls-2" d="M246,241l35,26s21,6,34,0,23,3,23,3Z"/><path class="cls-2" d="M722.4,210c-.43,0-1,0-1.63,0C708.94,209.57,663,206.79,637,186c-30-24-50-33-50-33s-85,5-99-9-58-15-58-15L318,139l-61-30-61.46,12.52-.72.14c2.19-6.71,4.25-11.91,8.3-15.7a.08.08,0,0,1,0,0c9.39-10.14,30.27-11.36,96.34-5.42,178,16,85-6,190,25C582,152.82,689.34,154.51,722.4,210Z"/><path class="cls-6" d="M653.41,364.14s-10.42,10.74,0,13,11-2.77,11-2.77"/><ellipse class="cls-7" cx="660.7" cy="366.82" rx="7.3" ry="8.82"/><path class="cls-2" d="M501,314s-5,14,0,17,5.28-3.61,5.28-3.61Z"/><ellipse class="cls-8" cx="504.5" cy="317.5" rx="3.5" ry="11.5"/><path class="cls-2" d="M224.46,252s9.34,6.37-7.78,11.15S198,252,198,252s9.34,22.29,26.46,0Z"/><ellipse class="cls-9" cx="211.23" cy="252.76" rx="13.23" ry="8.76"/><path class="cls-6" d="M639.46,218s9.34,6.37-7.78,11.15S613,218,613,218s9.34,22.29,26.46,0Z"/><ellipse class="cls-10" cx="626.23" cy="218.76" rx="13.23" ry="8.76"/><path class="cls-2" d="M281,191s-6,4,5,7,12-7,12-7-6,14-17,0Z"/><ellipse class="cls-9" cx="289.5" cy="191.5" rx="8.5" ry="5.5"/><path class="cls-2" d="M484,228s0,6,2,8a39.08,39.08,0,0,0,5,4s5,3,6,3,6,2,7,2h10c1,0,5-3,5-3l-15,1-13-5Z"/><path class="cls-6" d="M587,311s34,11,42,5,35-5,35-5l23-7Z"/><path class="cls-2" d="M271,308s14,17,26,16,41-4,41-4Z"/><path class="cls-11" d="M487,223c9-8,24-5,25,0s4,19,8,18-17,0-17,0l-13-5-7-10Z"/></g></g></svg>