<svg xmlns="http://www.w3.org/2000/svg" viewBox="0 0 800 800"><defs><style>.a{fill:#89c6e0;}.b{fill:#ebf5ee;}.c{fill:#fff;}.d{fill:#f5938f;}.e{fill:#f05663;}.f{fill:#d1eced;}.g{fill:#f37a7a;}.h{fill:#a5ddea;}.i{fill:#594a42;}</style></defs><title>icons</title><path class="a" d="M317.48,221.77c-47.79-43.12-101.6-7.06-101.92-4.18-.13,1.2,7.6,1.68,13.48,7.44,16.89,16.52-12.52,93.16-18.49,119-8.34,36.07,8.56,82.06,22.3,84.11C245.74,430,269.53,395.29,317.48,221.77Z"/><path class="b" d="M659.08,502.22c3.2,1.59,6.81,3.68,7.81,7-25-.78-49.14-6.67-60.12-17.72a15.59,15.59,0,0,1-3-4.6A170.7,170.7,0,0,0,616.88,470a66.57,66.57,0,0,0,4,5.32C631,487.37,645.07,495.26,659.08,502.22Z"/><path class="c" d="M605.42,434.15A67.22,67.22,0,0,0,616.88,470a170.7,170.7,0,0,1-13.08,16.86C599.06,476.16,598.89,454.4,605.42,434.15Z"/><path class="d" d="M333.14,307C230,523.76,415.92,588.75,500.39,586q-4,1.34-8.07,2.49s0,0,0,0c-79.78,10.52-305.58-55-164.56-306.86A104.51,104.51,0,0,0,333.14,307Z"/><path class="e" d="M492.27,588.45c-31.56,9-65.37,9.88-98.45,3.08-46.57-9.57-98-33.63-126.25-74.11-66.85-95.75-45.46-246.2,87.84-321.35-21.35,25.2-30.27,56.48-27.7,85.52C186.69,533.42,412.49,599,492.27,588.45Z"/><path class="b" d="M427.4,412.92a82.83,82.83,0,0,0,2.5,43.51c9,27.76,31.62,51.46,59.56,58.84,15.35,4.06,31.7,2.74,47-1.47,12.22-3.36,24.31-8.78,32.92-18.21,16.1-17.64,17.61-46.35,36-61.44-6.53,20.26-6.37,42-1.63,52.71C579.18,515,539.39,544,499.28,540.37c-62-5.54-84.87-69.83-72.8-125.85C426.77,414,427.09,413.46,427.4,412.92Z"/><path class="f" d="M534.76,570.63c-8.95,3.15-54.61,17.36-90.41-8.51-38.52-27.85-49.19-92.66-17.88-147.59-12.07,56,10.78,120.3,72.8,125.85C539.39,544,579.18,515,603.8,486.86a15.59,15.59,0,0,0,3,4.6c11,11,35.14,16.94,60.12,17.72a5.92,5.92,0,0,1,.27,1.3c.45,4.88-4.75,8.11-9.26,9.85a131.21,131.21,0,0,1-51.62,8.7c-7.54-.26-17.13-2-23.62,2.41-5.83,3.93-10.67,11.36-16,16.13a186.45,186.45,0,0,1-31.87,23Z"/><path class="g" d="M426.47,414.53c-31.31,54.93-20.64,119.74,17.88,147.59,35.79,25.87,81.46,11.66,90.41,8.51A186.82,186.82,0,0,1,500.39,586c-84.47,2.79-270.42-62.2-167.24-279a93.87,93.87,0,0,0,18,31.18c24.54,27.9,72.05,35.23,103.64,28.57-9.66,15.29-23.32,27.94-27.42,46.2C427.09,413.46,426.77,414,426.47,414.53Z"/><path class="b" d="M523.29,188.23a77.52,77.52,0,0,1,7.27,7.83c-74-23.07-109.44,91-206.19,52.38,9.56-31.93,31.17-56.09,36.82-58.26C428.81,164.31,497.46,164.55,523.29,188.23Z"/><path class="h" d="M491.9,325.29c-.64,0-5.55,4.87-6.83,5.75a54.19,54.19,0,0,1-8.23,4.64A77.11,77.11,0,0,1,461,340.95c-26.18,5.73-57.74,0-80.34-14.7a44,44,0,0,1-19.29-28.12c-.69-3.38-1.65-8.8,1-11.64,0,0,12.91,8.22,28.89,7-1.78.13,3.36,10.46,3.88,11.18a34.18,34.18,0,0,0,9.91,8.88l1.13.67C431.81,328.91,463.62,327.09,491.9,325.29Z"/><path class="f" d="M491.9,325.29c-20.38,25.28-30.56,37.92-37.09,41.43-33.4,18-88.55,2.52-117.31-35.82-20.76-27.67-20.64-57.44-13.13-82.46C421.12,287,456.61,173,530.56,196.07c5.57,6.81,10.76,15,12.51,21-28.65-3.09-45.38,4.07-55.32,11.11-20.11,14.22-21.65,34.36-43.34,45.8-14.56,7.68-29.87,7-40.07,5.48,31.84,20.73,52.79,17.41,67.81,16.83,31-1.2,53-35.92,54.45-32.59,1.91,4.4,0,18.61-34.7,61.61-28.28,1.8-60.09,3.62-85.74-11l-1.13-.67a34.18,34.18,0,0,1-9.91-8.88c-.52-.72-5.66-11-3.88-11.18-16,1.17-28.89-7-28.89-7-2.64,2.84-1.68,8.26-1,11.64a44,44,0,0,0,19.29,28.12c22.6,14.74,54.16,20.43,80.34,14.7a77.11,77.11,0,0,0,15.85-5.26,54.19,54.19,0,0,0,8.23-4.64C486.36,330.17,491.27,325.34,491.9,325.29Z"/><path class="a" d="M539.19,228.55c-12.62,8.65-16.74-5.25-38.72,4.6C470,246.79,474.9,271.9,441.52,282.47c-7.67,2.43-19.82,3.71-37.18-3,10.21,1.55,25.51,2.2,40.07-5.48,21.69-11.44,23.23-31.58,43.34-45.8,9.94-7,26.66-14.2,55.32-11.11.69,2.37.84,4.39.25,5.81A15.61,15.61,0,0,1,539.19,228.55Z"/><path class="i" d="M412.91,259.34a5.14,5.14,0,0,1-.47,1.89c-9-1-17.44,1.43-23.35,6.25-4.31-2.81-5-8.72-2.52-13.46a16.18,16.18,0,0,1,13.9-8.49,4.79,4.79,0,0,1,1.14.09,10.88,10.88,0,0,1,3,.51C409.83,247.89,413,253.92,412.91,259.34Z"/><path class="f" d="M356.24,528.52c3.61,2.13,6.72,4.7,5.92,6.51-7.12,16.35-23.59,28.18-23.3,54,.15,13.61,8.22,23.34,5,25.65-3,2.13-11.71-4.87-16.56-9.79-7.52-7.61-8.83-13.34-12.23-19l.86-.54c-9.82-28.21,32.37-55.65,39.42-57.33Z"/><path class="h" d="M347.32,524.66c1.11,0,4.66,1.47,8,3.35-7.05,1.68-49.25,29.12-39.42,57.33l-.86.54a30.68,30.68,0,0,0-6.63-7.82c-8.25-7.13-12.54-5-14.66-9.95-2.8-6.46,6.75-21.89,20.61-30.53,10.21-6.36,17.28-7.39,24.08-9.19C344.53,526.76,343.64,524.52,347.32,524.66Z"/><path class="f" d="M437.33,572.77c21,17.56,25,49.47,22.49,50.73-1.09.54-2.73-5.23-8.67-10.38-5.52-4.78-11.55-7-17.8-8.67h0c-23.22-8.22-35.32-43.66-22.75-45.69C420,563.72,428.16,565.1,437.33,572.77Z"/><path class="h" d="M433.34,604.45c-12.27-3.19-25.4-3.93-37.27-16.58-7.51-8-13.11-22.4-14.07-57.54a83.53,83.53,0,0,0,14.07,17.81,62.53,62.53,0,0,0,14.53,10.62C398,560.79,410.12,596.23,433.34,604.45Z"/><path class="f" d="M320.89,326.5c2.94,6.38,4.6,13.22,1.87,13.5-24,2.52-34.52,50.79-61,48.44-14.78-1.32-17.18-18.69-30.8-25.8Z"/><path class="f" d="M321.12,326.41l-.23.09,0-.11Z"/><path class="f" d="M320.85,326.4l0,.11L231,362.65l-.16-.08c6.7-7,16.87-16.91,31-24A116.69,116.69,0,0,1,320.85,326.4Z"/><path class="h" d="M320.85,326.4a116.69,116.69,0,0,0-59,12.14c-14.09,7.12-24.26,17.07-31,24-4.14-2.14-9.32-3.31-16.16-2.82-14.15,1-18.24,12.56-21.65,9.62-2.95-2.54,3.39-14.06,5.49-17.91,10-18.35,63.28-46.82,117-33.76A38.14,38.14,0,0,1,320.85,326.4Z"/><path class="f" d="M231,362.65l-.4.16c.08-.08.15-.16.24-.25Z"/></svg>