<svg xmlns="http://www.w3.org/2000/svg" viewBox="0 0 800 800"><defs><style>.cls-1{isolation:isolate;}.cls-2{fill:#fc3;}.cls-3{fill:#603e25;}.cls-4{fill:#8e5b39;}.cls-5{fill:#492f1d;}.cls-6,.cls-8{fill:#754930;}.cls-7{fill:#f9b919;}.cls-8{mix-blend-mode:screen;}.cls-9{fill:#e0a41e;}.cls-10{fill:#ffc278;}.cls-11{fill:#665b56;mix-blend-mode:multiply;}.cls-12{fill:#ff6339;}.cls-13{fill:#d89d19;}</style></defs><title>Treasure Chest</title><g class="cls-1"><g id="Layer_1" data-name="Layer 1"><path class="cls-2" d="M341,323v37H289V334.27A52.24,52.24,0,0,1,321.5,323Z"/><rect class="cls-2" x="269" y="372" width="105" height="105"/><path class="cls-2" d="M374,375.5c0,1.52-.06,3-.19,4.5A52.5,52.5,0,0,1,297,421.93a51.74,51.74,0,0,1-8-5.2,52.42,52.42,0,0,1-20-41.23c0-1.18,0-2.34.12-3.5a52.5,52.5,0,0,1,104.76,0C374,373.16,374,374.32,374,375.5Z"/><rect class="cls-3" x="289" y="372" width="105" height="105"/><circle class="cls-3" cx="341.5" cy="375.5" r="52.5"/><rect class="cls-4" x="297" y="380" width="89" height="89" transform="translate(766 83) rotate(90)"/><circle class="cls-4" cx="341.5" cy="375.5" r="44.5"/><path class="cls-2" d="M407,323v37H355V334.27A52.24,52.24,0,0,1,387.5,323Z"/><rect class="cls-2" x="335" y="372" width="105" height="105"/><path class="cls-2" d="M440,375.5c0,1.52-.06,3-.19,4.5A52.5,52.5,0,0,1,363,421.93a51.74,51.74,0,0,1-8-5.2,52.42,52.42,0,0,1-20-41.23c0-1.18,0-2.34.12-3.5a52.5,52.5,0,0,1,104.76,0C440,373.16,440,374.32,440,375.5Z"/><rect class="cls-3" x="355" y="372" width="105" height="105"/><circle class="cls-3" cx="407.5" cy="375.5" r="52.5"/><rect class="cls-4" x="363" y="380" width="89" height="89" transform="translate(832 17) rotate(90)"/><circle class="cls-4" cx="407.5" cy="375.5" r="44.5"/><path class="cls-2" d="M478,323v37H426V334.27A52.24,52.24,0,0,1,458.5,323Z"/><rect class="cls-2" x="406" y="372" width="105" height="105"/><path class="cls-2" d="M511,375.5c0,1.52-.06,3-.19,4.5A52.5,52.5,0,0,1,434,421.93a51.74,51.74,0,0,1-8-5.2,52.42,52.42,0,0,1-20-41.23c0-1.18,0-2.34.12-3.5a52.5,52.5,0,0,1,104.76,0C511,373.16,511,374.32,511,375.5Z"/><rect class="cls-5" x="426" y="372" width="105" height="105"/><circle class="cls-5" cx="478.5" cy="375.5" r="52.5"/><rect class="cls-6" x="434" y="380" width="89" height="89" transform="translate(903 -54) rotate(90)"/><circle class="cls-6" cx="478.5" cy="375.5" r="44.5"/><rect class="cls-7" x="269" y="372" width="157" height="22" rx="7" ry="7"/><rect class="cls-7" x="269" y="455" width="168" height="22" rx="7" ry="7"/><polygon class="cls-8" points="512 404.76 512 469 523 469 523 380 522.77 380 512 380 511.77 380 512 404.76"/><path class="cls-8" d="M512,394c5.92-6.76,9.82-4.57,10.77-14a44.48,44.48,0,0,0-44.27-49,43.43,43.43,0,0,0-5.5.34A44.48,44.48,0,0,1,511.77,380Z"/><path class="cls-9" d="M423.67,372H524a7,7,0,0,1,7,7v8a7,7,0,0,1-7,7H423.67a4.67,4.67,0,0,1-4.67-4.67V376.67A4.67,4.67,0,0,1,423.67,372Z"/><path class="cls-10" d="M360.54,369l-3.46,7.15h.1l-9.24,19.09,3.46,7.15L367.57,369Zm-7.84,0H320.51l23,47.6,3.45-7.12L332,378.39h0l-1.08-2.23h18.35Z"/><rect class="cls-11" x="434" y="394" width="78" height="16"/><rect class="cls-11" x="363" y="394" width="43" height="16"/><rect class="cls-11" x="297" y="394" width="38" height="16"/><path class="cls-12" d="M358.5,369,355,376.15h.1l-9.24,19.09,3.46,7.15L365.52,369Zm-7.84,0h-32.2l23.05,47.6,3.44-7.12-15-31.09h0l-1.08-2.23H347.2Z"/><rect class="cls-13" x="426" y="455" width="105" height="22" rx="6" ry="6"/></g></g></svg>