<svg xmlns="http://www.w3.org/2000/svg" viewBox="0 0 800 800">
  <defs>
    <style>
      .a {
        fill: #ffd1f3;
      }

      .b {
        fill: #6a42b3;
      }

      .c {
        fill: #44338e;
      }

      .d {
        fill: #974cba;
      }

      .e {
        fill: #ed82d4;
      }

      .f {
        fill: #7e34a1;
      }

      .g {
        fill: #f29bde;
      }

      .h {
        fill: #a763c7;
      }

      .i {
        fill: #9552b5;
      }

      .j {
        fill: #f0afe1;
      }

      .k {
        fill: #c287de;
      }

      .l {
        fill: #a970c4;
      }

      .m {
        fill: #ffd6f2;
      }

      .n {
        fill: #f0b4dd;
      }

      .o {
        fill: #fff;
      }
    </style>
  </defs>
  <title>fishy</title>
  <g>
    <g>
      <path class="a" d="M501.11,450.83c5.22-13.87-1.05-28-3.86-33.49l.33-2.21q102-74.75,112-64,9.33,10.05-62,95C562,465.87,584,499.6,576.08,499.79c-47.83,1.17-77.5-42.66-77.5-42.66l-.59.6-1.08-1,1.67-.67a30.76,30.76,0,0,0,2.33-4.67Z"/>
      <path class="b" d="M501.11,450.83l-.2.51a30.76,30.76,0,0,1-2.33,4.67l-1.67.67c-9.36,4.48-21.19,9.7-35.24,14.86a20,20,0,0,0,2.25-10.5c-.66-9.36-8.45-17.92-19.41-20.84,16.15.66,29.37-11.11,29.71-24.88.3-12.16-9.5-23.53-23.4-26a29.54,29.54,0,0,0,19.51-17.54,188.53,188.53,0,0,1,27.25,43.36l-.33,2.21C500.06,422.82,506.33,437,501.11,450.83Z"/>
      <path class="c" d="M496.91,456.68l1.08,1a281.49,281.49,0,0,1-51.36,42.16c-.85-8.07-7.85-13.87-8.21-14.15,10.73-.6,19.33-6.57,23.25-14.2C475.72,466.38,487.55,461.16,496.91,456.68Z"/>
      <path class="d" d="M428.12,334.52a186.67,186.67,0,0,1,42.21,37.25,29.54,29.54,0,0,1-19.51,17.54c13.9,2.48,23.7,13.85,23.4,26-.34,13.77-13.56,25.54-29.71,24.88,11,2.92,18.75,11.48,19.41,20.84a20,20,0,0,1-2.25,10.5,412,412,0,0,1-53.36,15.61,18.34,18.34,0,0,0,1.34-8.2c-.62-8.89-8-17-18.43-19.79,15.34.63,27.9-10.56,28.22-23.64.29-11.56-9-22.35-22.22-24.71,12.93-3.8,21.24-15.48,20-27.72C416,370,404.1,359.42,389.56,358.83c14.66-4.64,23.26-18.76,20.23-32.46a24.53,24.53,0,0,0-.71-2.58A183.76,183.76,0,0,1,428.12,334.52Z"/>
      <path class="e" d="M409.08,323.79A183.35,183.35,0,0,0,390.72,316l0-.1a47.27,47.27,0,0,1,10.75-17,47.83,47.83,0,0,1,21.5-12.5l0-.11c17.5,4.73,28.68,11,27.23,17.31-3.91,17.15-16.12,26.93-22.15,30.87A183.76,183.76,0,0,0,409.08,323.79Z"/>
      <path class="f" d="M461.67,471.54c-3.92,7.63-12.52,13.6-23.25,14.2.36.28,7.36,6.08,8.21,14.15a228.93,228.93,0,0,1-56,25.88,15.43,15.43,0,0,0,2.41-5.71c1.89-9.76-7.23-17.32-7.62-17.64,11-.61,19.65-7.18,22.87-15.27A412,412,0,0,0,461.67,471.54Z"/>
      <path class="g" d="M423,286.34l0,.11a47.83,47.83,0,0,0-21.5,12.5,47.27,47.27,0,0,0-10.75,17l0,.1a178.94,178.94,0,0,0-42.53-9.65l.07-.7a42.65,42.65,0,0,1,35.53-26.19A247.51,247.51,0,0,1,423,286.34Z"/>
      <path class="h" d="M397.22,410.81c13.2,2.36,22.51,13.15,22.22,24.71-.32,13.08-12.88,24.27-28.22,23.64,10.41,2.77,17.81,10.9,18.43,19.79a18.34,18.34,0,0,1-1.34,8.2,406.7,406.7,0,0,1-61,8.68c5.27-4.74,8.18-11.5,7.48-18.15-.92-8.84-8.14-16.66-18-19,14.34,0,25.64-11.69,25.44-24.76-.18-11.54-9.3-21.94-21.71-23.75a26.5,26.5,0,0,0-9.16-51.55c13.51-5.25,21-19.69,17.64-33.24A28.31,28.31,0,0,0,330.4,305.5a175.28,175.28,0,0,1,17.79.9A178.94,178.94,0,0,1,390.72,316a183.35,183.35,0,0,1,18.36,7.74,24.53,24.53,0,0,1,.71,2.58c3,13.7-5.57,27.82-20.23,32.46,14.54.59,26.4,11.17,27.69,24.26C418.46,395.33,410.15,407,397.22,410.81Z"/>
      <path class="i" d="M385.44,502.42c.39.32,9.51,7.88,7.62,17.64a15.43,15.43,0,0,1-2.41,5.71,219.63,219.63,0,0,1-67.76,9.47c9.51-1.12,16.87-7.91,18-15.84,1.38-9.82-7.42-17-7.8-17.3a25,25,0,0,0,14.22-6.27,406.7,406.7,0,0,0,61-8.68C405.09,495.24,396.44,501.81,385.44,502.42Z"/>
      <path class="j" d="M330.4,305.5q-7.38,0-14.82.63-4.8.4-9.46,1.1l-.11-.78a51.19,51.19,0,0,1,27-27.5v-.11a289.08,289.08,0,0,1,50.79.67,42.65,42.65,0,0,0-35.53,26.19l-.07.7A175.28,175.28,0,0,0,330.4,305.5Z"/>
      <path class="k" d="M362.25,433.93c.2,13.07-11.1,24.75-25.44,24.76,9.83,2.33,17.05,10.15,18,19,.7,6.65-2.21,13.41-7.48,18.15q-14.08.92-29.05.85c-10.91-.07-21.45-.58-31.61-1.44,10.55-18,20-43.06,18.27-73.9-3.16-54.67-39.48-87.23-49.73-95.49.31-.8.64-1.58,1-2.34a158.85,158.85,0,0,1,50-16.28q4.67-.69,9.46-1.1,7.44-.63,14.82-.63A28.31,28.31,0,0,1,349,325.39c3.35,13.55-4.13,28-17.64,33.24a26.5,26.5,0,0,1,9.16,51.55C352.95,412,362.07,422.39,362.25,433.93Z"/>
      <path class="l" d="M333.08,502.1c.38.31,9.18,7.48,7.8,17.3-1.12,7.93-8.48,14.72-18,15.84a243.24,243.24,0,0,1-60.74-8.87l.1-.36a136.62,136.62,0,0,0,24.39-30.77c10.16.86,20.7,1.37,31.61,1.44q15,.09,29.05-.85A25,25,0,0,1,333.08,502.1Z"/>
      <path class="a" d="M333,278.84v.11a51.19,51.19,0,0,0-27,27.5l.11.78a158.85,158.85,0,0,0-50,16.28c7.44-17.21,17.34-26,25.19-30.86C294,284.78,312.67,280.5,333,278.84Z"/>
      <path class="m" d="M255.18,325.85c10.25,8.26,46.57,40.82,49.73,95.49,1.78,30.84-7.72,55.95-18.27,73.9a409.26,409.26,0,0,1-131.73-33.9l-.91.2c-.53-.82-1-1.63-1.42-2.41-6.37-11.95,29.52-95.9,101.21-134.37C254.18,325,254.64,325.42,255.18,325.85Z"/>
      <path class="n" d="M286.64,495.24A136.62,136.62,0,0,1,262.25,526l-.1.36c-54.83-15.11-96.09-46-108.15-64.83l.91-.2A409.26,409.26,0,0,0,286.64,495.24Z"/>
      <path class="o" d="M256.16,323.51c-.34.76-.67,1.54-1,2.34-.54-.43-1-.8-1.39-1.09C254.57,324.33,255.36,323.91,256.16,323.51Z"/>
    </g>
    <g>
      <path class="j" d="M420.83,531.5c3.95,12.2-10.09,24-31,11.75-10.16-6-26.94-15.76-32.5-35-5-17.34.88-36.14,6.62-43.52-.77,4-4.42,26.42,11.31,45.71,17.09,21,42.47,20.37,45.25,20.25l.07,0C420.65,530.94,420.74,531.22,420.83,531.5Z"/>
      <path class="a" d="M420.58,530.67l-.07,0c-2.78.12-28.16.72-45.25-20.25-15.73-19.29-12.08-41.69-11.31-45.71,1.64-2.1,3.27-3.28,4.63-3.23,3.76.15,2.29,9.55,10.5,18.5,13.17,14.37,31.5,6.06,39.5,18C424.77,507.26,416.2,515.88,420.58,530.67Z"/>
    </g>
    <path class="c" d="M243.75,422.11A15.07,15.07,0,0,0,228,423.2c-4.12,3-7,8.89-5.41,13.25,1.87,5.12,9.77.28,15.5-.52,4-.55,12.73,1.07,13.13-2.32C251.75,428.82,248.22,424.45,243.75,422.11Z"/>
  </g>
</svg>
