<svg xmlns="http://www.w3.org/2000/svg" xmlns:xlink="http://www.w3.org/1999/xlink" viewBox="0 0 3648 2456"><defs><style>.a{fill:url(#a);}.b{fill:#fff;isolation:isolate;}</style><linearGradient id="a" x1="1824" y1="602.67" x2="1824" y2="-3756.14" gradientTransform="matrix(1, 0, 0, -1, 0, -726.18)" gradientUnits="userSpaceOnUse"><stop offset="0" stop-color="#c5267c"/><stop offset="0.32" stop-color="#e36f6f"/><stop offset="0.5" stop-color="#f89d68"/><stop offset="0.75" stop-color="#ffeca2"/><stop offset="1" stop-color="#6af4ff"/></linearGradient></defs><title>sunset-sky</title><rect class="a" width="3648" height="2456"/><path class="b" d="M3648,2094.09V2456H0V2086H91.68v-14h93.1v-87.24c4.88.79,10,.95,14.59,2.51,6.11,2.07,11.84,5.23,19.88,8.89,4.68-.5,11.86-1.93,19.05-2q61.71-.31,123.42,0a47.17,47.17,0,0,1,14.76,2.45l14.3-4.82,8.17,8c4.28-8.5,10.82-16.12,12.38-27.76.79-5.89,1.22-11.76,1.43-17.62.39-10.73,0-21.42-.18-32.11-.2-9.33-4-18.57-6.39-29l4.38-4.71L440.13,1916c2.46-12.55-1.29-25.73,1.78-38.47.19-.83.42-1.66.68-2.49.19-.6,1.17-1,2.3-1.83q2.61,2.73,5.1,5.57c9.75,11.07,18.5,23.38,29,36.26v-28l6-2.36h0l.6-.24.3.4h0l28.91,37.83c3.68-8.67,3.7-10.13,1.77-21.79v-17.69l4.64-2.6c5.5,3.85,9.68,8.74,13.54,13.84h0c3.08,4,6,8.25,9.15,12.17,2.9,3.56,6.27,6.74,10,10.67v-24.58l-1.59-.31,5.82-10.76c8,8.22,15.12,15.64,22.3,23l.1.11h0c2.55,2.65,5,5.4,7.72,7.88,9.6,8.8,18.27,18.9,31.44,23H634c6.1-2.94,13.05-5.28,18.83-9.3.87-.61,1.74-1.22,2.6-1.85a170.54,170.54,0,0,0,35.44-34.32c2.76-3.59,5.85-6.92,8.78-10.37,5.29.82,6.3,4.84,6.56,8.49a111,111,0,0,1-.44,16.2c-.4,5.31-1.23,10.59,0,16.76L736,1885c4.7.6,5.39,3.8,5.39,7.53v26.78c7.92-4.87,11.11-12.43,16.16-18.23s9.8-11.81,15.1-18.24h5.92v38.7l32-41.41c5.55,1.4,5.72,5.47,4.86,9.91-2.09,10.82-4.3,21.61-6.6,33.14,6.8-6.82,12.41-13.8,19.35-19,7.14-5.35,10.36-15.52,20.78-17.35,4.31,6.78-.11,11.9-2,17.53s-2.91,11.8-5.44,17.54v18.71c-4.2,6-4.87,12.79-4.8,19.91q.06,5.56.08,11.13v47.17c6.42-1.37,3.56-6.61,6-10.32l7.48,2,9.76-4.91c.49-4.17,1.27-8.45,1.77-12.77a65.74,65.74,0,0,0,.49-7.28q0-8.1.08-16.2.1-22.35.11-44.71V1852c2.82-5.26,6.52-4.7,10-4.71q20.37,0,40.75-.06c3.39,0,6.77-.39,10.42-.61,2.85-9.46,1.18-18.37,1.49-27.12.31-8.53.09-17.07.09-25.61v-27.79h46.31c.21-4.14.3-7.13.53-10.11,2.72-35.16,2-70.39,2.06-105.61,0-3.43-.53-7.13,4-9.8h106.73l5.11,4.82c-.47,10.51-1,20.46-1.33,30.42-.34,10.66-.14,21.42.35,32,3,65.68,1.35,131.37,1.51,197.05q0,16,.25,32a171.52,171.52,0,0,1,2.21,23.33c.12,3.77.16,7.53.16,11.3,0,12.39-.55,24.79-.21,37.16.12,4.14-.36,8.3-.58,12.92h16c.33-6,1-11.87.86-17.72-.2-6.39,1.78-12,4.4-18.53H1148c.22-2.88.51-5.33.67-7.65.08-1.09.13-2.15.14-3.21v-2c.08-19.9,0-39.82.2-59.71a40.14,40.14,0,0,1,.65-6.26c.4-2.34.9-4.67,1.24-7l9.08-1.75c.4-5.28.78-10.21,1.22-16l9.76-2.78c3.87-10.52,3.51-21.66,3.48-32.79V1769c7.29-5.23,14.48-2.59,21.21-3.09,6.49-.48,13-.1,19.66-.1,3.84-13.7-2.58-27.92,4.92-40.36H1234c3.3-7-1.78-15.07,4-21.9h13c5.67,6.23.6,14.07,4.41,21,9.16,3.61,19.44.07,29.86,2.25,1.77,7.41,4.89,14.56,1.76,23.07-1.56,4.26,0,9.67.2,15.7,11.56.09,21.91.22,32.26.26s20.87,0,29.93,0c5.27,2.79,4.57,6.49,4.58,9.93q0,27.94.08,55.89v114.12c0,3.78.14,7.55.21,11.51,9.74,3,18.48,1.63,27.52,1.32.83-2,2.1-3.68,2.17-5.41q.33-8.23.71-16.46c.74-16.89,1.48-33.8,1.55-50.69.35-94.7.29-189.4.54-284.1,0-8.43,1.71-16.85,1.73-25.29,0-8-1.24-16.07-1.72-24.12a54.54,54.54,0,0,1,.63-7.8c17.37-9.14,37.79-8.1,54.35-18.12v-20.46l-9.07-12.47-9.81-.57L1417,1488c-.22-3.14-.43-6.18-.64-9.24l-8.49-4.27v-19.22l-11.34-9.13v-14.7c10.28-12,25.18-14.69,41.06-18.11v-23.18c10.22-4.33,20.65,1.28,29.83-4.86,1-9.57,2.1-19.46,3.13-28.91l-4.8-7.32,4.5-7c-.34-10.79,2.1-21.68-2.41-32.27l4.66-7.14v-14.26l-4.45-6.93,8.41-9.87c1.48,2.89,3.18,6.24,5,9.84-3,9-2.94,19.66-.69,26v34.21l3.29,7.54-3.38,5.53c.58,11.37,1.12,21.75,1.71,33.23l22.37.93c5.43,8,.72,16.61,3.78,24.95,14.72,1.71,28.51,6.88,40.32,17.74V1446l-10.19,8.08c-1.06,7.88-2,14.7-2.87,21.41l-7,3.25c-.28,5.31.11,11.07-6.73,14.35l-7.91.47c-10.74,5.82-14,18.37-9.3,35.81,8,2.44,16.58.83,25,1.18,8.13.34,16.29.08,24.86.08l6.11,5.69a15.63,15.63,0,0,1,.35,1.87c2.84,78.67,2,157.36,2.09,236.05,0,3.37-.48,6.74-.77,10.63,7.56,3.81,15.78,1.31,23.68,1.72,8.12.43,16.28.1,24.52.1l6.07,5.68c.12,1.63.32,3.15.33,4.67q0,43,.06,86.06v43.18c0,2.32-.41,4.8.25,6.93.59,1.9,2.41,3.41,4.88,6.65.86-4,1.67-6,1.67-8,0-12.72.24-25.23,4-37.74a24.12,24.12,0,0,0,.81-4.16,74.64,74.64,0,0,0-.05-11.28,57.6,57.6,0,0,1,0-6.57c.87-16.94,2-33.87,3-50.24,2.36-4.3,4.76-8.16,6.66-12.26,2.48-5.36,7.08-6.67,12-6.81,4.85-6.73-2.67-12.95.47-20.16l8,1v19l6.2.57c.61-3.53,1.19-6.83,1.76-10.14.61-.43,1.19-1.2,1.82-1.25,24.05-1.85,39-.91,45.89,3,.29,5.39.59,11.07.9,16.75h1.25c.35-3.74.69-7.48,1.06-11.47,3.59-3.11,8-1.54,12.12-1.8s8.46-.06,13.39-.06c.74-3,1.75-5.5,1.85-8,.28-7-.07-14,.28-21,.79-15.78,1.85-31.54,2.81-47.44-7.11-7-9.09-15.27-6.7-25.49l6.5-3.16a34.43,34.43,0,0,1,4.38,15.94c.7,26.27,1.73,52.53,2.58,78.79.13,3.91.46,7.61,5.11,10.54,1.26-2.69,2.91-5.16,3.55-7.86s.12-5.41.22-8.12c.75-20.83,1.47-41.66,2.41-62.48.11-2.41,1.56-4.75,2.59-7.71,6.48,4.57,3.52,11.61,5.9,14.36-.62,9.12-1.42,16.37-1.54,23.62-.22,14.36-.06,28.72-.06,43.16,1.55,2.39,3,4.63,4.73,7.28v9.83l5,6.79V1893c5.66.7,10.55,1.26,15.43,2,.62.09,1.13,1,2.61,2.42V1926h27.81c.15-3.12.42-6.11.43-9.1.06-16.69-.73-33.42.21-50.06q.34-6,.62-12,.89-19,1.24-37.94c1.12-55-.38-110.08,0-165.12.56-71.4.13-142.82.16-214.23,0-2.66.25-5.32.42-8.66,14.95-2,29.63-.18,46.58-1.18l3.72-3.41c-.83-10.05-1.42-17.3-2-24.69l9.37-8.7c1-9.09,2.24-20.08,3.57-31.94l5.93-.63a73.21,73.21,0,0,0,6.79,36.68l20.4,1c6,7.1,1,15.6,4.29,23,4.05,3.18,8.09,3.35,11.92-.64,3.27-28.83,4.74-57.47,1.75-86.34-1.26-3.45-2.62-7.2-4.08-11.19,5.43-2.69,9.17-2.68,12.48,1.79l-4.14,12c1.82,20.74,3.44,39.48-.23,58.26a20.52,20.52,0,0,0-.06,6.95,39,39,0,0,0,2,6.21c-.89,2.93-1.67,5.46-2.54,8.32l5.57,6.72h34.09c.95,2.84,2.15,5.19,2.47,7.66.39,3.05,0,6.19,0,9.3q.06,178.52.11,357v53.29c5.32,6.15,11.43,2.94,16.93,3.7,2.86-4.12,1.57-8.52,1.58-12.61v-45.21q.15-154.38.25-308.75c0-4.07-1.64-8.65,3-12.51,11.83-1.69,24.65.88,38.27-1.68.15-12.46.29-24.27.45-36.86,13.25-2.76,25.7-.18,38.08-1.83,4.08-8.5-2-18.56,4-27.18h26.18c3.41,11.15.3,22.5,2.22,34.39,20.28.48,40.33.07,61.4.22.94,2,2.52,4.18,3,6.58.55,3,.17,6.19.17,9.29q0,65.2.05,130.41v12.31a41.68,41.68,0,0,0,25.24.28v-61.14l7-8.08,5.22,9.25V1600h50.1c7,8.18,14.18,16.22,21,24.56,3,3.73,3.24,8.45,3.22,13.22-.12,19.8,0,39.59,0,59.38v11l14.13.88V1641c0-22.9-.77-45.84.27-68.69,1-22.27-2-44.53.34-66.64,4-4.07,8.61-5.21,13.88-5.15,11.63.16,23.25.05,35.36.05,2.71-10.93,0-21.86,2-32.52,1.51-.83,2.82-2.18,4.14-2.19,17.77-.14,35.54-.09,53.77-.09,4.86,12.82-.78,26.07,3.77,38.28l43.54,1.4c1.35,1.23,1.66,1.47,1.92,1.76a5.1,5.1,0,0,1,.67.93,3.62,3.62,0,0,1,.52,1,22.18,22.18,0,0,1,.26,2.3v3.49q.14,191.3.28,382.59v5.13a3.72,3.72,0,0,0,.18,1.14,10.44,10.44,0,0,0,.66,1.34c2.88,3.62,6.12,3.65,10.13-.27.06-1,.15-2.09.24-3.23.13-1.71.26-3.54.27-5.37.07-18.63.18-37.26,0-55.89-.06-6.25.56-12.23,3.83-18.35l16.33-.9c4.3-3.89,2.68-8.45,2.7-12.51.15-32.21.11-64.42.14-96.64v-11.74c5.54-7,12.74-2.22,17.89-4.84,4-2.43,3.17-6.15,3.18-9.56v-51.5c13.56-7,27.94-1.13,42.66-4.4,1.22-4.94,2.64-10.36,3.89-15.83,2.92-12.85,7.58-24.95,17.38-34.1,4.38-4.08,10.11-6.72,15.2-10,2.21-1.44,4.37-3,5.74-3.92l4.44-21.25c3.26,3.71,5.48,5.23,6.23,7.28,1.55,4.28,2.33,8.85,3.59,14l14.5,5.24c18,15.23,29.31,33.76,29.05,58.33l13.86,2.06,4,4.77v39.37c8.26,3.28,16.57.12,25.33,2.28.23,3.19.68,6.54.68,9.89.07,60.54,0,121.09.22,181.63,0,7.94,1.27,15.88,2,24.57h27.34a32.46,32.46,0,0,1,2.1,3.63,31.11,31.11,0,0,1,3.18,14.56c0,6.51-.93,13.13,2,19.41a6,6,0,0,1,.09,4.57c-2.89,6.15.46,11.63.69,17.72h13.22c.11-9.51-.11-18.71.36-27.88q.73-14.69,1.19-29.36c2.42-75.86-.12-151.75,1-227.61,0-1.16.17-2.32.35-4.68,10.83-6.87,23.77-1,36.45-4.28V1617.7c10.87-6.74,22.75-.71,34.21-4.67,2.15-9.62.67-19.66.93-29.55.27-10.08.06-20.18.06-30.27V1522l8.15-3.83c.65,2.63,1.32,4.06,1.32,5.49q.12,38.42.08,76.84v11.26c8.15,4.76,16,2.08,23.55,2.56,7.25.47,14.55.1,22.64.1.61,16.63-.25,32.3.74,47.49h25.84l4.29,4.34v308.07l1.49.06c.18-2.85.53-5.7.53-8.55v-13.67c0-15.39-.11-30.78.09-46.16,0-1.79,0-3.58.08-5.37.21-12.69,1.35-25.36,2.3-38,.12-1.72,1.52-3.34,2.2-4.74,14.85-2,50.86-1.4,58.6.7,16.06-3.42,31.56-.91,47-1.83l6.33,6v116.6l6.1,3.84,9.61-7.49h14.19c11.74,7.08,25.75,10.72,36.28,19.44,2-1.58,2.34-1.78,2.6-2.05a2.81,2.81,0,0,0,.68-.9,2.94,2.94,0,0,0,.19-1.14V1891l2.24-2.36h0l4-4.14h67.28a42.56,42.56,0,0,0,1.32-11.44c0-4.08-.32-8.19-.36-12.26-.08-6.85.59-13.58,4.82-19.89h72a64.8,64.8,0,0,1,2.64,6.8c.41,1.44.11,3.08.15,4.63l.06,2.4c.67,25.09,1.39,50.18,1.9,75.27.1,4.54-.77,9.09-1.28,14.58,3.1,3.81,7.81,5.63,14.52,5,0-.65,0-1.29.07-1.93V2034h140v52Z"/></svg>