<?xml version="1.0" encoding="UTF-8" standalone="no"?>
<svg
   xmlns:dc="http://purl.org/dc/elements/1.1/"
   xmlns:cc="http://creativecommons.org/ns#"
   xmlns:rdf="http://www.w3.org/1999/02/22-rdf-syntax-ns#"
   xmlns:svg="http://www.w3.org/2000/svg"
   xmlns="http://www.w3.org/2000/svg"
   xmlns:sodipodi="http://sodipodi.sourceforge.net/DTD/sodipodi-0.dtd"
   xmlns:inkscape="http://www.inkscape.org/namespaces/inkscape"
   viewBox="0 0 380.79 820.93"
   version="1.1"
   id="svg6279"
   sodipodi:docname="diver.svg"
   inkscape:version="0.92.4 (5da689c313, 2019-01-14)">
  <metadata
     id="metadata6283">
    <rdf:RDF>
      <cc:Work
         rdf:about="">
        <dc:format>image/svg+xml</dc:format>
        <dc:type
           rdf:resource="http://purl.org/dc/dcmitype/StillImage" />
      </cc:Work>
    </rdf:RDF>
  </metadata>
  <sodipodi:namedview
     pagecolor="#ffffff"
     bordercolor="#666666"
     borderopacity="1"
     objecttolerance="10"
     gridtolerance="10"
     guidetolerance="10"
     inkscape:pageopacity="0"
     inkscape:pageshadow="2"
     inkscape:window-width="755"
     inkscape:window-height="480"
     id="namedview6281"
     showgrid="false"
     inkscape:zoom="0.28747884"
     inkscape:cx="190.395"
     inkscape:cy="410.465"
     inkscape:window-x="0"
     inkscape:window-y="0"
     inkscape:window-maximized="0"
     inkscape:current-layer="svg6279" />
  <defs
     id="defs6125">
    <style
       id="style6123">.a{fill:#4ec1e1;}.b{fill:#d6a663;}.c{fill:#b28936;}.d{fill:#32271e;}.e{fill:#4a3b2c;}.f{fill:#634e3b;}.g{fill:#1985a3;}.h{fill:#11596d;}.i{fill:#202415;}.j{fill:#21b1d9;}.k,.s{fill:#a6e0f0;}.l{fill:#082c36;}.m{fill:#382c23;}.n{fill:#ce9c2c;}.o,.w{fill:#fc6;}.p{opacity:0.2;}.p,.x{isolation:isolate;}.q{fill:#9b6d31;stroke:#825a2a;stroke-width:3px;}.q,.s,.w,.y{stroke-miterlimit:10;}.r{fill:#7c582c;}.s{stroke:#7c624c;stroke-width:4px;}.t{fill:#efb930;}.u{fill:#333;}.v{fill:#f5ebcb;}.w{stroke:#fc6;stroke-width:2px;}.x{opacity:0.12;}.y{fill:none;stroke:#fff;stroke-linecap:round;stroke-width:6px;}</style>
  </defs>
  <title
     id="title6127">newdiver2</title>
  <g
     id="g6903"
     transform="matrix(-1,0,0,1,380.75884,0)">
    <path
       id="path6129"
       d="m 312.79,312.37 -12.55,47.74 -0.59,2.25 -2.16,8.23 -3.89,14.9 -0.53,2 -1.87,7.13 -2.88,10.84 a 8.13,8.13 0 0 1 -1,2.29 8.53,8.53 0 0 1 -0.84,1.13 12,12 0 0 1 -4.71,3.2 15.44,15.44 0 0 1 -5.75,1 L 261.84,413 199.32,412.6 h -3.95 -6.08 l -17.3,-0.11 -61.17,-0.39 a 14,14 0 0 1 -10.34,-4.32 8.51,8.51 0 0 1 -2.06,-4.12 l -3.77,-20.96 -0.52,-2.87 -3.46,-19.42 -0.28,-1.53 -1.34,-7.51 -22.35,-124.3 -0.58,-3.25 a 7.34,7.34 0 0 1 0.23,-3.57 c 1.16,-3.6 4.85,-6.35 9.48,-7.08 a 16.08,16.08 0 0 1 3.06,-0.2 l 28.49,0.81 45.44,1.29 26.2,0.76 32.9,0.93 61.24,1.73 13.77,0.39 35.18,1 c 1.7,0.02 -9.32,92.49 -9.32,92.49 z"
       class="a"
       inkscape:connector-curvature="0"
       style="fill:#4ec1e1" />
    <path
       id="path6131"
       d="M 282.15,142.54 283.55,82 a 8.9,8.9 0 0 1 9.19,-8.58 l 6.2,0.14 a 8.88,8.88 0 0 1 8.79,9 l -1.4,60.58 a 8.9,8.9 0 0 1 -9.19,8.58 l -6.2,-0.14 a 8.88,8.88 0 0 1 -8.79,-9.04 z"
       class="b"
       inkscape:connector-curvature="0"
       style="fill:#d6a663" />
    <path
       id="path6133"
       d="m 300.49,112.19 c 0.23,-14.72 1.37,-27.41 2.83,-33.18 0.54,-2.15 1.13,-3.34 1.73,-3.34 2.21,0 3.75,16.45 3.44,36.61 -0.31,20.16 -2.35,36.55 -4.56,36.51 -0.63,0 -1.21,-1.35 -1.7,-3.74 -1.23,-5.95 -1.96,-18.44 -1.74,-32.86 z"
       class="c"
       inkscape:connector-curvature="0"
       style="fill:#b28936" />
    <path
       id="path6135"
       d="m 92.71,81.61 -2.38,57 a 8.68,8.68 0 0 1 -9.17,8.11 L 75.49,146.5 A 8.61,8.61 0 0 1 67,137.71 l 2.38,-57 a 8.68,8.68 0 0 1 9.17,-8.11 l 5.67,0.22 a 8.61,8.61 0 0 1 8.49,8.79 z"
       class="b"
       inkscape:connector-curvature="0"
       style="fill:#d6a663" />
    <path
       id="path6137"
       d="m 74.51,109.88 c -0.47,13.93 -1.79,25.91 -3.3,31.35 -0.56,2 -1.14,3.14 -1.72,3.13 -2.13,-0.06 -3.33,-15.63 -2.68,-34.69 0.65,-19.06 2.9,-34.54 5,-34.47 0.6,0 1.14,1.3 1.58,3.57 1.1,5.64 1.61,17.47 1.12,31.11 z"
       class="c"
       inkscape:connector-curvature="0"
       style="fill:#b28936" />
    <rect
       id="rect6139"
       transform="rotate(1.98,197.60749,12.50391)"
       ry="9.25"
       rx="9.25"
       height="22.309999"
       width="73.839996"
       y="1.46"
       x="160.35001"
       class="b"
       style="fill:#d6a663" />
    <path
       id="path6141"
       d="m 197,7.49 c -13.91,-0.38 -25.88,-1.57 -31.32,-3 -2,-0.52 -3.14,-1.08 -3.13,-1.63 0.05,-2 15.58,-3.27 34.62,-2.75 19.04,0.52 34.5,2.58 34.44,4.62 0,0.58 -1.29,1.1 -3.55,1.53 -5.61,1.08 -17.41,1.6 -31.06,1.23 z"
       class="c"
       inkscape:connector-curvature="0"
       style="fill:#b28936" />
    <path
       id="path6143"
       d="m 297.44,817.42 a 20,20 0 0 1 -8.77,3.34 c -13.12,1.3 -21.27,-5.31 -26.48,-11.79 -7.64,-9.52 -10.56,-21.31 -10.65,-33.16 0,-0.36 63.58,-10.68 70.26,-11.79 a 35.18,35.18 0 0 1 2,4.53 c 5.54,15.79 -5.24,31.75 -22.4,45.91 a 43.19,43.19 0 0 1 -3.96,2.96 z"
       class="d"
       inkscape:connector-curvature="0"
       style="fill:#32271e" />
    <path
       id="path6145"
       d="m 323.81,768.57 c -0.44,7.69 -6.91,20.76 -16.94,26.37 a 38.58,38.58 0 0 1 -9.48,3.32 q -10.71,2.7 -21.48,4.84 c -19.56,3.87 -22.36,-20.2 -25,-29.49 13,-4.54 26.11,-9 39.7,-12.11 8.41,-1.94 24.22,-5.79 30.28,-1.14 a 5,5 0 0 1 1.85,2.16 13.29,13.29 0 0 1 1.07,6.05 z"
       class="e"
       inkscape:connector-curvature="0"
       style="fill:#4a3b2c" />
    <path
       id="path6147"
       d="m 310.22,716 2.32,9.62 8.4,34.7 0.9,3.72 0.82,3.43 c 1.11,4.64 -27.88,15.68 -32.64,17.9 -5.61,2.67 -12.13,4.92 -18,4.35 a 21.6,21.6 0 0 1 -10.29,-4.19 c -10.4,-7.29 -12.41,-14.39 -13.39,-25.28 -0.66,-7.3 -1.34,-14.6 -2.25,-21.85 -0.79,-6.5 -1.29,-9.2 -1.29,-9.2 z"
       class="f"
       inkscape:connector-curvature="0"
       style="fill:#634e3b" />
    <path
       id="path6149"
       d="m 192.41,771.73 a 16.39,16.39 0 0 1 -7.45,3.65 c -11.52,2 -19.4,-3.84 -24.67,-9.68 -7.73,-8.59 -11.48,-19.58 -12.73,-30.8 0,-0.34 55.38,-13.64 61.19,-15.06 a 36.3,36.3 0 0 1 2.19,4.18 c 6.48,14.63 -1.51,30.34 -15.34,44.7 a 36.46,36.46 0 0 1 -3.19,3.01 z"
       class="d"
       inkscape:connector-curvature="0"
       style="fill:#32271e" />
    <path
       id="path6151"
       d="m 211,724 c 0.37,7.3 -4.08,20 -12.42,25.9 a 31.54,31.54 0 0 1 -8.09,3.67 q -9.24,3.16 -18.59,5.77 c -17,4.75 -21.84,-17.88 -25.07,-26.52 11.12,-5 22.28,-10 34,-13.67 7.27,-2.3 20.93,-6.83 26.77,-2.77 a 5,5 0 0 1 1.85,1.94 13.7,13.7 0 0 1 1.55,5.68 z"
       class="e"
       inkscape:connector-curvature="0"
       style="fill:#4a3b2c" />
    <path
       id="path6153"
       d="m 316.11,709.2 a 9.81,9.81 0 0 1 -3.1,3.63 c -2.92,2.06 -6.8,3 -10.55,3.7 a 174.51,174.51 0 0 1 -42,2.83 c -3.63,-0.2 -7.35,-0.53 -10.59,-1.83 a 16.66,16.66 0 0 1 -3.25,-1.73 c -22.79,-8.82 -44.58,-122.35 -52.33,-176.07 -2.47,-17.38 -7.84,-34.42 -11.11,-51.6 q -0.5,-2.52 -0.9,-5 a 6,6 0 0 0 -0.11,-0.71 c -0.39,-2.45 -0.67,-4.95 -0.87,-7.48 -0.07,-0.81 -0.12,-1.62 -0.16,-2.44 -1.08,-19.66 3,-40.91 8.16,-59.9 q 0.61,-2.29 1.24,-4.49 l 9.38,-0.38 2.92,-0.12 8.75,-0.35 h 1 l 8.86,-0.35 h 1 c 11.94,-0.47 25.19,-1 35.82,-1.4 10.35,-0.39 18.24,-0.66 20,-0.66 6.08,0 0.52,0.76 8.24,4.16 l 0.42,0.18 0.68,0.28 c 11.48,4.64 0,50.85 -1.11,58.75 -4.35,31.86 -5.46,63.4 -2.36,95.48 1.71,17.65 -0.45,34.31 3.89,51.94 4.08,16.57 10.44,32.74 17.17,48.75 3.8,8.89 16.75,33.32 10.91,44.81 z"
       class="g"
       inkscape:connector-curvature="0"
       style="fill:#1985a3" />
    <path
       id="path6155"
       d="m 212.06,679 c -1,3.34 -6.4,5.22 -13.94,6.17 -21.78,2.76 -61.87,-2.15 -69.15,-1.59 -2.52,0.2 -4.86,-1.85 -7,-5 -5.47,-8.11 -9.35,-23.56 -10.15,-26.9 a 8,8 0 0 0 -0.44,-1.32 C 90.92,601.52 75.87,551.46 79.1,499.72 80.5,476.8 86.67,453.89 92.97,431.28 q 1.22,-4.35 2.42,-8.69 v 0 c 1,-3.63 2,-7.25 3,-10.86 a 9.44,9.44 0 0 1 2.12,-3.95 14.66,14.66 0 0 1 11.19,-4.32 c 14.47,0.4 40.45,1.18 61.24,2.09 11.74,0.52 21.81,1.07 27.14,1.63 1.19,0.12 2.13,0.24 2.81,0.37 1.85,0.33 1.77,0.65 -0.88,1 a 8.07,8.07 0 0 0 -2.16,0.57 11.51,11.51 0 0 0 -4.37,3.5 c -9.82,12.06 -11.71,46.88 -12.78,53.92 q -0.42,2.82 -0.87,5.65 c -0.15,0.91 -0.28,1.82 -0.43,2.73 -0.15,0.91 -0.26,1.67 -0.39,2.51 -0.17,1 -0.32,2 -0.48,3 l -0.35,2.29 q -0.43,2.6 -0.83,5.2 c -3.78,24.44 -7,49.12 -4.57,73.61 3,29.79 14.39,59.18 28.42,86.32 4.86,9.41 12.17,20.48 8.86,31.15 z"
       class="h"
       inkscape:connector-curvature="0"
       style="fill:#11596d" />
    <path
       id="path6157"
       d="m 193.72,675 3,9 10.89,32.38 1.17,3.47 1.07,3.2 c 1.45,4.33 -23.19,16.4 -27.2,18.75 -4.72,2.84 -10.28,5.33 -15.51,5.12 a 19.4,19.4 0 0 1 -9.55,-3.39 c -10,-6.33 -12.44,-12.93 -14.38,-23.18 -1.31,-6.87 -2.64,-13.75 -4.16,-20.56 -1.34,-6.11 -2.06,-8.64 -2.06,-8.64 z"
       class="f"
       inkscape:connector-curvature="0"
       style="fill:#634e3b" />
    <path
       id="path6159"
       d="m 207.81,700.34 q -7.39,0.61 -14.85,0.62 c -21.84,0.31 -55.48,-0.62 -55.48,-0.62 0,0 -2,-1.83 -4.47,-4.58 -4.41,-4.73 -10.52,-12.12 -11,-17.25 -0.29,-3.06 1.4,-5.27 6.58,-5.69 19,-1.53 72.56,0 72.56,0 a 91.73,91.73 0 0 1 8.32,12.28 c 3.75,6.97 5.92,14.48 -1.66,15.24 z"
       inkscape:connector-curvature="0" />
    <path
       id="path6161"
       d="m 360.41,449.68 c -7.29,2.69 -15.8,2.64 -23.95,2.43 a 15.42,15.42 0 0 1 -6.29,-1.06 c -2.49,-1.22 -3.63,-3.58 -4.56,-5.76 a 0.41,0.41 0 0 1 0,-0.1 c -10.14,-23.49 -17.95,-46.43 -22,-70.9 A 365.29,365.29 0 0 0 287,309.16 l -0.12,-0.35 c -2.89,-8 -6.1,-16 -9.69,-24.14 l -0.24,-0.55 -1.49,-3.29 c -0.58,-1.26 -1.16,-2.53 -1.66,-3.82 a 15.94,15.94 0 0 1 -1.15,-5.28 c -0.07,-3.29 1.32,-6.44 2.81,-9.47 1.15,-2.27 17.89,-27.52 29,-39.67 1.3,-1.43 2.52,-2.67 3.63,-3.67 0.27,-0.26 0.54,-0.5 0.81,-0.7 2.14,-1.8 3.78,-2.55 4.63,-1.75 v 0 c 0.73,0.78 1.45,1.56 2.15,2.35 v 0 c 27.15,30.25 39.27,66.74 44.53,102.64 2.79,19 3.71,38.14 3.88,57.2 a 317.73,317.73 0 0 0 5.18,54.83 c 0.12,0.66 0.21,1.32 0.27,2 0.67,6.2 -1.48,11.35 -9.13,14.19 z"
       class="g"
       inkscape:connector-curvature="0"
       style="fill:#1985a3" />
    <path
       id="path6163"
       d="m 380.74,487 a 33.84,33.84 0 0 1 -0.94,6.61 c -1.39,5.52 -8.52,15.91 -9.47,16.3 -2.07,0.84 -3,-0.27 -5,1.44 -1.66,1.44 -2.63,3.35 -4.71,4.33 -2.86,1.35 -6.31,1.06 -7.66,-2.1 -1.54,-3.61 -0.45,-7.42 -0.24,-11.16 0.2,-3.55 -11.08,20 -17.1,14.12 a 4.65,4.65 0 0 1 -1.47,-3 c -1,-13.49 5.43,-23.74 4.2,-37.21 -0.16,-1.71 -0.51,-5.3 -2.75,-3.83 -2.89,1.9 -4.56,7.09 -6.75,10.38 -0.59,0.88 -0.77,9.22 -1.5,10 -3,3.23 -7.62,0.66 -8.25,-2.87 -0.88,-4.93 -2.2,-10.87 -1.52,-15.25 0.44,-2.85 4.31,-12.64 5.27,-15.5 0.38,-1.13 3.31,-5.6 3.6,-6.76 0.56,-2.2 -3.3,-5.12 -1.31,-6.91 l 0.41,-0.35 5.07,-4.39 a 2.27,2.27 0 0 1 1.2,-0.52 l 37.87,-4.73 2.74,-0.35 c 1.69,-0.22 3,1.29 2.35,2.64 a 14.21,14.21 0 0 0 -1.24,2.9 c -0.07,0.94 1.4,3.48 1.33,4.42 -0.22,3 4.93,17.08 4.64,21.51 a 38.37,38.37 0 0 0 0.43,7.06 78.49,78.49 0 0 1 0.8,13.22 z"
       class="i"
       inkscape:connector-curvature="0"
       style="fill:#202415" />
    <path
       id="path6165"
       d="m 109.23,293.52 c -0.3,2.07 -0.66,4.2 -1.09,6.38 -2.43,12.47 -6.8,26.49 -11,39 q -1.76,5.26 -3.42,10.09 c -1.22,3.57 -2.35,6.87 -3.35,9.93 -2.65,8 -4.25,13.75 -3.52,15.28 0.34,0.72 0.08,2.19 -0.64,4.24 -5.46,15.42 -37.34,63.33 -37.34,63.33 v 0 c -7.88,12.5 -38.79,-6.11 -38.79,-6.11 0.12,-1.58 0.24,-3.15 0.4,-4.74 3.25,-33.61 15.28,-66.92 23.4,-100 l 4.26,-17.38 c 4.09,-16.66 7.62,-33.74 12.3,-50.22 0.85,-3 12.92,-26.58 16.3,-36.25 0.78,-2.25 1.1,-3.74 0.7,-4.06 l 0.77,0.63 c 1.17,1 3.61,3.06 6.8,5.92 v 0 a 204.86,204.86 0 0 1 18.17,18.81 c 6.14,7.33 11.89,15.52 15.18,23.57 2.11,5.27 2.13,12.85 0.87,21.58 z"
       class="h"
       inkscape:connector-curvature="0"
       style="fill:#11596d" />
    <path
       id="path6167"
       d="M 107.37,213.79 78.88,213 a 16.08,16.08 0 0 0 -3.06,0.2 c -4.63,0.73 -8.31,3.48 -9.48,7.08 a 7.34,7.34 0 0 0 -0.23,3.57 l 0.58,3.25 22.36,124.28 1.34,7.51 0.28,1.53 3.46,19.42 0.52,2.87 3.77,20.95 a 8.51,8.51 0 0 0 2.06,4.12 14,14 0 0 0 10.34,4.32 l 35.72,0.23 c -3.69,-66.08 -8.69,-132.71 -24.07,-198.1 z"
       class="g"
       inkscape:connector-curvature="0"
       style="fill:#1985a3" />
    <path
       id="path6169"
       d="m 312.65,312 -13.2,49.9 c 0.07,0.15 0.15,0.3 0.2,0.45 a 10.14,10.14 0 0 1 0.87,4.34 l -0.21,10.41 a 10.92,10.92 0 0 1 -3,7.21 14.32,14.32 0 0 1 -4.23,3.19 4.29,4.29 0 0 1 -0.43,0.22 l -1.94,7.19 -3.34,12.83 -0.09,0.33 a 8,8 0 0 1 -0.33,1 10.92,10.92 0 0 1 -6.37,5.74 L 261.84,413 217.13,412.56 c -2.25,-0.37 12.24,-160.22 17,-189 0.12,-0.82 58.63,-26.78 83.42,-8.81 C 340,231 312.65,312 312.65,312 Z"
       class="j"
       inkscape:connector-curvature="0"
       style="fill:#21b1d9" />
    <path
       id="path6171"
       d="m 303.13,394.81 -0.6,9.56 -0.13,2.12 a 13.63,13.63 0 0 1 -5.48,9.9 c -0.14,0.12 -0.3,0.23 -0.45,0.34 a 17.56,17.56 0 0 1 -11.12,3.19 l -10.35,-0.46 -2.5,-0.12 -7.72,-0.36 -3.53,-0.16 -25.25,-1.2 -3.87,-0.22 -8.63,-0.4 -2,-0.1 -15.83,-0.75 L 177.9,414.84 98.07,411 a 17,17 0 0 1 -11.3,-4.84 c -0.18,-0.17 -0.33,-0.34 -0.49,-0.51 a 13,13 0 0 1 -3.46,-9.61 l 0.75,-11.69 a 4.93,4.93 0 0 1 0.09,-0.94 14.53,14.53 0 0 1 9.07,-11.14 17.5,17.5 0 0 1 3.86,-1.12 18.31,18.31 0 0 1 4,-0.25 l 24,1.14 55.36,2.62 h 0.76 l 10.32,0.46 5,0.24 11.67,0.55 h 0.3 l 26.5,1.25 4.24,0.21 4.79,0.23 h 0.67 l 23.62,1.12 h 0.35 l 3.13,0.15 h 0.88 l 2.66,0.13 2.24,0.1 10.78,0.51 c 6.26,0.3 11.76,3.75 14.11,8.85 0.11,0.23 0.21,0.47 0.3,0.71 a 12.51,12.51 0 0 1 0.86,5.64 z"
       class="k"
       inkscape:connector-curvature="0"
       style="fill:#a6e0f0" />
    <path
       id="path6173"
       d="m 224.87,563.69 -8.3,1.8 c -3.32,0.71 -5.67,3 -5.78,5.74 l -1.16,24.37 a 5.18,5.18 0 0 0 1,3.22 L 225,619.37 c 1.76,2.5 5.46,3.73 9,3 l 8.36,-1.8 c 3.31,-0.72 5.65,-3 5.78,-5.74 l 1.15,-24.37 a 5.18,5.18 0 0 0 -1,-3.22 l -14.42,-20.56 c -1.74,-2.53 -5.48,-3.76 -9,-2.99 z"
       class="l"
       inkscape:connector-curvature="0"
       style="fill:#082c36" />
    <path
       id="path6175"
       d="M 104.32,530.87 99.43,529 c -4.61,-1.27 -8.21,-1.08 -8.32,0.42 l -7.1,22 a 1.31,1.31 0 0 0 0.14,0.64 l 12.73,27.19 c 0.82,1.76 4.95,4.07 9.58,5.32 v 0 c 4.61,1.26 8.21,1.08 8.31,-0.43 L 116.48,561 a 1.24,1.24 0 0 0 -0.15,-0.65 l -7.27,-26 c -0.87,-1.79 -0.13,-2.22 -4.74,-3.48 z"
       class="l"
       inkscape:connector-curvature="0"
       style="fill:#082c36" />
    <path
       id="path6177"
       d="m 100.69,246.39 14.74,-0.48 a 6.27,6.27 0 0 1 6.67,5.78 l 5.7,151.6 a 6.19,6.19 0 0 1 -6.22,6.2 l -14.74,0.48 a 6.27,6.27 0 0 1 -6.67,-5.78 l -5.7,-151.6 a 6.19,6.19 0 0 1 6.22,-6.2 z"
       class="i"
       inkscape:connector-curvature="0"
       style="fill:#202415" />
    <path
       id="path6179"
       d="M 270.35,238.42 285,240 a 6.1,6.1 0 0 1 5.64,6.65 l -19.25,150.67 a 6.36,6.36 0 0 1 -7.16,5.24 l -14.65,-1.62 a 6.1,6.1 0 0 1 -5.64,-6.65 l 19.25,-150.63 a 6.36,6.36 0 0 1 7.16,-5.24 z"
       class="i"
       inkscape:connector-curvature="0"
       style="fill:#202415" />
    <path
       id="path6181"
       d="m 244,374.56 26.27,2.62 a 4.1,4.1 0 0 1 3.61,4.52 l -4,42.56 a 4,4 0 0 1 -4.38,3.72 l -24.27,-2.62 c -2.2,-0.22 -5.82,-5.24 -5.61,-7.52 l 4,-39.56 a 4,4 0 0 1 4.38,-3.72 z"
       class="m"
       inkscape:connector-curvature="0"
       style="fill:#382c23" />
    <path
       id="path6183"
       d="m 280.4,378.95 -3.27,39.95 A 9.77,9.77 0 0 1 266.59,428 L 248,426.07 a 10,10 0 0 1 -8.68,-11 l 3.4,-36.71 c 0.49,-5.53 35.62,3.1 37.68,0.59 z"
       class="f"
       inkscape:connector-curvature="0"
       style="fill:#634e3b" />
    <path
       id="path6185"
       d="m 258.71,399 -15.42,-22.71 a 1.23,1.23 0 0 1 0.57,-1.84 1.86,1.86 0 0 1 1,-0.18 l 34.14,3.17 a 1.43,1.43 0 0 1 1.42,1.49 1.24,1.24 0 0 1 -0.34,0.69 l -18.67,19.54 a 1.81,1.81 0 0 1 -2.25,0.24 1.45,1.45 0 0 1 -0.45,-0.4 z"
       class="m"
       inkscape:connector-curvature="0"
       style="fill:#382c23" />
    <path
       id="path6187"
       d="m 309.28,216.8 -1.87,4.77 -0.39,1 -27.55,70.28 -2.68,6.86 c 0.06,5.53 -2.91,10.57 -7.76,14.26 a 27.14,27.14 0 0 1 -5.14,3.05 20.92,20.92 0 0 1 -2.13,0.86 32.57,32.57 0 0 1 -4.71,1.37 34.37,34.37 0 0 1 -3.43,0.55 33.6,33.6 0 0 1 -3.62,0.2 l -17.2,0.09 -94.13,0.53 a 33.53,33.53 0 0 1 -15.93,-3.62 25.87,25.87 0 0 1 -3.92,-2.5 21.08,21.08 0 0 1 -2.42,-2.18 16.6,16.6 0 0 1 -5.06,-11.41 l -0.86,-2.06 -13.56,-32.22 -16.66,-39.54 v 0 L 77,219.37 a 16.39,16.39 0 0 1 4,-10.72 c 4.73,-5.67 13.15,-9.5 22.79,-9.62 l 9.51,-0.11 11.68,-0.13 29.79,-0.33 18.52,-0.21 19.32,-0.21 40.71,-0.46 31.82,-0.35 4.29,-0.05 v 0 L 282,197 a 33.21,33.21 0 0 1 17.29,4.41 l 0.23,0.14 c 5.25,3.21 8.82,7.87 9.58,13.17 a 2.87,2.87 0 0 0 0.06,0.38 c 0.05,0.45 0.09,0.91 0.09,1.37 0.03,0.15 0.03,0.24 0.03,0.33 z"
       class="n"
       inkscape:connector-curvature="0"
       style="fill:#ce9c2c" />
    <path
       id="path6189"
       d="m 304.54,213 -1.31,3.34 -0.39,1 -1.71,4.45 -24.85,63.3 -4.28,10.79 c 0.06,5.53 -2.91,10.58 -7.76,14.26 a 28,28 0 0 1 -6.61,3.68 26.61,26.61 0 0 1 -3.05,1 l -0.28,0.09 -0.21,0.05 a 35.64,35.64 0 0 1 -8.91,1.22 l -12,0.07 -99.32,0.56 a 35,35 0 0 1 -11.24,-1.71 29.14,29.14 0 0 1 -6.27,-2.88 21.35,21.35 0 0 1 -2.32,-1.59 21.07,21.07 0 0 1 -4.51,-4.71 15.77,15.77 0 0 1 -2.92,-8.87 l -9.43,-22.28 -22.85,-54.31 -1.6,-3.81 -0.42,-1 c -0.12,-11.06 11.89,-20.17 26.82,-20.34 l 20.26,-0.23 H 120 l 25.58,-0.34 9.22,-0.1 h 1.58 l 17.3,-0.2 10.1,-0.11 h 2.45 l 14.57,-0.16 37.45,-0.43 22.76,-0.25 8.84,-0.1 7.33,-0.09 c 9.17,-0.1 17.31,3.2 22.28,8.31 l 0.25,0.27 a 16.55,16.55 0 0 1 4.83,11.12 z"
       class="o"
       inkscape:connector-curvature="0"
       style="fill:#ffcc66" />
    <path
       id="path6191"
       d="m 267,201.82 c 0.16,4.56 -4.22,9 -11.9,12.86 -13.83,6.94 -38.39,12.08 -66.52,13.07 -41.42,1.45 -75.74,-6.64 -79.66,-18.34 a 6.81,6.81 0 0 1 -0.38,-2 c -0.1,-2.89 1.62,-5.73 4.86,-8.4 a 36.36,36.36 0 0 1 6,-3.89 l 0.41,-0.21 a 87.77,87.77 0 0 1 16.14,-6.14 204.21,204.21 0 0 1 39,-6.58 q 5.85,-0.48 12,-0.69 c 5.39,-0.19 10.65,-0.21 15.75,-0.09 0.81,0 1.63,0 2.43,0.07 q 4.71,0.15 9.2,0.48 a 161.86,161.86 0 0 1 31.3,5 c 6.53,1.83 11.82,4.05 15.5,6.57 a 16.9,16.9 0 0 1 4.11,3.77 8.06,8.06 0 0 1 1.76,4.52 z"
       class="c"
       inkscape:connector-curvature="0"
       style="fill:#b28936" />
    <path
       id="path6193"
       d="m 198.75,371.55 a 2.53,2.53 0 0 1 0,0.59 l -2.29,29.57 -1.08,14.18 v 0.43 l -0.1,1.26 -0.24,3.13 -3.72,48.08 -1.16,15 a 3.69,3.69 0 0 1 -0.93,2.12 7.17,7.17 0 0 1 -5.51,2.21 h -0.45 l -3.76,-0.05 -6.16,-0.08 h -3.57 c -3.37,0 -6,-2.05 -5.76,-4.49 v 0 l 1.13,-14.58 3.62,-46.86 0.47,-6.11 1.13,-14.62 1.36,-17.64 0.92,-11.91 a 3.49,3.49 0 0 1 0.51,-1.54 c 1,-1.71 3.39,-2.82 5.93,-2.79 l 14,0.18 c 2.57,0 4.77,1.23 5.51,3 a 2.79,2.79 0 0 1 0.15,0.92 z"
       class="i"
       inkscape:connector-curvature="0"
       style="fill:#202415" />
    <path
       id="path6195"
       d="m 181.24,481.28 a 4.47,4.47 0 0 1 -1.12,1.36 6,6 0 0 1 -0.52,0.39 l -4.47,3 -1.31,0.87 a 7.34,7.34 0 0 1 -0.89,0.5 8.77,8.77 0 0 1 -8.55,-0.85 L 159.85,483 92.92,431.28 90.61,429.49 c 1.6,-2.05 2.77,-3.48 2.77,-3.48 l 1.94,-3.43 v 0 l 4.62,-8 65.57,50.67 13,10 1.31,1 a 5.07,5.07 0 0 1 1.11,1.15 3.6,3.6 0 0 1 0.31,3.88 z"
       class="i"
       inkscape:connector-curvature="0"
       style="fill:#202415" />
    <path
       id="path6197"
       d="m 179.35,479.09 3.21,3.7 1,1.1 c 2,2.24 5.83,2.86 8.75,1.4 l 5.13,-2.55 82.89,-41.16 3.89,-18.68 a 7.89,7.89 0 0 0 -4.54,0.7 l -98.5,48.89 c -2.8,1.36 -3.67,4.24 -1.94,6.44 z"
       class="i"
       inkscape:connector-curvature="0"
       style="fill:#202415" />
    <path
       id="path6199"
       d="m 309.33,217 -1.81,4.66 -0.32,0.86 -27.42,70.88 -2.78,7.26 c -3.91,18.07 -23.34,19.1 -23.34,19.1 l 0.93,-3.69 0.15,-1.23 10,-79.71 2.2,-17.47 0.33,-2.64 2.25,-17.84 v 0 l 0.48,-3.82 7.33,-0.08 c 9,-0.09 17.06,3.13 22,8.17 l 0.24,0.25 0.24,0.15 c 5,3.18 8.49,7.71 9.33,12.91 a 2.87,2.87 0 0 0 0.06,0.38 c 0.06,0.46 0.1,0.93 0.12,1.41 a 2.87,2.87 0 0 0 0.01,0.45 z"
       class="p"
       inkscape:connector-curvature="0"
       style="opacity:0.2;isolation:isolate" />
    <path
       id="path6201"
       d="m 175.39,380.79 h 0.26 l 19.06,0.78 a 2.3,2.3 0 0 1 2.31,2.33 v 0 l -0.95,16.68 a 2.38,2.38 0 0 1 -2.31,2.16 H 193.5 L 174.44,402 a 2.31,2.31 0 0 1 -2.31,-2.35 v 0 l 0.95,-16.68 a 2.39,2.39 0 0 1 2.31,-2.17 m -0.1,-1.83 a 4.34,4.34 0 0 0 -4.18,3.91 l -0.95,16.68 a 4.19,4.19 0 0 0 4.18,4.28 v 0 l 19.06,0.78 h 0.46 a 4.3,4.3 0 0 0 4.17,-3.91 L 199,384 a 4.19,4.19 0 0 0 -4.18,-4.28 v 0 l -19.06,-0.78 z"
       class="q"
       inkscape:connector-curvature="0"
       style="fill:#9b6d31;stroke:#825a2a;stroke-width:3px;stroke-miterlimit:10" />
    <rect
       id="rect6203"
       transform="rotate(-87.17,184.34986,402.52892)"
       ry="1.28"
       rx="1.28"
       height="5"
       width="12"
       y="400.03"
       x="178.35001"
       class="r"
       style="fill:#7c582c" />
    <path
       id="path6205"
       d="m 104.62,387.17 h 0.08 l 19.08,0.54 a 2.35,2.35 0 0 1 2.37,2.33 v 0 l -0.55,16.68 a 2.34,2.34 0 0 1 -2.43,2.2 h -0.08 L 104,408.37 a 2.35,2.35 0 0 1 -2.37,-2.34 l 0.55,-16.68 a 2.34,2.34 0 0 1 2.43,-2.19 m 0,-1.83 a 4.27,4.27 0 0 0 -4.4,4 L 99.69,406 a 4.26,4.26 0 0 0 4.31,4.2 l 19.08,0.54 h 0.14 a 4.28,4.28 0 0 0 4.4,-4 l 0.55,-16.68 a 4.24,4.24 0 0 0 -4.28,-4.22 v 0 l -19.08,-0.54 z"
       class="q"
       inkscape:connector-curvature="0"
       style="fill:#9b6d31;stroke:#825a2a;stroke-width:3px;stroke-miterlimit:10" />
    <path
       id="path6207"
       d="m 112.18,402.4 2.41,0.07 a 1.21,1.21 0 0 1 1.22,1.21 l -0.28,8.65 a 1.23,1.23 0 0 1 -1.3,1.14 l -2.41,-0.07 a 1.21,1.21 0 0 1 -1.22,-1.21 l 0.28,-8.65 a 1.23,1.23 0 0 1 1.3,-1.14 z"
       class="r"
       inkscape:connector-curvature="0"
       style="fill:#7c582c" />
    <path
       id="path6209"
       d="m 49.93,484.43 c -4.12,-1.31 -5,-21.2 -7.94,-19.69 -4.59,2.4 -5.3,8.26 -5.31,12.9 0,5.52 1.06,11 1.66,16.42 0.26,2.41 0,7.35 -2.58,8.57 a 2.79,2.79 0 0 1 -2.89,-0.55 c -2.13,-1.82 -3.57,-6.19 -4.52,-8.75 a 40.2,40.2 0 0 1 -2.22,-9.88 c -0.23,-2.33 -0.17,-4.53 -0.77,-4.09 -1.46,1.08 -1.57,0.87 -1.82,2.48 -0.64,4.12 -0.49,8.09 -0.72,12.23 -0.17,3 -1.78,7.81 -5.71,6.75 a 8,8 0 0 1 -2.86,-1.61 19.75,19.75 0 0 1 -4.37,-4.94 2.3,2.3 0 0 1 -3.36,0.28 c -1,-1.13 -0.38,-2.58 -0.75,-3.88 -0.5,-1.79 -1.12,-2.24 -2.55,-3.46 -3.35,-2.87 -3.28,-9.06 -3.2,-13.11 0.11,-5 1.65,-9.85 2,-14.84 0.3,-4.07 -1.67,-9.89 1.3,-13.32 2.78,-3.2 3.83,-6 3.83,-6.87 0,-0.87 1.73,-2.77 1.73,-3.57 A 11.75,11.75 0 0 0 8,432.94 a 1.43,1.43 0 0 1 1,-2 2.44,2.44 0 0 1 1.15,-0.09 l 0.29,0.06 34,6.87 a 1.85,1.85 0 0 1 1,0.52 l 3.43,3.45 1,1 a 1.42,1.42 0 0 1 0.24,1.76 l -1.75,3.06 a 1.43,1.43 0 0 0 0.12,1.6 c 2.36,3.13 3.65,6.93 5.19,10.5 1.7,4 2.29,11.7 1.62,16 -0.51,3.33 -1.15,10.1 -5.36,8.76 z"
       class="i"
       inkscape:connector-curvature="0"
       style="fill:#202415" />
    <circle
       id="circle6211"
       r="16.709999"
       cy="290.47"
       cx="182.44"
       class="s"
       style="fill:#a6e0f0;stroke:#7c624c;stroke-width:4px;stroke-miterlimit:10" />
    <path
       id="path6213"
       d="M 183.11,276.65 180.68,291 a 0.18,0.18 0 0 0 0.15,0.2 v 0 l 3.27,0.19 a 0.19,0.19 0 0 0 0.19,-0.19 v 0 l -0.86,-14.57 a 0.19,0.19 0 0 0 -0.34,0 z"
       class="t"
       inkscape:connector-curvature="0"
       style="fill:#efb930" />
    <path
       id="path6215"
       d="m 290.15,142.56 a 99.94,99.94 0 0 1 -4.6,13.37 A 106.59,106.59 0 0 1 256,195.8 c -1.87,1.58 -3.8,3.09 -5.77,4.52 a 108.07,108.07 0 0 1 -37.72,17.61 110.23,110.23 0 0 1 -13.13,2.44 v 0 a 107.81,107.81 0 0 1 -21.12,0.57 c -0.51,0 -1,-0.06 -1.52,-0.11 a 108.53,108.53 0 0 1 -25,-5.09 107.27,107.27 0 0 1 -27.89,-14 c -2,-1.39 -4,-2.86 -5.84,-4.39 L 117.7,197.1 A 102.5,102.5 0 0 1 89.14,73.65 a 107.45,107.45 0 0 1 73.95,-59 c 3.45,-0.77 7,-1.38 10.58,-1.82 v 0 c 3.59,-0.46 7.16,-0.71 10.7,-0.81 q 4.4,-0.12 8.73,0.11 l 2.11,0.14 c 1.18,0.08 2.35,0.19 3.51,0.31 a 108.09,108.09 0 0 1 15.63,2.82 106.3,106.3 0 0 1 64.51,47.6 102.5,102.5 0 0 1 11.29,79.53 z"
       class="o"
       inkscape:connector-curvature="0"
       style="fill:#ffcc66" />
    <path
       id="path6217"
       d="m 197.7,204.57 a 76.07,76.07 0 0 1 -18.24,1.12 c -37.59,-2.18 -67.45,-26.86 -67.29,-59.6 0.07,-26.08 19.6,-51.75 48.45,-57.11 a 76.07,76.07 0 0 1 18.24,-1.12 c 37.6,2.17 68.14,30.56 68,63.31 -0.08,26.07 -20.29,48.03 -49.16,53.4 z"
       class="u"
       inkscape:connector-curvature="0"
       style="fill:#333333" />
    <path
       id="path6219"
       d="m 162.52,99.53 v 0 a 67.9,67.9 0 0 1 57.82,16.87 c 10.37,9.84 16.06,22.17 16,34.69 a 39.84,39.84 0 0 1 -10.83,27.16 c -7.37,8 -18,13.65 -29.83,15.86 a 67.9,67.9 0 0 1 -57.83,-16.87 c -10.36,-9.85 -16.05,-22.17 -16,-34.69 A 39.71,39.71 0 0 1 132.7,115.3 c 7.35,-8 17.95,-13.65 29.83,-15.86 m -3.91,-21 c -33.13,6.16 -57.55,31.74 -57.63,63.78 -0.12,38.37 34.79,71.58 78,74.08 a 85.84,85.84 0 0 0 20.67,-1.3 c 33.14,-6.16 57.55,-31.74 57.64,-63.79 0.11,-38.37 -34.8,-71.58 -78,-74.07 a 85.68,85.68 0 0 0 -20.71,1.38 z"
       class="v"
       inkscape:connector-curvature="0"
       style="fill:#f5ebcb" />
    <path
       id="path6221"
       d="m 178.23,86 a 1.77,1.77 0 0 1 2.16,-1.29 1.82,1.82 0 0 1 1.55,2 1.77,1.77 0 0 1 -2.16,1.29 1.82,1.82 0 0 1 -1.55,-2 z"
       class="w"
       inkscape:connector-curvature="0"
       style="fill:#ffcc66;stroke:#ffcc66;stroke-width:2px;stroke-miterlimit:10" />
    <path
       id="path6223"
       d="m 201.25,90.68 a 1.77,1.77 0 0 1 2.16,-1.29 1.82,1.82 0 0 1 1.55,2 1.77,1.77 0 0 1 -2.16,1.29 1.82,1.82 0 0 1 -1.55,-2 z"
       class="w"
       inkscape:connector-curvature="0"
       style="fill:#ffcc66;stroke:#ffcc66;stroke-width:2px;stroke-miterlimit:10" />
    <path
       id="path6225"
       d="m 217,100.69 a 1.76,1.76 0 0 1 2.15,-1.29 1.82,1.82 0 0 1 1.55,2 1.76,1.76 0 0 1 -2.15,1.29 1.82,1.82 0 0 1 -1.55,-2 z"
       class="w"
       inkscape:connector-curvature="0"
       style="fill:#ffcc66;stroke:#ffcc66;stroke-width:2px;stroke-miterlimit:10" />
    <path
       id="path6227"
       d="m 234,114 a 1.77,1.77 0 0 1 2.16,-1.29 1.82,1.82 0 0 1 1.55,2 1.77,1.77 0 0 1 -2.16,1.29 1.82,1.82 0 0 1 -1.55,-2 z"
       class="w"
       inkscape:connector-curvature="0"
       style="fill:#ffcc66;stroke:#ffcc66;stroke-width:2px;stroke-miterlimit:10" />
    <path
       id="path6229"
       d="m 241.95,126.66 a 1.77,1.77 0 0 1 2.16,-1.29 1.82,1.82 0 0 1 1.55,2 1.77,1.77 0 0 1 -2.16,1.29 1.82,1.82 0 0 1 -1.55,-2 z"
       class="w"
       inkscape:connector-curvature="0"
       style="fill:#ffcc66;stroke:#ffcc66;stroke-width:2px;stroke-miterlimit:10" />
    <path
       id="path6231"
       d="m 247,141.72 a 1.77,1.77 0 0 1 2.16,-1.29 1.82,1.82 0 0 1 1.55,2 1.77,1.77 0 0 1 -2.16,1.29 1.82,1.82 0 0 1 -1.55,-2 z"
       class="w"
       inkscape:connector-curvature="0"
       style="fill:#ffcc66;stroke:#ffcc66;stroke-width:2px;stroke-miterlimit:10" />
    <path
       id="path6233"
       d="m 178.23,86 a 1.77,1.77 0 0 1 2.16,-1.29 1.82,1.82 0 0 1 1.55,2 1.77,1.77 0 0 1 -2.16,1.29 1.82,1.82 0 0 1 -1.55,-2 z"
       class="w"
       inkscape:connector-curvature="0"
       style="fill:#ffcc66;stroke:#ffcc66;stroke-width:2px;stroke-miterlimit:10" />
    <path
       id="path6235"
       d="m 155.17,88.16 a 1.77,1.77 0 0 1 2.16,-1.29 1.82,1.82 0 0 1 1.55,2 1.77,1.77 0 0 1 -2.16,1.29 1.82,1.82 0 0 1 -1.55,-2 z"
       class="w"
       inkscape:connector-curvature="0"
       style="fill:#ffcc66;stroke:#ffcc66;stroke-width:2px;stroke-miterlimit:10" />
    <path
       id="path6237"
       d="m 137.25,96 a 1.77,1.77 0 0 1 2.16,-1.29 1.82,1.82 0 0 1 1.55,2 1.77,1.77 0 0 1 -2.16,1.29 1.82,1.82 0 0 1 -1.55,-2 z"
       class="w"
       inkscape:connector-curvature="0"
       style="fill:#ffcc66;stroke:#ffcc66;stroke-width:2px;stroke-miterlimit:10" />
    <path
       id="path6239"
       d="m 122.13,108.72 a 1.77,1.77 0 0 1 2.16,-1.29 1.82,1.82 0 0 1 1.55,2 1.77,1.77 0 0 1 -2.16,1.29 1.82,1.82 0 0 1 -1.55,-2 z"
       class="w"
       inkscape:connector-curvature="0"
       style="fill:#ffcc66;stroke:#ffcc66;stroke-width:2px;stroke-miterlimit:10" />
    <path
       id="path6241"
       d="m 114.06,121.37 a 1.77,1.77 0 0 1 2.16,-1.29 1.82,1.82 0 0 1 1.55,2 1.77,1.77 0 0 1 -2.16,1.29 1.82,1.82 0 0 1 -1.55,-2 z"
       class="w"
       inkscape:connector-curvature="0"
       style="fill:#ffcc66;stroke:#ffcc66;stroke-width:2px;stroke-miterlimit:10" />
    <path
       id="path6243"
       d="m 110.7,132.58 a 1.77,1.77 0 0 1 2.16,-1.29 1.82,1.82 0 0 1 1.55,2 1.77,1.77 0 0 1 -2.16,1.29 1.82,1.82 0 0 1 -1.55,-2 z"
       class="w"
       inkscape:connector-curvature="0"
       style="fill:#ffcc66;stroke:#ffcc66;stroke-width:2px;stroke-miterlimit:10" />
    <path
       id="path6245"
       d="m 178,209.68 a 1.77,1.77 0 0 1 2.16,-1.29 1.82,1.82 0 0 1 1.55,2 1.77,1.77 0 0 1 -2.16,1.29 1.82,1.82 0 0 1 -1.55,-2 z"
       class="w"
       inkscape:connector-curvature="0"
       style="fill:#ffcc66;stroke:#ffcc66;stroke-width:2px;stroke-miterlimit:10" />
    <path
       id="path6247"
       d="m 201,207.55 a 1.77,1.77 0 0 1 2.16,-1.29 1.82,1.82 0 0 1 1.55,2 1.77,1.77 0 0 1 -2.16,1.29 1.82,1.82 0 0 1 -1.55,-2 z"
       class="w"
       inkscape:connector-curvature="0"
       style="fill:#ffcc66;stroke:#ffcc66;stroke-width:2px;stroke-miterlimit:10" />
    <path
       id="path6249"
       d="m 218.93,199.67 a 1.77,1.77 0 0 1 2.16,-1.29 1.82,1.82 0 0 1 1.55,2 1.77,1.77 0 0 1 -2.16,1.29 1.82,1.82 0 0 1 -1.55,-2 z"
       class="w"
       inkscape:connector-curvature="0"
       style="fill:#ffcc66;stroke:#ffcc66;stroke-width:2px;stroke-miterlimit:10" />
    <path
       id="path6251"
       d="m 234.05,187.83 a 1.77,1.77 0 0 1 2.16,-1.29 1.82,1.82 0 0 1 1.55,2 1.77,1.77 0 0 1 -2.16,1.29 1.82,1.82 0 0 1 -1.55,-2 z"
       class="w"
       inkscape:connector-curvature="0"
       style="fill:#ffcc66;stroke:#ffcc66;stroke-width:2px;stroke-miterlimit:10" />
    <path
       id="path6253"
       d="m 242.13,176 a 1.77,1.77 0 0 1 2.16,-1.29 1.82,1.82 0 0 1 1.55,2 1.77,1.77 0 0 1 -2.16,1.29 1.82,1.82 0 0 1 -1.55,-2 z"
       class="w"
       inkscape:connector-curvature="0"
       style="fill:#ffcc66;stroke:#ffcc66;stroke-width:2px;stroke-miterlimit:10" />
    <path
       id="path6255"
       d="m 247.41,156.92 a 1.77,1.77 0 0 1 2.16,-1.29 1.82,1.82 0 0 1 1.55,2 1.77,1.77 0 0 1 -2.16,1.29 1.82,1.82 0 0 1 -1.55,-2 z"
       class="w"
       inkscape:connector-curvature="0"
       style="fill:#ffcc66;stroke:#ffcc66;stroke-width:2px;stroke-miterlimit:10" />
    <path
       id="path6257"
       d="m 178,209.68 a 1.77,1.77 0 0 1 2.16,-1.29 1.82,1.82 0 0 1 1.55,2 1.77,1.77 0 0 1 -2.16,1.29 1.82,1.82 0 0 1 -1.55,-2 z"
       class="w"
       inkscape:connector-curvature="0"
       style="fill:#ffcc66;stroke:#ffcc66;stroke-width:2px;stroke-miterlimit:10" />
    <path
       id="path6259"
       d="m 154.94,205 a 1.77,1.77 0 0 1 2.16,-1.29 1.82,1.82 0 0 1 1.55,2 1.77,1.77 0 0 1 -2.16,1.29 1.82,1.82 0 0 1 -1.55,-2 z"
       class="w"
       inkscape:connector-curvature="0"
       style="fill:#ffcc66;stroke:#ffcc66;stroke-width:2px;stroke-miterlimit:10" />
    <path
       id="path6261"
       d="m 137.13,195.21 a 1.77,1.77 0 0 1 2.16,-1.29 1.82,1.82 0 0 1 1.55,2 1.77,1.77 0 0 1 -2.16,1.29 1.82,1.82 0 0 1 -1.55,-2 z"
       class="w"
       inkscape:connector-curvature="0"
       style="fill:#ffcc66;stroke:#ffcc66;stroke-width:2px;stroke-miterlimit:10" />
    <path
       id="path6263"
       d="m 122.16,180.88 a 1.77,1.77 0 0 1 2.16,-1.29 1.82,1.82 0 0 1 1.55,2 1.77,1.77 0 0 1 -2.16,1.29 1.82,1.82 0 0 1 -1.55,-2 z"
       class="w"
       inkscape:connector-curvature="0"
       style="fill:#ffcc66;stroke:#ffcc66;stroke-width:2px;stroke-miterlimit:10" />
    <path
       id="path6265"
       d="m 114.25,167.37 a 1.77,1.77 0 0 1 2.16,-1.29 1.82,1.82 0 0 1 1.55,2 1.77,1.77 0 0 1 -2.16,1.29 1.82,1.82 0 0 1 -1.55,-2 z"
       class="w"
       inkscape:connector-curvature="0"
       style="fill:#ffcc66;stroke:#ffcc66;stroke-width:2px;stroke-miterlimit:10" />
    <path
       id="path6267"
       d="m 109.18,149.36 a 1.77,1.77 0 0 1 2.16,-1.29 1.82,1.82 0 0 1 1.55,2 1.77,1.77 0 0 1 -2.16,1.29 1.82,1.82 0 0 1 -1.55,-2 z"
       class="w"
       inkscape:connector-curvature="0"
       style="fill:#ffcc66;stroke:#ffcc66;stroke-width:2px;stroke-miterlimit:10" />
    <path
       id="path6269"
       d="m 308.53,116.93 c -1.63,22.39 0.35,25.36 -4.6,31.86 -3.48,4.58 -16.32,2.45 -16.32,2.45 C 281,166.67 268.87,185 256,195.83 c -1.87,1.58 -3.8,3.09 -5.77,4.52 a 108.07,108.07 0 0 1 -37.69,17.65 110.23,110.23 0 0 1 -13.13,2.44 v 0 a 107.81,107.81 0 0 1 -21.12,0.57 l 0.1,-1 0.31,-3.25 0.08,-0.79 0.28,-2.87 0.81,-8.28 0.36,-3.66 0.44,-4.46 1.41,-14.36 8,-81.72 0.48,-4.89 4.44,-44.8 3.77,-38.31 a 108.09,108.09 0 0 1 15.63,2.82 106.3,106.3 0 0 1 64.46,47.56 131.8,131.8 0 0 1 6.75,13.25 c 3.38,-3.64 16.71,-4.48 19.44,-0.57 4.24,6.06 2.68,18.24 3.48,41.25 z"
       class="x"
       inkscape:connector-curvature="0"
       style="opacity:0.12000002;isolation:isolate" />
    <path
       id="path6271"
       d="m 72.33,217.08 1.76,4.66 0.31,0.86 31,70.84 1.89,7.27 c 3.81,18.07 19.3,18.25 19.3,18.25 l -0.91,-2.83 -0.15,-1.23 L 103.47,195 c -8.79,-0.09 -20,2.27 -24.88,7.31 0,0 -6.3,6.41 -6.13,12.45 a 2.94,2.94 0 0 1 -0.06,0.38 c -0.06,0.46 -0.1,0.93 -0.12,1.41 a 2.94,2.94 0 0 1 0.05,0.53 z"
       class="p"
       inkscape:connector-curvature="0"
       style="opacity:0.2;isolation:isolate" />
    <path
       id="path6273"
       d="M 186.86,109.74 A 41.69,41.69 0 0 1 223.11,147"
       class="y"
       inkscape:connector-curvature="0"
       style="fill:none;stroke:#ffffff;stroke-width:6px;stroke-linecap:round;stroke-miterlimit:10" />
    <path
       id="path6275"
       d="M 224.14,157.92 A 8.42,8.42 0 0 1 221.4,165"
       class="y"
       inkscape:connector-curvature="0"
       style="fill:none;stroke:#ffffff;stroke-width:6px;stroke-linecap:round;stroke-miterlimit:10" />
    <path
       id="path6277"
       d="m 317.33,704.45 a 1.18,1.18 0 0 1 0.1,0.44 c 0.06,1.45 0.27,9.43 -1.77,12.42 -1.82,2.66 -6.07,5.52 -7.63,6.52 a 1.2,1.2 0 0 0 -0.56,1.08 c 0.06,1.15 0.19,3.59 0.34,6.57 0.22,4.16 -23,6 -30.17,9.69 -7.17,3.69 -27.1,-2 -27.1,-2 h -0.06 L 244,737.83 a 1.22,1.22 0 0 1 -1,-1.13 l -0.81,-15.53 a 1.22,1.22 0 0 1 1.11,-1.28 v 0 a 1.22,1.22 0 0 0 1.1,-1.38 l -0.53,-3.89 a 1.22,1.22 0 0 1 1,-1.36 l 1.84,-0.39 67,-14 a 1.22,1.22 0 0 1 1.36,0.68 l 0.18,0.39 z"
       inkscape:connector-curvature="0" />
  </g>
</svg>
