<?xml version="1.0" encoding="UTF-8" standalone="no"?>
<svg
   xmlns:dc="http://purl.org/dc/elements/1.1/"
   xmlns:cc="http://creativecommons.org/ns#"
   xmlns:rdf="http://www.w3.org/1999/02/22-rdf-syntax-ns#"
   xmlns:svg="http://www.w3.org/2000/svg"
   xmlns="http://www.w3.org/2000/svg"
   xmlns:sodipodi="http://sodipodi.sourceforge.net/DTD/sodipodi-0.dtd"
   xmlns:inkscape="http://www.inkscape.org/namespaces/inkscape"
   viewBox="0 0 3650.55 634.36"
   version="1.1"
   id="svg850"
   sodipodi:docname="nautical-waves.svg"
   inkscape:version="0.92.4 (5da689c313, 2019-01-14)">
  <metadata
     id="metadata854">
    <rdf:RDF>
      <cc:Work
         rdf:about="">
        <dc:format>image/svg+xml</dc:format>
        <dc:type
           rdf:resource="http://purl.org/dc/dcmitype/StillImage" />
      </cc:Work>
    </rdf:RDF>
  </metadata>
  <sodipodi:namedview
     pagecolor="#ffffff"
     bordercolor="#666666"
     borderopacity="1"
     objecttolerance="10"
     gridtolerance="10"
     guidetolerance="10"
     inkscape:pageopacity="0"
     inkscape:pageshadow="2"
     inkscape:window-width="1920"
     inkscape:window-height="1016"
     id="namedview852"
     showgrid="false"
     inkscape:zoom="0.37528591"
     inkscape:cx="1623.1201"
     inkscape:cy="-147.70972"
     inkscape:window-x="1680"
     inkscape:window-y="27"
     inkscape:window-maximized="1"
     inkscape:current-layer="svg850" />
  <defs
     id="defs832">
    <style
       id="style815">.a{fill:none;}.b{fill:#9aeff3;opacity:0.83;}.b,.c,.d,.e,.f{isolation:isolate;}.c,.e,.f{fill:#2abadb;}.c{opacity:0.85;}.d{fill:#fff;}.d,.e{opacity:0.45;}.f{opacity:0.77;}.g{fill:url(#a);}</style>
    <linearGradient
       id="a"
       x1="1825.28"
       y1="2739.94"
       x2="1825.28"
       y2="3.29"
       gradientUnits="userSpaceOnUse">
      <stop
         offset="0.02"
         stop-color="#041845"
         id="stop817" />
      <stop
         offset="0.31"
         stop-color="#17347b"
         id="stop819" />
      <stop
         offset="0.51"
         stop-color="#0357a7"
         id="stop821" />
      <stop
         offset="0.66"
         stop-color="#0a6db3"
         id="stop823" />
      <stop
         offset="0.77"
         stop-color="#1888c0"
         id="stop825" />
      <stop
         offset="0.89"
         stop-color="#28a7ce"
         id="stop827" />
      <stop
         offset="1"
         stop-color="#53d6db"
         id="stop829" />
    </linearGradient>
  </defs>
  <title
     id="title834">nautical-waves</title>
  <line
     class="a"
     x1="3383.55"
     y1="355.76"
     x2="3383.55"
     y2="187.93"
     id="line836" />
  <path
     class="b"
     d="M3650.55,285.25v276.5H550.92V236.57l-3.74-.06c1.25-.63,2.49-1.27,3.74-1.89q22.45-11.33,45.65-21.52l.28-.12A952.66,952.66,0,0,1,697,175.61q46.69-14.55,94.48-24.48,10.44-2.19,20.93-4.15,39.93-7.53,80.4-12.09a1237.29,1237.29,0,0,1,147.62-7.69q29.55.18,59.14,1.66a1548.64,1548.64,0,0,1,204.34,24.23q15.33,2.84,30.61,5.94,27.45,5.58,54.64,12,5.1,1.2,10.18,2.44c53.41,12.95,106,28.25,157.26,45.41,27.13,9.08,54.26,18.7,81.48,28.18,32.21,11.21,64.55,22.23,97.16,31.92h0c65.4,19.44,131.92,33.57,200.76,33.35,71.37-.23,139.82-15.83,206.88-37.52q5.34-1.73,10.66-3.5c55-18.35,109.19-40.49,163.33-61.3q12-4.62,24.06-9.14,8-3,16.07-5.95a1394.32,1394.32,0,0,1,149.17-45.72c62.55-15.24,125.76-25.41,189.46-29.09q10.35-.61,20.72-1A862.93,862.93,0,0,1,2876,127.95c.7.1,1.4.2,2.11.32a822.45,822.45,0,0,1,90.24,19l.47.13q3.36.9,6.7,1.84,9.57,2.64,19.09,5.47c23.36,6.92,46.55,14.57,69.65,22.61,56.6,19.73,112.65,41.9,169.31,61.89q15.75,5.55,31.56,10.85,9.55,3.2,19.14,6.26,15,4.81,30.13,9.26c19.57,5.75,39.28,11,59.17,15.55q5,1.16,10,2.23c46.9,10.16,94.83,16.35,144.4,16.19C3569.72,299.45,3610.48,294.06,3650.55,285.25Z"
     id="path838" />
  <path
     class="c"
     d="M3650.55,310.83V622.28H431.92V297.1l-3.74-.05c1.25-.63,2.49-1.27,3.74-1.89q18.28-9.24,37.07-17.7,4.41-2,8.86-3.95,36.08-15.84,73.07-28.51,38.44-13.23,77.7-23.18a1077,1077,0,0,1,130.55-24.64q13.77-1.74,27.57-3.16,12.75-1.29,25.54-2.33c76.44-6.15,153.77-5,230.75,2.17q27.79,2.58,55.52,6.18c51.8,6.72,103.3,16,154.11,27.51a1908.13,1908.13,0,0,1,184.92,51.89c21.72,7.27,43.45,14.89,65.22,22.5,29.74,10.4,59.57,20.79,89.61,30.28,73.06,23.11,147.37,40.92,224.58,40.67,71.37-.24,139.82-15.83,206.88-37.52,51.61-16.69,102.4-37,153.07-56.71,20.35-7.91,40.69-15.73,61.05-23.19,36.74-13.45,73.76-25.48,111-35.8q13.68-3.8,27.42-7.26c80-20.26,161.19-32.33,243.06-33.25a854.07,854.07,0,0,1,152.25,11.71q30.47,5.14,61,12.69,8.28,2,16.57,4.28c93.3,25.17,183.45,63.57,275.4,95.51,16.77,5.82,33.6,11.43,50.52,16.71,75.24,23.47,152.27,40.33,233.7,40.07,60.67-.2,119.22-11.49,176.6-28.2C3607.37,325.58,3629,318.44,3650.55,310.83Z"
     id="path840" />
  <path
     class="d"
     d="M3650.55,7.36V446.24H2.55V69.36C264.33-10.09,554.4,23.92,812.4,107.5q9.06,2.92,18.07,5.94c20.76,6.95,41.52,14.22,62.32,21.5,49.58,17.33,99.41,34.68,150.08,47.67,18.49,4.74,37.09,8.9,55.83,12.27,32.9,5.92,66.24,9.4,100.15,9.29,65.55-.22,128.56-13.78,190.29-33.07q5.3-1.65,10.56-3.36c56.46-18.26,111.9-41,167.32-62.29q5.77-2.23,11.54-4.42,14.51-5.53,29-10.86c41.3-15.12,83-28.4,125-39.38q24.1-6.31,48.35-11.58a1003.67,1003.67,0,0,1,158.63-21.86q9.28-.51,18.57-.83c80.39-2.71,161.53,5.43,243,27.41,74.72,20.16,147.37,49.05,220.63,76L2433,124c24.28,8.83,48.63,17.38,73.18,25.27,37.25,12,74.92,22.41,113.35,29.94,40.67,8,82.18,12.71,124.95,12.57q13.73,0,27.3-.86c35.37-2.06,70.05-7.78,104.22-15.92l2-.48c30.62-7.38,60.83-16.69,90.8-27q12.93-4.45,25.79-9.15c24.08-8.77,48-18,71.9-27.35h0l10.59-4.14c20.55-8,41.07-16,61.6-23.7q7.25-2.71,14.5-5.37,20.52-7.52,41.35-14.52C3315.63,22.58,3443.94-4.21,3573.24.55A729.11,729.11,0,0,1,3650.55,7.36Z"
     id="path842" />
  <path
     class="e"
     d="M3650.55,103.27V505H2.55V95.86c128-19.29,259.84-15.68,389.2,4,2.69.41,5.39.82,8.08,1.25q17.55,2.76,35,5.93h0a4.72,4.72,0,0,1,.9.16h0Q451.12,110,466.41,113q9.12,1.81,18.18,3.74h0q9.59,2,19.12,4.17,13.35,3,26.63,6.18h0q37.75,9.06,74.88,19.7,41.24,11.78,81.52,25.29l10.18,3.44c20.71,7,41.42,14.32,62.19,21.57q13.78,4.81,27.61,9.56,12.45,4.27,24.93,8.43c79.13,26.29,159.53,48,243.47,47.73,68.1-.23,133.45-14.85,197.48-35.35l3.37-1.08c48.3-15.62,95.86-34.5,143.29-53,21.54-8.4,43-16.71,64.6-24.59,34.12-12.49,68.5-23.73,103.11-33.45q5.79-1.62,11.58-3.19a1098.92,1098.92,0,0,1,154-30.56q23.5-2.89,47.11-4.6c91.74-6.62,184.53.41,277.79,25.56,96,25.9,188.59,66.23,283.45,98.23q17.7,6,35.53,11.52c72.24,22.36,146.2,38.35,224.35,38.1,80.37-.27,156.91-20.58,232-46.95,14.46-5.07,28.86-10.37,43.22-15.8l2-.76c32.63-12.35,65.06-25.32,97.5-37.72q9.54-3.66,19.09-7.23,7.47-2.8,14.94-5.54,27.1-9.92,54.72-19,17.08-5.56,34.35-10.75,20.12-6,40.45-11.44,39.3-10.5,79.29-18.32c69.45-13.53,140.22-20.44,211.29-17.83C3505.4,62,3581.07,76.36,3650.55,103.27Z"
     id="path844" />
  <path
     class="f"
     d="M3650.55,623,550.92,561.75,2.55,581.41V249.1q14.91-7.59,30.28-14.38c76.73-33.85,161.25-52.63,246.19-57.38,27.9-1.56,55.79-1.7,83.61-.58,78.95,3.15,157.36,16.46,233.94,36.34q16.08,4.17,32,8.72c36.54,10.4,72.62,22.21,108.1,35,145.47,52.52,290,123.45,446.31,121.24,113.09-1.6,217.36-35.77,319.77-76.14C1548,284.09,1592.88,265,1638,247.06c43.12-17.19,86.45-33.4,130.53-46.67C1953,144.9,2137.29,158.51,2316.81,210q16.11,4.62,32.17,9.64,32.41,10.13,64.6,21.78c75.49,27.27,150.73,59.47,227.51,83.84,71.17,22.6,143.64,38.47,218.81,37.41,91.74-1.3,179-27.78,264.78-59.35,41.39-15.24,82.43-31.66,123.46-47l9-3.36,7.9-2.9q58.21-21.25,118.44-39.09c87-25.66,176.61-45.32,267-56.9V622.25Z"
     id="path846" />
  <path
     class="g"
     d="M 3650.55,228.36 3650.48,634.90702 0,634.36 l 2.55,-354 c 44.43,-12 90.61,-19.53 136.11,-24.77 110.71,-12.75 223.43,0.28 334.34,21.95 27.44,5.33333 54.75,11.56333 81.93,18.69 75.25,19.58 149.22,45.46 220.66,75.94 57.11,24.37 114.25,51.78 172.24,74.16 67.46,26 136.09,45.26 207.18,45 68.88,-0.28 135,-18.8 199.86,-45 2.34,-0.94 4.67,-1.9 7,-2.86 72.34,-29.82 143.06,-68.7 214.12,-101.85 6.8,-3.16667 13.6067,-6.27333 20.42,-9.32 46.3609,-20.91057 94.0711,-38.69042 142.81,-53.22 75.32,-22.17 151.55,-34.81 228.41,-34.81 64.27,-0.0974 128.2204,9.04272 189.89,27.14 7.8,2.29333 15.6033,4.73667 23.41,7.33 2.1267,0.70667 4.2567,1.42667 6.39,2.16 131,45 255.81,123.36 388.09,165.43 55.52,17.66 112.36,28.94 171.53,28.7 53.5,-0.22 105.36,-11.44 156.22,-28.7 90.17,-30.59 177.21,-80.13 264.76,-121 3.7667,-1.76 7.54,-3.5 11.32,-5.22 45.268,-20.86163 91.725,-39.03975 139.13,-54.44 10.12,-3.24667 20.2667,-6.33333 30.44,-9.26 12.86,-3.7 25.77,-7.12667 38.73,-10.28 70.07,-17 141.43,-25.65 213.08,-22.29 18,0.83 31.98,2.03 49.93,4.52 z"
     id="path848"
     inkscape:connector-curvature="0"
     style="fill:url(#a)"
     sodipodi:nodetypes="ccccscccccccccccccccccccccccc" />
</svg>
