<?xml version="1.0" encoding="UTF-8" standalone="no"?>
<svg
   xmlns:dc="http://purl.org/dc/elements/1.1/"
   xmlns:cc="http://creativecommons.org/ns#"
   xmlns:rdf="http://www.w3.org/1999/02/22-rdf-syntax-ns#"
   xmlns:svg="http://www.w3.org/2000/svg"
   xmlns="http://www.w3.org/2000/svg"
   xmlns:sodipodi="http://sodipodi.sourceforge.net/DTD/sodipodi-0.dtd"
   xmlns:inkscape="http://www.inkscape.org/namespaces/inkscape"
   viewBox="0 0 3648 3262"
   version="1.1"
   id="svg1311"
   sodipodi:docname="nautical-bg.svg"
   inkscape:version="0.92.4 (5da689c313, 2019-01-14)">
  <metadata
     id="metadata1315">
    <rdf:RDF>
      <cc:Work
         rdf:about="">
        <dc:format>image/svg+xml</dc:format>
        <dc:type
           rdf:resource="http://purl.org/dc/dcmitype/StillImage" />
      </cc:Work>
    </rdf:RDF>
  </metadata>
  <sodipodi:namedview
     pagecolor="#ffffff"
     bordercolor="#666666"
     borderopacity="1"
     objecttolerance="10"
     gridtolerance="10"
     guidetolerance="10"
     inkscape:pageopacity="0"
     inkscape:pageshadow="2"
     inkscape:window-width="1920"
     inkscape:window-height="1016"
     id="namedview1313"
     showgrid="false"
     inkscape:zoom="0.25628449"
     inkscape:cx="2077.6244"
     inkscape:cy="959.87081"
     inkscape:window-x="1680"
     inkscape:window-y="27"
     inkscape:window-maximized="1"
     inkscape:current-layer="svg1311" />
  <defs
     id="defs1107">
    <style
       id="style1096">.a{fill:url(#a);}.b{fill:#271f5b;isolation:isolate;}.c{fill:none;}.d{fill:#fff;}</style>
    <linearGradient
       id="a"
       x1="1824"
       y1="11723.99"
       x2="1824"
       y2="9170.04"
       gradientTransform="matrix(1, 0, 0, -1, 0, 11600)"
       gradientUnits="userSpaceOnUse">
      <stop
         offset="0.01"
         stop-color="#271f46"
         id="stop1098" />
      <stop
         offset="0.31"
         stop-color="#31398e"
         id="stop1100" />
      <stop
         offset="0.57"
         stop-color="#1b5abd"
         id="stop1102" />
      <stop
         offset="0.84"
         stop-color="#00bdee"
         id="stop1104" />
    </linearGradient>
  </defs>
  <title
     id="title1109">nautical-bg</title>
  <polygon
     class="a"
     points="0 0 3648 0 3648 2339.39 0 2359.05 0 0"
     id="polygon1111" />
  <path
     class="b"
     d="M 3651.8025,2086 V 3262 H 2.47 V 2086 h 39 v -14 h 93.1 v -87.24 c 4.88,0.79 10,0.95 14.59,2.51 6.11,2.07 11.84,5.23 19.88,8.89 4.68,-0.5 11.86,-1.93 19.05,-2 41.14,-0.2067 82.28,-0.2067 123.42,0 5.01901,0.026 10.00168,0.8533 14.76,2.45 l 14.3,-4.82 8.17,8 c 4.28,-8.5 10.82,-16.12 12.38,-27.76 0.79,-5.89 1.22,-11.76 1.43,-17.62 0.39,-10.73 0,-21.42 -0.18,-32.11 -0.2,-9.33 -4,-18.57 -6.39,-29 l 4.38,-4.71 29.56,27.41 c 2.46,-12.55 -1.29,-25.73 1.78,-38.47 0.19,-0.83 0.42,-1.66 0.68,-2.49 0.19,-0.6 1.17,-1 2.3,-1.83 1.74,1.82 3.44,3.6767 5.1,5.57 9.75,11.07 18.5,23.38 29,36.26 v -28 l 6,-2.36 v 0 l 0.6,-0.24 0.3,0.4 v 0 l 28.91,37.83 c 3.68,-8.67 3.7,-10.13 1.77,-21.79 v -17.69 l 4.64,-2.6 c 5.5,3.85 9.68,8.74 13.54,13.84 v 0 c 3.08,4 6,8.25 9.15,12.17 2.9,3.56 6.27,6.74 10,10.67 v -24.58 l -1.59,-0.31 5.82,-10.76 c 8,8.22 15.12,15.64 22.3,23 l 0.1,0.11 v 0 c 2.55,2.65 5,5.4 7.72,7.88 9.6,8.8 18.27,18.9 31.44,23 h 14.29 c 6.1,-2.94 13.05,-5.28 18.83,-9.3 0.87,-0.61 1.74,-1.22 2.6,-1.85 13.41433,-9.6618 25.35255,-21.2227 35.44,-34.32 2.76,-3.59 5.85,-6.92 8.78,-10.37 5.29,0.82 6.3,4.84 6.56,8.49 0.24826,5.4035 0.1012,10.8179 -0.44,16.2 -0.4,5.31 -1.23,10.59 0,16.76 L 685.83,1885 c 4.7,0.6 5.39,3.8 5.39,7.53 v 26.78 c 7.92,-4.87 11.11,-12.43 16.16,-18.23 5.05,-5.8 9.8,-11.81 15.1,-18.24 h 5.92 v 38.7 l 32,-41.41 c 5.55,1.4 5.72,5.47 4.86,9.91 -2.09,10.82 -4.3,21.61 -6.6,33.14 6.8,-6.82 12.41,-13.8 19.35,-19 7.14,-5.35 10.36,-15.52 20.78,-17.35 4.31,6.78 -0.11,11.9 -2,17.53 -1.89,5.63 -2.91,11.8 -5.44,17.54 v 18.71 c -4.2,6 -4.87,12.79 -4.8,19.91 0.04,3.7067 0.0667,7.4167 0.08,11.13 v 47.17 c 6.42,-1.37 3.56,-6.61 6,-10.32 l 7.48,2 9.76,-4.91 c 0.49,-4.17 1.27,-8.45 1.77,-12.77 0.29798,-2.4157 0.46156,-4.8461 0.49,-7.28 0,-5.4 0.0267,-10.8 0.08,-16.2 0.0667,-14.9 0.10333,-29.8033 0.11,-44.71 V 1852 c 2.82,-5.26 6.52,-4.7 10,-4.71 13.58,0 27.16333,-0.02 40.75,-0.06 3.39,0 6.77,-0.39 10.42,-0.61 2.85,-9.46 1.18,-18.37 1.49,-27.12 0.31,-8.53 0.09,-17.07 0.09,-25.61 v -27.79 h 46.31 c 0.21,-4.14 0.3,-7.13 0.53,-10.11 2.72,-35.16 2,-70.39 2.06,-105.61 0,-3.43 -0.53,-7.13 4,-9.8 h 106.73 l 5.11,4.82 c -0.47,10.51 -1,20.46 -1.33,30.42 -0.34,10.66 -0.14,21.42 0.35,32 3,65.68 1.35,131.37 1.51,197.05 0,10.6667 0.083,21.3333 0.25,32 1.2677,7.7172 2.0061,15.512 2.21,23.33 0.12,3.77 0.16,7.53 0.16,11.3 0,12.39 -0.55,24.79 -0.21,37.16 0.12,4.14 -0.36,8.3 -0.58,12.92 h 16 c 0.33,-6 1,-11.87 0.86,-17.72 -0.2,-6.39 1.78,-12 4.4,-18.53 h 34.38 c 0.22,-2.88 0.51,-5.33 0.67,-7.65 0.08,-1.09 0.13,-2.15 0.14,-3.21 v -2 c 0.08,-19.9 0,-39.82 0.2,-59.71 0.053,-2.1005 0.2698,-4.1936 0.65,-6.26 0.4,-2.34 0.9,-4.67 1.24,-7 l 9.08,-1.75 c 0.4,-5.28 0.78,-10.21 1.22,-16 l 9.76,-2.78 c 3.87,-10.52 3.51,-21.66 3.48,-32.79 V 1769 c 7.29,-5.23 14.48,-2.59 21.21,-3.09 6.49,-0.48 13,-0.1 19.66,-0.1 3.84,-13.7 -2.58,-27.92 4.92,-40.36 h 13.73 c 3.3,-7 -1.78,-15.07 4,-21.9 h 13 c 5.67,6.23 0.6,14.07 4.41,21 9.16,3.61 19.44,0.07 29.86,2.25 1.77,7.41 4.89,14.56 1.76,23.07 -1.56,4.26 0,9.67 0.2,15.7 11.56,0.09 21.91,0.22 32.26,0.26 10.35,0.04 20.87,0 29.93,0 5.27,2.79 4.57,6.49 4.58,9.93 0,18.6267 0.027,37.2567 0.08,55.89 v 114.12 c 0,3.78 0.14,7.55 0.21,11.51 9.74,3 18.48,1.63 27.52,1.32 0.83,-2 2.1,-3.68 2.17,-5.41 0.22,-5.4867 0.4567,-10.9733 0.71,-16.46 0.74,-16.89 1.48,-33.8 1.55,-50.69 0.35,-94.7 0.29,-189.4 0.54,-284.1 0,-8.43 1.71,-16.85 1.73,-25.29 0,-8 -1.24,-16.07 -1.72,-24.12 0.023,-2.6117 0.2335,-5.2184 0.63,-7.8 17.37,-9.14 37.79,-8.1 54.35,-18.12 v -20.46 l -9.07,-12.47 -9.81,-0.57 -5.86,-5.14 c -0.22,-3.14 -0.43,-6.18 -0.64,-9.24 l -8.49,-4.27 v -19.22 l -11.34,-9.13 v -14.7 c 10.28,-12 25.18,-14.69 41.06,-18.11 v -23.18 c 10.22,-4.33 20.65,1.28 29.83,-4.86 1,-9.57 2.1,-19.46 3.13,-28.91 l -4.8,-7.32 4.5,-7 c -0.34,-10.79 2.1,-21.68 -2.41,-32.27 l 4.66,-7.14 v -14.26 l -4.45,-6.93 8.41,-9.87 c 1.48,2.89 3.18,6.24 5,9.84 -3,9 -2.94,19.66 -0.69,26 v 34.21 l 3.29,7.54 -3.38,5.53 c 0.58,11.37 1.12,21.75 1.71,33.23 l 22.37,0.93 c 5.43,8 0.72,16.61 3.78,24.95 14.72,1.71 28.51,6.88 40.32,17.74 V 1446 l -10.19,8.08 c -1.06,7.88 -2,14.7 -2.87,21.41 l -7,3.25 c -0.28,5.31 0.11,11.07 -6.73,14.35 l -7.91,0.47 c -10.74,5.82 -14,18.37 -9.3,35.81 8,2.44 16.58,0.83 25,1.18 8.13,0.34 16.29,0.08 24.86,0.08 l 6.11,5.69 c 0.1545,0.6156 0.2714,1.2401 0.35,1.87 2.84,78.67 2,157.36 2.09,236.05 0,3.37 -0.48,6.74 -0.77,10.63 7.56,3.81 15.78,1.31 23.68,1.72 8.12,0.43 16.28,0.1 24.52,0.1 l 6.07,5.68 c 0.12,1.63 0.32,3.15 0.33,4.67 0,28.6667 0.02,57.3533 0.06,86.06 v 43.18 c 0,2.32 -0.41,4.8 0.25,6.93 0.59,1.9 2.41,3.41 4.88,6.65 0.86,-4 1.67,-6 1.67,-8 0,-12.72 0.24,-25.23 4,-37.74 0.3915,-1.3602 0.6626,-2.7523 0.81,-4.16 0.2679,-3.7559 0.2512,-7.5266 -0.05,-11.28 -0.125,-2.1882 -0.125,-4.3818 0,-6.57 0.87,-16.94 2,-33.87 3,-50.24 2.36,-4.3 4.76,-8.16 6.66,-12.26 2.48,-5.36 7.08,-6.67 12,-6.81 4.85,-6.73 -2.67,-12.95 0.47,-20.16 l 8,1 v 19 l 6.2,0.57 c 0.61,-3.53 1.19,-6.83 1.76,-10.14 0.61,-0.43 1.19,-1.2 1.82,-1.25 24.05,-1.85 39,-0.91 45.89,3 0.29,5.39 0.59,11.07 0.9,16.75 h 1.25 c 0.35,-3.74 0.69,-7.48 1.06,-11.47 3.59,-3.11 8,-1.54 12.12,-1.8 4.12,-0.26 8.46,-0.06 13.39,-0.06 0.74,-3 1.75,-5.5 1.85,-8 0.28,-7 -0.07,-14 0.28,-21 0.79,-15.78 1.85,-31.54 2.81,-47.44 -7.11,-7 -9.09,-15.27 -6.7,-25.49 l 6.5,-3.16 c 2.7328,4.8788 4.2361,10.3498 4.38,15.94 0.7,26.27 1.73,52.53 2.58,78.79 0.13,3.91 0.46,7.61 5.11,10.54 1.26,-2.69 2.91,-5.16 3.55,-7.86 0.64,-2.7 0.12,-5.41 0.22,-8.12 0.75,-20.83 1.47,-41.66 2.41,-62.48 0.11,-2.41 1.56,-4.75 2.59,-7.71 6.48,4.57 3.52,11.61 5.9,14.36 -0.62,9.12 -1.42,16.37 -1.54,23.62 -0.22,14.36 -0.06,28.72 -0.06,43.16 1.55,2.39 3,4.63 4.73,7.28 v 9.83 l 5,6.79 V 1893 c 5.66,0.7 10.55,1.26 15.43,2 0.62,0.09 1.13,1 2.61,2.42 V 1926 h 27.81 c 0.15,-3.12 0.42,-6.11 0.43,-9.1 0.06,-16.69 -0.73,-33.42 0.21,-50.06 0.2267,-4 0.4333,-8 0.62,-12 0.5933,-12.6667 1.0067,-25.3133 1.24,-37.94 1.12,-55 -0.38,-110.08 0,-165.12 0.56,-71.4 0.13,-142.82 0.16,-214.23 0,-2.66 0.25,-5.32 0.42,-8.66 14.95,-2 29.63,-0.18 46.58,-1.18 l 3.72,-3.41 c -0.83,-10.05 -1.42,-17.3 -2,-24.69 l 9.37,-8.7 c 1,-9.09 2.24,-20.08 3.57,-31.94 l 5.93,-0.63 c -0.9419,12.6079 1.3974,25.2447 6.79,36.68 l 20.4,1 c 6,7.1 1,15.6 4.29,23 4.05,3.18 8.09,3.35 11.92,-0.64 3.27,-28.83 4.74,-57.47 1.75,-86.34 -1.26,-3.45 -2.62,-7.2 -4.08,-11.19 5.43,-2.69 9.17,-2.68 12.48,1.79 l -4.14,12 c 1.82,20.74 3.44,39.48 -0.23,58.26 -0.415,2.2964 -0.4353,4.6468 -0.06,6.95 0.4921,2.1222 1.1611,4.1995 2,6.21 -0.89,2.93 -1.67,5.46 -2.54,8.32 l 5.57,6.72 h 34.1 c 0.95,2.84 2.15,5.19 2.47,7.66 0.39,3.05 0,6.19 0,9.3 0.04,119.0133 0.077,238.0133 0.11,357 v 53.29 c 5.32,6.15 11.43,2.94 16.93,3.7 2.86,-4.12 1.57,-8.52 1.58,-12.61 v -45.21 c 0.1,-102.92 0.1833,-205.8367 0.25,-308.75 0,-4.07 -1.64,-8.65 3,-12.51 11.83,-1.69 24.65,0.88 38.27,-1.68 0.15,-12.46 0.29,-24.27 0.45,-36.86 13.25,-2.76 25.7,-0.18 38.08,-1.83 4.08,-8.5 -2,-18.56 4,-27.18 h 26.18 c 3.41,11.15 0.3,22.5 2.22,34.39 20.28,0.48 40.33,0.07 61.4,0.22 0.94,2 2.52,4.18 3,6.58 0.55,3 0.17,6.19 0.17,9.29 0,43.4667 0.017,86.9367 0.05,130.41 v 12.31 c 8.1822,2.6999 17,2.7977 25.24,0.28 v -61.14 l 7,-8.08 5.22,9.25 V 1600 h 50.1 c 7,8.18 14.18,16.22 21,24.56 3,3.73 3.24,8.45 3.22,13.22 -0.12,19.8 0,39.59 0,59.38 v 11 l 14.13,0.88 V 1641 c 0,-22.9 -0.77,-45.84 0.27,-68.69 1,-22.27 -2,-44.53 0.34,-66.64 4,-4.07 8.61,-5.21 13.88,-5.15 11.63,0.16 23.25,0.05 35.36,0.05 2.71,-10.93 0,-21.86 2,-32.52 1.51,-0.83 2.82,-2.18 4.14,-2.19 17.77,-0.14 35.54,-0.09 53.77,-0.09 4.86,12.82 -0.78,26.07 3.77,38.28 l 43.54,1.4 c 1.35,1.23 1.66,1.47 1.92,1.76 0.2576,0.2838 0.4823,0.5958 0.67,0.93 0.2245,0.3041 0.3999,0.6416 0.52,1 0.1266,0.7616 0.2134,1.5293 0.26,2.3 v 3.49 c 0.093,127.5333 0.1867,255.0633 0.28,382.59 v 5.13 c 3e-4,0.3871 0.061,0.7717 0.18,1.14 0.1877,0.4619 0.4083,0.9097 0.66,1.34 2.88,3.62 6.12,3.65 10.13,-0.27 0.06,-1 0.15,-2.09 0.24,-3.23 0.13,-1.71 0.26,-3.54 0.27,-5.37 0.07,-18.63 0.18,-37.26 0,-55.89 -0.06,-6.25 0.56,-12.23 3.83,-18.35 l 16.33,-0.9 c 4.3,-3.89 2.68,-8.45 2.7,-12.51 0.15,-32.21 0.11,-64.42 0.14,-96.64 v -11.74 c 5.54,-7 12.74,-2.22 17.89,-4.84 4,-2.43 3.17,-6.15 3.18,-9.56 v -51.5 c 13.56,-7 27.94,-1.13 42.66,-4.4 1.22,-4.94 2.64,-10.36 3.89,-15.83 2.92,-12.85 7.58,-24.95 17.38,-34.1 4.38,-4.08 10.11,-6.72 15.2,-10 2.21,-1.44 4.37,-3 5.74,-3.92 l 4.44,-21.25 c 3.26,3.71 5.48,5.23 6.23,7.28 1.55,4.28 2.33,8.85 3.59,14 l 14.5,5.24 c 18,15.23 29.31,33.76 29.05,58.33 l 13.86,2.06 4,4.77 v 39.37 c 8.26,3.28 16.57,0.12 25.33,2.28 0.23,3.19 0.68,6.54 0.68,9.89 0.07,60.54 0,121.09 0.22,181.63 0,7.94 1.27,15.88 2,24.57 h 27.34 c 0.7775,1.1635 1.479,2.376 2.1,3.63 2.224,4.524 3.3153,9.5207 3.18,14.56 0,6.51 -0.93,13.13 2,19.41 0.6318,1.4518 0.6642,3.0945 0.09,4.57 -2.89,6.15 0.46,11.63 0.69,17.72 h 13.22 c 0.11,-9.51 -0.11,-18.71 0.36,-27.88 0.4867,-9.7933 0.8833,-19.58 1.19,-29.36 2.42,-75.86 -0.12,-151.75 1,-227.61 0,-1.16 0.17,-2.32 0.35,-4.68 10.83,-6.87 23.77,-1 36.45,-4.28 v -42.63 c 10.87,-6.74 22.75,-0.71 34.21,-4.67 2.15,-9.62 0.67,-19.66 0.93,-29.55 0.27,-10.08 0.06,-20.18 0.06,-30.27 V 1522 l 8.15,-3.83 c 0.65,2.63 1.32,4.06 1.32,5.49 0.08,25.6133 0.1067,51.2267 0.08,76.84 v 11.26 c 8.15,4.76 16,2.08 23.55,2.56 7.25,0.47 14.55,0.1 22.64,0.1 0.61,16.63 -0.25,32.3 0.74,47.49 h 25.84 l 4.29,4.34 v 308.07 l 1.49,0.06 c 0.18,-2.85 0.53,-5.7 0.53,-8.55 v -13.67 c 0,-15.39 -0.11,-30.78 0.09,-46.16 0,-1.79 0,-3.58 0.08,-5.37 0.21,-12.69 1.35,-25.36 2.3,-38 0.12,-1.72 1.52,-3.34 2.2,-4.74 14.85,-2 50.86,-1.4 58.6,0.7 16.06,-3.42 31.56,-0.91 47,-1.83 l 6.33,6 v 116.6 l 6.1,3.84 9.61,-7.49 h 14.19 c 11.74,7.08 25.75,10.72 36.28,19.44 2,-1.58 2.34,-1.78 2.6,-2.05 0.2852,-0.251 0.5165,-0.5571 0.68,-0.9 0.1381,-0.3637 0.2027,-0.7512 0.19,-1.14 V 1891 l 2.24,-2.36 v 0 l 4,-4.14 h 67.28 c 0.9563,-3.7359 1.4003,-7.5845 1.32,-11.44 0,-4.08 -0.32,-8.19 -0.36,-12.26 -0.08,-6.85 0.59,-13.58 4.82,-19.89 h 72 c 1.007,2.2153 1.8884,4.4856 2.64,6.8 0.41,1.44 0.11,3.08 0.15,4.63 l 0.06,2.4 c 0.67,25.09 1.39,50.18 1.9,75.27 0.1,4.54 -0.77,9.09 -1.28,14.58 3.1,3.81 7.81,5.63 14.52,5 0,-0.65 0,-1.29 0.07,-1.93 V 2034 h 140 v 52 z"
     id="path1113"
     inkscape:connector-curvature="0"
     style="isolation:isolate;fill:#271f5b"
     sodipodi:nodetypes="cccccccccccccccccccccccccccccccccccccccccccccccccccccccccscsccccccccscccccccccccccccccsccccccccccccscccccccccccccccccccccccccccscccscccccccccccccccccccccccccccccccccccccccccccccccccccccccccsccscccccccccccccccccscscccccccsccccccccccccccccccccccccccccccccccccccccccccccccccccccccccsccccccccccsccsccccccccccccccccccccccccccccccccccccccccccccccccccccccccccccccsccccccccccccssccccccccccccccccccccccccccccccccccc" />
  <line
     class="c"
     x1="3383.47"
     y1="2133.4"
     x2="3383.47"
     y2="1965.57"
     id="line1115" />
  <rect
     class="d"
     x="1985.74"
     y="1533.21"
     width="8.79"
     height="8.31"
     id="rect1117" />
  <rect
     class="d"
     x="2009.46"
     y="1447"
     width="8.79"
     height="8.31"
     id="rect1119" />
  <rect
     class="d"
     x="2023.96"
     y="1447"
     width="8.79"
     height="8.31"
     id="rect1121" />
  <rect
     class="d"
     x="1155.48"
     y="1802.87"
     width="6.77"
     height="8.28"
     id="rect1123" />
  <rect
     class="d"
     x="1228.83"
     y="1808.4"
     width="6.77"
     height="8.28"
     id="rect1125" />
  <rect
     class="d"
     x="1141.57"
     y="1867.72"
     width="6.77"
     height="8.28"
     id="rect1127" />
  <rect
     class="d"
     x="1141.57"
     y="1829.5"
     width="6.77"
     height="8.28"
     id="rect1129" />
  <rect
     class="d"
     x="1155.48"
     y="1829.5"
     width="6.77"
     height="8.28"
     id="rect1131" />
  <rect
     class="d"
     x="1514.61"
     y="1846.53"
     width="9"
     height="9"
     id="rect1133" />
  <rect
     class="d"
     x="1514.61"
     y="1805"
     width="9"
     height="9"
     id="rect1135" />
  <rect
     class="d"
     x="1533.11"
     y="1805"
     width="9"
     height="9"
     id="rect1137" />
  <rect
     class="d"
     x="1811.64"
     y="1778.87"
     width="7.18"
     height="9.27"
     id="rect1139" />
  <rect
     class="d"
     x="1176.2"
     y="1743.68"
     width="6.77"
     height="8.28"
     id="rect1141" />
  <rect
     class="d"
     x="1483.2"
     y="1563.74"
     width="8.79"
     height="8.31"
     id="rect1143" />
  <rect
     class="d"
     x="1409.49"
     y="1656.1"
     width="8.79"
     height="8.31"
     id="rect1145" />
  <rect
     class="d"
     x="1446.05"
     y="1631.3"
     width="8.79"
     height="8.31"
     id="rect1147" />
  <rect
     class="d"
     x="1465.58"
     y="1759.69"
     width="8.79"
     height="8.31"
     id="rect1149" />
  <rect
     class="d"
     x="2077.16"
     y="1533.21"
     width="8.79"
     height="8.31"
     id="rect1151" />
  <rect
     class="d"
     x="2092.07"
     y="1548.29"
     width="8.79"
     height="8.31"
     id="rect1153" />
  <rect
     class="d"
     x="2092.07"
     y="1600.64"
     width="8.79"
     height="8.31"
     id="rect1155" />
  <rect
     class="d"
     x="2077.16"
     y="1600.64"
     width="8.79"
     height="8.31"
     id="rect1157" />
  <rect
     class="d"
     x="2146.15"
     y="1702.42"
     width="8.79"
     height="8.31"
     id="rect1159" />
  <rect
     class="d"
     x="2208.63"
     y="1666.86"
     width="8.79"
     height="8.31"
     id="rect1161" />
  <rect
     class="d"
     x="2357.5"
     y="1666.86"
     width="8.79"
     height="8.31"
     id="rect1163" />
  <rect
     class="d"
     x="2287.32"
     y="1600.45"
     width="8.79"
     height="8.31"
     id="rect1165" />
  <rect
     class="d"
     x="2322.46"
     y="1600.45"
     width="8.79"
     height="8.31"
     id="rect1167" />
  <rect
     class="d"
     x="2322.46"
     y="1544.14"
     width="8.79"
     height="8.31"
     id="rect1169" />
  <rect
     class="d"
     x="2357.5"
     y="1544.14"
     width="8.79"
     height="8.31"
     id="rect1171" />
  <rect
     class="d"
     x="2271.21"
     y="1511.84"
     width="8.79"
     height="8.31"
     id="rect1173" />
  <rect
     class="d"
     x="2390.21"
     y="1821.18"
     width="8.79"
     height="8.31"
     id="rect1175" />
  <rect
     class="d"
     x="2390.21"
     y="1855.53"
     width="8.79"
     height="8.31"
     id="rect1177" />
  <rect
     class="d"
     x="2026.65"
     y="1716.51"
     width="8.31"
     height="8.79"
     transform="translate(309.9 3751.71) rotate(-90)"
     id="rect1179" />
  <rect
     class="d"
     x="1986.11"
     y="1716.51"
     width="8.31"
     height="8.79"
     transform="translate(269.36 3711.17) rotate(-90)"
     id="rect1181" />
  <rect
     class="d"
     x="1986.11"
     y="1699.42"
     width="8.31"
     height="8.79"
     transform="translate(286.45 3694.08) rotate(-90)"
     id="rect1183" />
  <rect
     class="d"
     x="1280.61"
     y="1829.5"
     width="6.77"
     height="8.28"
     id="rect1185" />
  <rect
     class="d"
     x="1266.69"
     y="1867.72"
     width="6.77"
     height="8.28"
     id="rect1187" />
  <rect
     class="d"
     x="991.39"
     y="1677.92"
     width="7.77"
     height="6.51"
     transform="translate(2676.45 685.91) rotate(90)"
     id="rect1189" />
  <rect
     class="d"
     x="987.05"
     y="1762.09"
     width="7.77"
     height="6.51"
     transform="translate(2756.28 774.41) rotate(90)"
     id="rect1191" />
  <rect
     class="d"
     x="940.44"
     y="1661.95"
     width="7.77"
     height="6.51"
     transform="translate(2609.54 720.88) rotate(90)"
     id="rect1193" />
  <rect
     class="d"
     x="970.47"
     y="1661.95"
     width="7.77"
     height="6.51"
     transform="translate(2639.56 690.85) rotate(90)"
     id="rect1195" />
  <rect
     class="d"
     x="970.47"
     y="1677.92"
     width="7.77"
     height="6.51"
     transform="translate(2655.53 706.82) rotate(90)"
     id="rect1197" />
  <rect
     class="d"
     x="1016.72"
     y="1717.65"
     width="7.77"
     height="6.51"
     transform="translate(2741.51 700.3) rotate(90)"
     id="rect1199" />
  <rect
     class="d"
     x="970.47"
     y="1821.5"
     width="7.77"
     height="6.51"
     transform="translate(2799.11 850.4) rotate(90)"
     id="rect1201" />
  <rect
     class="d"
     x="883.98"
     y="1825.38"
     width="7.77"
     height="6.51"
     transform="translate(2716.5 940.78) rotate(90)"
     id="rect1203" />
  <rect
     class="d"
     x="883.98"
     y="1788.77"
     width="7.77"
     height="6.51"
     transform="translate(2679.89 904.17) rotate(90)"
     id="rect1205" />
  <rect
     class="d"
     x="1280.61"
     y="1891"
     width="6.77"
     height="8.28"
     id="rect1207" />
  <rect
     class="d"
     x="2750.34"
     y="1744.67"
     width="5.35"
     height="8.28"
     id="rect1209" />
  <rect
     class="d"
     x="2808.33"
     y="1750.19"
     width="5.35"
     height="8.28"
     id="rect1211" />
  <rect
     class="d"
     x="2739.34"
     y="1809.51"
     width="5.35"
     height="8.28"
     id="rect1213" />
  <rect
     class="d"
     x="2739.34"
     y="1771.29"
     width="5.35"
     height="8.28"
     id="rect1215" />
  <rect
     class="d"
     x="2750.34"
     y="1771.29"
     width="5.35"
     height="8.28"
     id="rect1217" />
  <rect
     class="d"
     x="2821.89"
     y="1623.29"
     width="5.35"
     height="8.28"
     id="rect1219" />
  <rect
     class="d"
     x="2832.9"
     y="1623.29"
     width="5.35"
     height="8.28"
     id="rect1221" />
  <rect
     class="d"
     x="2766.72"
     y="1685.48"
     width="5.35"
     height="8.28"
     id="rect1223" />
  <rect
     class="d"
     x="2849.25"
     y="1832.8"
     width="5.35"
     height="8.28"
     id="rect1225" />
  <rect
     class="d"
     x="2937.36"
     y="1886.26"
     width="4.23"
     height="4.62"
     transform="translate(4828.04 -1050.9) rotate(90)"
     id="rect1227" />
  <rect
     class="d"
     x="2949.4"
     y="1866.92"
     width="4.23"
     height="4.62"
     id="rect1229" />
  <rect
     class="d"
     x="2901.2"
     y="1877.58"
     width="4.23"
     height="4.62"
     transform="translate(4783.2 -1023.43) rotate(90)"
     id="rect1231" />
  <rect
     class="d"
     x="2922.51"
     y="1877.58"
     width="4.23"
     height="4.62"
     transform="translate(4804.51 -1044.74) rotate(90)"
     id="rect1233" />
  <rect
     class="d"
     x="2922.51"
     y="1886.26"
     width="4.23"
     height="4.62"
     transform="translate(4813.2 -1036.05) rotate(90)"
     id="rect1235" />
  <rect
     class="d"
     x="2981.71"
     y="1878.69"
     width="4.23"
     height="4.62"
     id="rect1237" />
  <rect
     class="d"
     x="2973.03"
     y="1899.99"
     width="4.23"
     height="4.62"
     id="rect1239" />
  <rect
     class="d"
     x="2981.71"
     y="1912.98"
     width="4.23"
     height="4.62"
     id="rect1241" />
  <rect
     class="d"
     x="2606.54"
     y="1807.16"
     width="7.01"
     height="6.17"
     transform="translate(5220.08 3620.49) rotate(180)"
     id="rect1243" />
  <rect
     class="d"
     x="2594.64"
     y="1795.96"
     width="7.01"
     height="6.17"
     transform="translate(5196.29 3598.09) rotate(180)"
     id="rect1245" />
  <rect
     class="d"
     x="2594.64"
     y="1757.11"
     width="7.01"
     height="6.17"
     transform="translate(5196.29 3520.39) rotate(180)"
     id="rect1247" />
  <rect
     class="d"
     x="2548.68"
     y="1721.34"
     width="7.01"
     height="6.17"
     transform="translate(5104.37 3448.85) rotate(180)"
     id="rect1249" />
  <rect
     class="d"
     x="2533.11"
     y="1770.71"
     width="7.01"
     height="6.17"
     transform="translate(5073.22 3547.58) rotate(180)"
     id="rect1251" />
  <rect
     class="d"
     x="2545.18"
     y="1856.72"
     width="7.01"
     height="6.17"
     transform="translate(5097.36 3719.62) rotate(180)"
     id="rect1253" />
  <rect
     class="d"
     x="1911.6"
     y="1596.35"
     width="7.01"
     height="8.56"
     id="rect1255" />
  <rect
     class="d"
     x="1852.61"
     y="1544.01"
     width="7.01"
     height="8.56"
     id="rect1257" />
  <rect
     class="d"
     x="1908.09"
     y="1446.87"
     width="7.01"
     height="8.56"
     id="rect1259" />
  <rect
     class="d"
     x="1877.6"
     y="1465.44"
     width="7.01"
     height="8.56"
     id="rect1261" />
  <rect
     class="d"
     x="1797.75"
     y="1490.22"
     width="7.01"
     height="8.56"
     id="rect1263" />
  <rect
     class="d"
     x="1797.75"
     y="1509.22"
     width="7.01"
     height="8.56"
     id="rect1265" />
  <rect
     class="d"
     x="1903.5"
     y="1672.22"
     width="7.01"
     height="8.56"
     id="rect1267" />
  <rect
     class="d"
     x="1889.5"
     y="1672.22"
     width="7.01"
     height="8.56"
     id="rect1269" />
  <rect
     class="d"
     x="1875.75"
     y="1645.47"
     width="7.01"
     height="8.56"
     id="rect1271" />
  <rect
     class="d"
     x="1797.75"
     y="1446.75"
     width="7.01"
     height="8.56"
     id="rect1273" />
  <rect
     class="d"
     x="2523.5"
     y="1639.61"
     width="7.01"
     height="6.17"
     transform="translate(5054.01 3285.39) rotate(180)"
     id="rect1275" />
  <rect
     class="d"
     x="2523.5"
     y="1655.84"
     width="7.01"
     height="6.17"
     transform="translate(5054.01 3317.85) rotate(180)"
     id="rect1277" />
  <rect
     class="d"
     x="2494.22"
     y="1721.34"
     width="7.01"
     height="6.17"
     transform="translate(4995.44 3448.85) rotate(180)"
     id="rect1279" />
  <rect
     class="d"
     x="2494.22"
     y="1737.2"
     width="7.01"
     height="6.17"
     transform="translate(4995.44 3480.57) rotate(180)"
     id="rect1281" />
  <rect
     class="d"
     x="2446.61"
     y="1836.94"
     width="7.01"
     height="6.17"
     transform="translate(4900.22 3680.05) rotate(180)"
     id="rect1283" />
  <rect
     class="d"
     x="2446.61"
     y="1852.8"
     width="7.01"
     height="6.17"
     transform="translate(4900.22 3711.76) rotate(180)"
     id="rect1285" />
  <rect
     class="d"
     x="2511.16"
     y="1655.84"
     width="7.01"
     height="6.17"
     transform="translate(5029.33 3317.85) rotate(180)"
     id="rect1287" />
  <rect
     class="d"
     x="1811.72"
     y="1726.31"
     width="7.01"
     height="8.56"
     id="rect1289" />
  <rect
     class="d"
     x="2606.54"
     y="1757.11"
     width="7.01"
     height="6.17"
     transform="translate(5220.08 3520.39) rotate(180)"
     id="rect1291" />
  <rect
     class="d"
     x="3095.87"
     y="1929.29"
     width="6.63"
     height="4.67"
     id="rect1293" />
  <rect
     class="d"
     x="3167.7"
     y="1932.41"
     width="6.63"
     height="4.67"
     id="rect1295" />
  <rect
     class="d"
     x="3082.25"
     y="1965.88"
     width="6.63"
     height="4.67"
     id="rect1297" />
  <rect
     class="d"
     x="3082.25"
     y="1944.31"
     width="6.63"
     height="4.67"
     id="rect1299" />
  <rect
     class="d"
     x="3095.87"
     y="1944.31"
     width="6.63"
     height="4.67"
     id="rect1301" />
  <rect
     class="d"
     x="3184.51"
     y="1860.8"
     width="6.63"
     height="4.67"
     id="rect1303" />
  <rect
     class="d"
     x="3198.14"
     y="1860.8"
     width="6.63"
     height="4.67"
     id="rect1305" />
  <rect
     class="d"
     x="3116.16"
     y="1895.89"
     width="6.63"
     height="4.67"
     id="rect1307" />
  <rect
     class="d"
     x="3218.39"
     y="1979.02"
     width="6.63"
     height="4.67"
     id="rect1309" />
</svg>
