<svg xmlns="http://www.w3.org/2000/svg" xmlns:xlink="http://www.w3.org/1999/xlink" viewBox="0 0 3502.02 501.38"><defs><style>.a{fill:#9aeff3;opacity:0.83;}.a,.b,.c,.d,.e{isolation:isolate;}.b,.d,.e{fill:#2abadb;}.b{opacity:0.85;}.c{fill:#aef2f5;}.c,.d{opacity:0.45;}.e{opacity:0.77;}.f{fill:url(#a);}</style><linearGradient id="a" x1="1750.65" y1="2290.85" x2="1750.65" y2="-50.75" gradientTransform="translate(1.71 -12.18) rotate(0.4)" gradientUnits="userSpaceOnUse"><stop offset="0.02" stop-color="#041845"/><stop offset="0.31" stop-color="#17347b"/><stop offset="0.51" stop-color="#0357a7"/><stop offset="0.66" stop-color="#0a6db3"/><stop offset="0.77" stop-color="#1888c0"/><stop offset="0.89" stop-color="#28a7ce"/><stop offset="1" stop-color="#53d6db"/></linearGradient></defs><title>nautical-waves</title><path class="a" d="M3500.6,211.23,3499,447.81,525.63,427.12l1.94-278.23-3.59-.08,3.6-1.59q21.6-9.54,43.92-18.11l.27-.1a986.27,986.27,0,0,1,96.29-31.31q44.87-12.14,90.78-20.32,10-1.8,20.1-3.41,38.35-6.18,77.2-9.81a1329.31,1329.31,0,0,1,141.65-5.59q28.34.35,56.72,1.82a1658.06,1658.06,0,0,1,195.87,22.1q14.69,2.53,29.33,5.29,26.3,5,52.34,10.63,4.89,1.06,9.75,2.16c51.16,11.44,101.51,24.88,150.58,39.9,26,8,51.94,16.36,78,24.66,30.83,9.81,61.79,19.45,93,28h0c62.62,17.07,126.34,29.6,192.38,29.87,68.46.28,134.22-12.61,198.67-30.72q5.13-1.44,10.25-2.92c52.87-15.33,105-33.92,157-51.36q11.54-3.87,23.13-7.66,7.69-2.51,15.45-5a1460,1460,0,0,1,143.36-38.12c60.09-12.62,120.79-20.9,181.91-23.63q9.93-.45,19.88-.72a926.77,926.77,0,0,1,153.08,8.63c.67.09,1.34.18,2,.29A872.89,872.89,0,0,1,2847,88.62l.45.11q3.22.79,6.42,1.62,9.16,2.32,18.28,4.81c22.37,6.08,44.57,12.78,66.68,19.81,54.18,17.26,107.81,36.6,162,54.08q15.08,4.85,30.21,9.49,9.14,2.8,18.32,5.48,14.36,4.22,28.85,8.12c18.74,5.05,37.61,9.67,56.67,13.7q4.79,1,9.58,2c44.93,9,90.87,14.62,138.42,14.82C3423,222.84,3462.11,218.5,3500.6,211.23Z"/><path class="b" d="M3500.87,253l-2.34,246.59L413.59,478.69l.19-278.09-3.59-.09c1.21-.52,2.4-1.06,3.61-1.57q17.65-7.67,35.78-14.68,4.26-1.66,8.55-3.27,34.81-13.1,70.45-23.47,37-10.83,74.82-18.85a1146.8,1146.8,0,0,1,125.53-19.43q13.23-1.31,26.48-2.36,12.25-.94,24.53-1.67c73.4-4.3,147.56-2.34,221.31,4.77q26.62,2.56,53.18,6c49.6,6.4,98.88,15,147.47,25.48q89.61,19.38,176.72,46.73c20.74,6.49,41.49,13.29,62.27,20.07,28.39,9.27,56.88,18.54,85.57,27,69.79,20.69,140.84,36.87,214.9,37.63,68.46.7,134.31-11.78,198.91-29.49,49.71-13.63,98.69-30.36,147.54-46.59,19.62-6.51,39.23-12.94,58.85-19.07,35.41-11,71.07-20.87,106.92-29.23q13.17-3.08,26.39-5.87c77-16.32,155-25.62,233.56-25.38a916.18,916.18,0,0,1,145.89,11.94q29.16,4.78,58.35,11.63,7.92,1.82,15.84,3.87c89.17,22.71,175.16,56.7,263,85.19q24,7.79,48.25,14.93c71.87,21,145.55,36.43,223.66,37.23,58.2.59,114.5-8.33,169.75-21.9C3459.27,265.06,3480.11,259.22,3500.87,253Z"/><path class="c" d="M3502,7.69l-2.61,375.52L.05,358.86,2.3,36.39c251.59-66.23,529.63-35.2,776.62,38q8.67,2.56,17.3,5.2c19.87,6.09,39.74,12.44,59.65,18.81,47.46,15.16,95.15,30.34,143.68,41.79,17.71,4.18,35.53,7.86,53.48,10.87a594.17,594.17,0,0,0,96,8.62c62.88.25,123.4-10.93,182.73-27q5.09-1.38,10.15-2.8c54.27-15.25,107.58-34.33,160.87-52.18q5.55-1.87,11.1-3.7,14-4.63,27.88-9.1c39.71-12.66,79.79-23.75,120.14-32.86q23.16-5.24,46.45-9.59a1072.9,1072.9,0,0,1,152.3-17.65q8.9-.37,17.82-.59C1955.62,2.45,2033.4,10,2111.42,29.3c71.56,17.75,141.07,43,211.19,66.5l10.73,3.59c23.24,7.72,46.54,15.2,70,22.11,35.66,10.52,71.73,19.67,108.55,26.37a679.58,679.58,0,0,0,119.78,11.59q13.17.09,26.19-.55A640.07,640.07,0,0,0,2758,146l1.92-.4c29.42-6.11,58.45-13.87,87.26-22.5q12.43-3.72,24.79-7.66c23.15-7.34,46.15-15.08,69.13-22.92h0L2951.27,89c19.76-6.71,39.49-13.42,59.23-19.87q7-2.27,13.94-4.5,19.73-6.3,39.75-12.15c116.46-34.06,239.7-56.12,363.7-51.19Q3465.12,2.75,3502,7.69Z"/><path class="d" d="M3501.74,47l-2.39,343.75L0,366.38,2.44,16.28C125.33.63,251.78,4.6,375.75,22.3c2.58.37,5.17.74,7.74,1.12q16.82,2.48,33.54,5.31h0a5,5,0,0,1,.86.14h0q14.75,2.47,29.4,5.21,8.74,1.61,17.42,3.32h0q9.19,1.78,18.32,3.7,12.79,2.66,25.51,5.47h0q36.16,8,71.71,17.36,39.49,10.35,78,22.18l9.74,3c19.82,6.13,39.65,12.53,59.53,18.87q13.19,4.21,26.43,8.36,11.92,3.74,23.86,7.38c75.75,23,152.74,42.13,233.27,42.46,65.33.26,128.1-11.82,189.64-28.93l3.24-.9c46.42-13,92.16-28.88,137.77-44.39,20.71-7,41.35-14,62.11-20.61,32.8-10.46,65.85-19.85,99.11-27.93q5.56-1.35,11.13-2.65A1167.85,1167.85,0,0,1,1662,15.66q22.56-2.32,45.22-3.62c88-5.05,177,1.58,266.32,23.72,91.93,22.8,180.51,57.93,271.32,85.94q16.94,5.25,34,10.09c69.16,19.61,140,33.79,215,34.1,77.1.31,150.64-16.56,222.83-38.62q20.85-6.36,41.55-13.23l1.92-.64c31.37-10.35,62.56-21.23,93.75-31.62q9.17-3.07,18.36-6.06,7.18-2.35,14.36-4.64,26.06-8.31,52.6-15.89,16.42-4.64,33-9,19.34-5,38.87-9.52Q3048.9,28,3087.3,21.56C3154,10.44,3221.93,5,3290.09,7.71,3362.75,10.68,3435.26,23.48,3501.74,47Z"/><path class="e" d="M1.6,477.05,1.52,147.4Q15.87,141,30.66,135.3c73.8-28.45,155-44,236.5-47.45q40.16-1.72,80.21.06c75.71,3.22,150.85,15.13,224.19,32.65q15.4,3.68,30.64,7.67c35,9.14,69.53,19.49,103.49,30.67,139.23,45.91,277.5,107.56,427.4,106.71,108.49-.61,208.72-29.16,307.19-63,43.51-15,86.68-31,130.08-46,41.47-14.42,83.13-28,125.49-39.06,177.25-46.25,354-33.37,525.87,11.89q15.43,4.06,30.8,8.46,31,8.88,61.84,19.07c72.25,23.84,144.23,51.89,217.74,73.25,68.14,19.81,137.56,33.87,209.67,33.47,88-.5,171.87-22.57,254.34-49,39.79-12.76,79.26-26.54,118.71-39.39l8.65-2.81,7.6-2.43q56-17.79,113.85-32.66c83.61-21.37,169.68-37.6,256.46-46.9l-2.86,410.94Z"/><path class="f" d="M3501,154l-2.48,347.38L1.6,477.05,1.34,174.15c42.69-10,87-16.11,130.71-20.29,106.27-10.17,214.32,1.73,320.59,21q39.44,7.12,78.48,16.54a1638.1,1638.1,0,0,1,211.22,66.45c54.64,21.23,109.29,45.07,164.78,64.6,64.56,22.7,130.28,39.63,198.47,39.89,66.07.22,129.61-15.18,192-37.17,2.25-.79,4.49-1.59,6.73-2.4,69.57-25,137.64-57.83,206-85.72q9.81-4,19.64-7.84a1178.43,1178.43,0,0,1,137.31-44.58c72.38-18.47,145.58-28.77,219.31-28.26a716.26,716.26,0,0,1,182,24.49q11.2,3,22.41,6.43l6.12,1.89c125.39,39.42,244.65,107.26,371.29,144.14,53.15,15.48,107.61,25.51,164.37,25.7,51.32.17,101.14-9.08,150-23.51,86.68-25.57,170.47-67.38,254.69-101.76q5.44-2.22,10.89-4.39a1310.2,1310.2,0,0,1,133.78-45.65q14.59-4.07,29.25-7.72,18.54-4.62,37.21-8.54c67.32-14.08,135.82-21,204.53-17.65C3470.39,150.63,3483.8,151.75,3501,154Z"/></svg>